<svg width="475" height="60" viewBox="0 0 475 60" fill="none" xmlns="http://www.w3.org/2000/svg">
<path d="M48.7909 31.756C48.7909 35.548 48.1309 39.052 46.8109 42.268C45.5149 45.46 43.6789 48.232 41.3029 50.584C38.9269 52.912 36.0589 54.736 32.6989 56.056C29.3629 57.352 25.6549 58 21.5749 58H1.19891V5.548H21.5749C25.6549 5.548 29.3629 6.208 32.6989 7.528C36.0589 8.848 38.9269 10.672 41.3029 13C43.6789 15.328 45.5149 18.1 46.8109 21.316C48.1309 24.508 48.7909 27.988 48.7909 31.756ZM36.3349 31.756C36.3349 29.164 35.9989 26.824 35.3269 24.736C34.6549 22.648 33.6829 20.884 32.4109 19.444C31.1629 17.98 29.6269 16.864 27.8029 16.096C25.9789 15.304 23.9029 14.908 21.5749 14.908H13.4389V48.64H21.5749C23.9029 48.64 25.9789 48.256 27.8029 47.488C29.6269 46.696 31.1629 45.58 32.4109 44.14C33.6829 42.676 34.6549 40.9 35.3269 38.812C35.9989 36.724 36.3349 34.372 36.3349 31.756ZM106.404 31.756C106.404 35.548 105.744 39.076 104.424 42.34C103.128 45.604 101.292 48.448 98.9164 50.872C96.5404 53.272 93.6724 55.156 90.3124 56.524C86.9764 57.892 83.2684 58.576 79.1884 58.576C75.1084 58.576 71.3884 57.892 68.0284 56.524C64.6684 55.156 61.7884 53.272 59.3884 50.872C57.0124 48.448 55.1644 45.604 53.8444 42.34C52.5484 39.076 51.9004 35.548 51.9004 31.756C51.9004 27.964 52.5484 24.436 53.8444 21.172C55.1644 17.908 57.0124 15.076 59.3884 12.676C61.7884 10.276 64.6684 8.392 68.0284 7.024C71.3884 5.656 75.1084 4.972 79.1884 4.972C83.2684 4.972 86.9764 5.668 90.3124 7.06C93.6724 8.428 96.5404 10.312 98.9164 12.712C101.292 15.112 103.128 17.944 104.424 21.208C105.744 24.472 106.404 27.988 106.404 31.756ZM93.9484 31.756C93.9484 29.164 93.6124 26.836 92.9404 24.772C92.2684 22.684 91.2964 20.92 90.0244 19.48C88.7764 18.04 87.2404 16.936 85.4164 16.168C83.5924 15.4 81.5164 15.016 79.1884 15.016C76.8364 15.016 74.7364 15.4 72.8884 16.168C71.0644 16.936 69.5164 18.04 68.2444 19.48C66.9964 20.92 66.0364 22.684 65.3644 24.772C64.6924 26.836 64.3564 29.164 64.3564 31.756C64.3564 34.372 64.6924 36.724 65.3644 38.812C66.0364 40.876 66.9964 42.628 68.2444 44.068C69.5164 45.508 71.0644 46.612 72.8884 47.38C74.7364 48.124 76.8364 48.496 79.1884 48.496C81.5164 48.496 83.5924 48.124 85.4164 47.38C87.2404 46.612 88.7764 45.508 90.0244 44.068C91.2964 42.628 92.2684 40.876 92.9404 38.812C93.6124 36.724 93.9484 34.372 93.9484 31.756ZM118.63 5.548C119.158 5.548 119.602 5.572 119.962 5.62C120.322 5.668 120.646 5.764 120.934 5.908C121.222 6.028 121.498 6.208 121.762 6.448C122.026 6.688 122.326 7.012 122.662 7.42L147.574 38.92C147.478 37.912 147.406 36.94 147.358 36.004C147.31 35.044 147.286 34.144 147.286 33.304V5.548H158.014V58H151.678C150.742 58 149.95 57.856 149.302 57.568C148.654 57.28 148.03 56.752 147.43 55.984L122.698 24.736C122.77 25.648 122.83 26.548 122.878 27.436C122.926 28.3 122.95 29.116 122.95 29.884V58H112.222V5.548H118.63ZM174.492 2.164C175.452 3.676 176.16 5.188 176.616 6.7C177.096 8.212 177.336 9.712 177.336 11.2C177.336 13.768 176.664 16.228 175.32 18.58C173.976 20.932 171.996 23.104 169.38 25.096L165.852 23.008C165.564 22.816 165.348 22.612 165.204 22.396C165.084 22.156 165.024 21.916 165.024 21.676C165.024 21.412 165.084 21.16 165.204 20.92C165.324 20.68 165.468 20.476 165.636 20.308C165.9 20.02 166.188 19.672 166.5 19.264C166.836 18.832 167.148 18.34 167.436 17.788C167.724 17.236 167.964 16.612 168.156 15.916C168.372 15.22 168.48 14.476 168.48 13.684C168.48 12.82 168.324 11.896 168.012 10.912C167.724 9.928 167.232 8.872 166.536 7.744C166.296 7.36 166.176 6.976 166.176 6.592C166.176 6.16 166.32 5.776 166.608 5.44C166.896 5.104 167.292 4.84 167.796 4.648L174.492 2.164ZM221.748 5.548V15.196H206.988V58H194.82V15.196H180.06V5.548H221.748ZM252.851 40.468V58H240.683V5.548H259.187C262.883 5.548 266.051 5.992 268.691 6.88C271.355 7.744 273.539 8.944 275.243 10.48C276.971 12.016 278.243 13.828 279.059 15.916C279.875 18.004 280.283 20.26 280.283 22.684C280.283 25.3 279.863 27.7 279.023 29.884C278.183 32.068 276.899 33.94 275.171 35.5C273.443 37.06 271.247 38.284 268.583 39.172C265.943 40.036 262.811 40.468 259.187 40.468H252.851ZM252.851 31.288H259.187C262.355 31.288 264.635 30.532 266.027 29.02C267.419 27.508 268.115 25.396 268.115 22.684C268.115 21.484 267.935 20.392 267.575 19.408C267.215 18.424 266.663 17.584 265.919 16.888C265.199 16.168 264.275 15.616 263.147 15.232C262.043 14.848 260.723 14.656 259.187 14.656H252.851V31.288ZM329.296 58H319.864C318.808 58 317.932 57.76 317.236 57.28C316.564 56.776 316.096 56.14 315.832 55.372L312.736 46.228H292.792L289.696 55.372C289.456 56.044 288.988 56.656 288.292 57.208C287.596 57.736 286.744 58 285.736 58H276.232L296.536 5.548H308.992L329.296 58ZM295.6 37.948H309.928L305.104 23.584C304.792 22.672 304.42 21.604 303.988 20.38C303.58 19.132 303.172 17.788 302.764 16.348C302.38 17.812 301.984 19.168 301.576 20.416C301.168 21.664 300.784 22.744 300.424 23.656L295.6 37.948ZM339.974 5.548C340.502 5.548 340.946 5.572 341.306 5.62C341.666 5.668 341.99 5.764 342.278 5.908C342.566 6.028 342.842 6.208 343.106 6.448C343.37 6.688 343.67 7.012 344.006 7.42L368.918 38.92C368.822 37.912 368.75 36.94 368.702 36.004C368.654 35.044 368.63 34.144 368.63 33.304V5.548H379.358V58H373.022C372.086 58 371.294 57.856 370.646 57.568C369.998 57.28 369.374 56.752 368.774 55.984L344.042 24.736C344.114 25.648 344.174 26.548 344.222 27.436C344.27 28.3 344.294 29.116 344.294 29.884V58H333.566V5.548H339.974ZM401.308 58H389.068V5.548H401.308V58ZM446.294 44.428C446.582 44.428 446.87 44.488 447.158 44.608C447.446 44.704 447.722 44.884 447.986 45.148L452.81 50.224C450.698 52.984 448.046 55.072 444.854 56.488C441.686 57.88 437.93 58.576 433.586 58.576C429.602 58.576 426.026 57.904 422.858 56.56C419.714 55.192 417.038 53.32 414.83 50.944C412.646 48.544 410.966 45.712 409.79 42.448C408.614 39.16 408.026 35.596 408.026 31.756C408.026 27.844 408.698 24.256 410.042 20.992C411.386 17.704 413.258 14.872 415.658 12.496C418.082 10.12 420.974 8.272 424.334 6.952C427.694 5.632 431.402 4.972 435.458 4.972C437.426 4.972 439.274 5.152 441.002 5.512C442.754 5.848 444.386 6.328 445.898 6.952C447.41 7.552 448.802 8.284 450.074 9.148C451.346 9.988 452.474 10.924 453.458 11.956L449.354 17.464C449.09 17.8 448.778 18.112 448.418 18.4C448.058 18.664 447.554 18.796 446.906 18.796C446.474 18.796 446.066 18.7 445.682 18.508C445.298 18.316 444.89 18.088 444.458 17.824C444.026 17.536 443.546 17.236 443.018 16.924C442.514 16.588 441.902 16.288 441.182 16.024C440.486 15.736 439.658 15.496 438.698 15.304C437.762 15.112 436.658 15.016 435.386 15.016C433.178 15.016 431.162 15.412 429.338 16.204C427.514 16.972 425.942 18.088 424.622 19.552C423.326 20.992 422.306 22.744 421.562 24.808C420.842 26.872 420.482 29.188 420.482 31.756C420.482 34.444 420.842 36.832 421.562 38.92C422.306 41.008 423.302 42.772 424.55 44.212C425.822 45.628 427.298 46.708 428.978 47.452C430.658 48.196 432.458 48.568 434.378 48.568C435.482 48.568 436.49 48.52 437.402 48.424C438.314 48.304 439.154 48.112 439.922 47.848C440.714 47.584 441.458 47.248 442.154 46.84C442.874 46.408 443.594 45.88 444.314 45.256C444.602 45.016 444.914 44.824 445.25 44.68C445.586 44.512 445.934 44.428 446.294 44.428ZM472.915 5.548V26.14C472.915 28.348 472.783 30.544 472.519 32.728C472.255 34.888 471.907 37.096 471.475 39.352H463.915C463.483 37.096 463.135 34.888 462.871 32.728C462.607 30.544 462.475 28.348 462.475 26.14V5.548H472.915ZM461.251 52.348C461.251 51.484 461.407 50.68 461.719 49.936C462.055 49.192 462.499 48.544 463.051 47.992C463.627 47.44 464.299 47.008 465.067 46.696C465.835 46.36 466.675 46.192 467.587 46.192C468.475 46.192 469.303 46.36 470.071 46.696C470.839 47.008 471.511 47.44 472.087 47.992C472.663 48.544 473.107 49.192 473.419 49.936C473.755 50.68 473.923 51.484 473.923 52.348C473.923 53.212 473.755 54.028 473.419 54.796C473.107 55.54 472.663 56.188 472.087 56.74C471.511 57.292 470.839 57.724 470.071 58.036C469.303 58.348 468.475 58.504 467.587 58.504C466.675 58.504 465.835 58.348 465.067 58.036C464.299 57.724 463.627 57.292 463.051 56.74C462.499 56.188 462.055 55.54 461.719 54.796C461.407 54.028 461.251 53.212 461.251 52.348Z" fill="#151531"/>
<path d="M46.8109 42.268L45.8858 41.8883L45.8844 41.8918L46.8109 42.268ZM41.3029 50.584L42.0028 51.2983L42.0064 51.2947L41.3029 50.584ZM32.6989 56.056L33.061 56.9881L33.0646 56.9868L32.6989 56.056ZM1.19891 58H0.198906V59H1.19891V58ZM1.19891 5.548V4.548H0.198906V5.548H1.19891ZM32.6989 7.528L32.331 8.45785L32.3333 8.45875L32.6989 7.528ZM41.3029 13L40.6031 13.7143H40.6031L41.3029 13ZM46.8109 21.316L45.8834 21.6898L45.8868 21.6981L46.8109 21.316ZM32.4109 19.444L31.6499 20.0927L31.6556 20.0994L31.6614 20.106L32.4109 19.444ZM27.8029 16.096L27.4046 17.0133L27.4148 17.0176L27.8029 16.096ZM13.4389 14.908V13.908H12.4389V14.908H13.4389ZM13.4389 48.64H12.4389V49.64H13.4389V48.64ZM27.8029 47.488L28.191 48.4097L28.2012 48.4053L27.8029 47.488ZM32.4109 44.14L31.656 43.4841L31.6552 43.4851L32.4109 44.14ZM35.3269 38.812L34.375 38.5056L35.3269 38.812ZM47.7909 31.756C47.7909 35.4297 47.152 38.8033 45.8858 41.8883L47.736 42.6477C49.1098 39.3007 49.7909 35.6663 49.7909 31.756H47.7909ZM45.8844 41.8918C44.6377 44.9623 42.8762 47.6195 40.5994 49.8733L42.0064 51.2947C44.4816 48.8445 46.3921 45.9577 47.7374 42.6442L45.8844 41.8918ZM40.6031 49.8697C38.3307 52.0961 35.5792 53.8501 32.3333 55.1252L33.0646 56.9868C36.5386 55.6219 39.5231 53.7279 42.0028 51.2983L40.6031 49.8697ZM32.3368 55.1239C29.1312 56.3692 25.5482 57 21.5749 57V59C25.7616 59 29.5946 58.3348 33.061 56.9881L32.3368 55.1239ZM21.5749 57H1.19891V59H21.5749V57ZM2.19891 58V5.548H0.198906V58H2.19891ZM1.19891 6.548H21.5749V4.548H1.19891V6.548ZM21.5749 6.548C25.5461 6.548 29.1271 7.19012 32.331 8.45785L33.0668 6.59814C29.5988 5.22588 25.7637 4.548 21.5749 4.548V6.548ZM32.3333 8.45875C35.5792 9.73394 38.3307 11.4879 40.6031 13.7143L42.0028 12.2857C39.5231 9.85614 36.5386 7.96205 33.0646 6.59725L32.3333 8.45875ZM40.6031 13.7143C42.8763 15.9416 44.6367 18.5962 45.8834 21.6898L47.7384 20.9422C46.3931 17.6038 44.4815 14.7144 42.0028 12.2857L40.6031 13.7143ZM45.8868 21.6981C47.1523 24.7584 47.7909 28.1071 47.7909 31.756H49.7909C49.7909 27.8689 49.1095 24.2576 47.735 20.9339L45.8868 21.6981ZM37.3349 31.756C37.3349 29.0784 36.9879 26.6327 36.2788 24.4296L34.375 25.0424C35.01 27.0153 35.3349 29.2496 35.3349 31.756H37.3349ZM36.2788 24.4296C35.5705 22.2289 34.5357 20.3389 33.1604 18.782L31.6614 20.106C32.8301 21.4291 33.7393 23.0671 34.375 25.0424L36.2788 24.4296ZM33.1719 18.7953C31.8196 17.2089 30.1546 16.0012 28.191 15.1744L27.4148 17.0176C29.0992 17.7268 30.5062 18.7511 31.6499 20.0927L33.1719 18.7953ZM28.2012 15.1787C26.2319 14.3236 24.0168 13.908 21.5749 13.908V15.908C23.789 15.908 25.7259 16.2843 27.4046 17.0133L28.2012 15.1787ZM21.5749 13.908H13.4389V15.908H21.5749V13.908ZM12.4389 14.908V48.64H14.4389V14.908H12.4389ZM13.4389 49.64H21.5749V47.64H13.4389V49.64ZM21.5749 49.64C24.013 49.64 26.2244 49.2376 28.191 48.4096L27.4148 46.5664C25.7334 47.2744 23.7928 47.64 21.5749 47.64V49.64ZM28.2012 48.4053C30.1563 47.5563 31.8163 46.353 33.1666 44.7949L31.6552 43.4851C30.5095 44.807 29.0975 45.8357 27.4046 46.5707L28.2012 48.4053ZM33.1658 44.7959C34.5373 43.2173 35.5708 41.3182 36.2788 39.1184L34.375 38.5056C33.739 40.4818 32.8285 42.1347 31.656 43.4841L33.1658 44.7959ZM36.2788 39.1184C36.9881 36.9144 37.3349 34.4566 37.3349 31.756H35.3349C35.3349 34.2874 35.0097 36.5336 34.375 38.5056L36.2788 39.1184ZM104.424 42.34L103.497 41.9651L103.495 41.971L104.424 42.34ZM98.9164 50.872L99.6271 51.5756L99.6306 51.572L98.9164 50.872ZM90.3124 56.524L89.9353 55.5978L89.933 55.5988L90.3124 56.524ZM68.0284 56.524L67.6513 57.4502L68.0284 56.524ZM59.3884 50.872L58.6742 51.572L58.6813 51.5791L59.3884 50.872ZM53.8444 42.34L52.915 42.709L52.9173 42.7149L53.8444 42.34ZM53.8444 21.172L52.9173 20.7971L52.915 20.803L53.8444 21.172ZM59.3884 12.676L58.6813 11.9689L58.6778 11.9725L59.3884 12.676ZM68.0284 7.024L68.4055 7.95018V7.95018L68.0284 7.024ZM90.3124 7.06L89.9273 7.98291L89.9353 7.98617L90.3124 7.06ZM98.9164 12.712L98.2057 13.4155L98.9164 12.712ZM104.424 21.208L103.495 21.577L103.497 21.5829L104.424 21.208ZM92.9404 24.772L91.9885 25.0784L91.9895 25.0816L92.9404 24.772ZM90.0244 19.48L89.2687 20.135L89.2749 20.142L90.0244 19.48ZM85.4164 16.168L85.8045 15.2464L85.4164 16.168ZM72.8884 16.168L72.5046 15.2446L72.5004 15.2464L72.8884 16.168ZM68.2444 19.48L67.4949 18.8179L67.4887 18.8251L68.2444 19.48ZM65.3644 24.772L66.3153 25.0816L66.3163 25.0784L65.3644 24.772ZM65.3644 38.812L64.4125 39.1184L64.4135 39.1216L65.3644 38.812ZM68.2444 44.068L67.4887 44.723L67.4949 44.73L68.2444 44.068ZM72.8884 47.38L72.5004 48.3016L72.5076 48.3047L72.5149 48.3076L72.8884 47.38ZM85.4164 47.38L85.7941 48.306L85.8045 48.3016L85.4164 47.38ZM90.0244 44.068L89.2749 43.4059L89.2687 43.4131L90.0244 44.068ZM92.9404 38.812L93.8913 39.1216L93.8923 39.1184L92.9404 38.812ZM105.404 31.756C105.404 35.4295 104.766 38.8291 103.497 41.9651L105.351 42.7149C106.723 39.3229 107.404 35.6665 107.404 31.756H105.404ZM103.495 41.971C102.246 45.1158 100.482 47.8462 98.2023 50.172L99.6306 51.572C102.103 49.0498 104.011 46.0922 105.354 42.709L103.495 41.971ZM98.2057 50.1685C95.9317 52.4655 93.1796 54.2769 89.9353 55.5978L90.6895 57.4502C94.1652 56.0351 97.1492 54.0785 99.6271 51.5755L98.2057 50.1685ZM89.933 55.5988C86.7322 56.9113 83.1553 57.576 79.1884 57.576V59.576C83.3815 59.576 87.2206 58.8727 90.6918 57.4492L89.933 55.5988ZM79.1884 57.576C75.2216 57.576 71.6317 56.9114 68.4055 55.5978L67.6513 57.4502C71.1451 58.8726 74.9952 59.576 79.1884 59.576V57.576ZM68.4055 55.5978C65.1604 54.2766 62.3949 52.4642 60.0955 50.1649L58.6813 51.5791C61.182 54.0798 64.1764 56.0354 67.6513 57.4502L68.4055 55.5978ZM60.1025 50.172C57.8215 47.8449 56.0443 45.1124 54.7715 41.9651L52.9173 42.7149C54.2845 46.0955 56.2033 49.0511 58.6743 51.572L60.1025 50.172ZM54.7738 41.971C53.5281 38.8335 52.9004 35.4318 52.9004 31.756H50.9004C50.9004 35.6642 51.5688 39.3185 52.915 42.709L54.7738 41.971ZM52.9004 31.756C52.9004 28.0802 53.5281 24.6785 54.7738 21.541L52.915 20.803C51.5688 24.1935 50.9004 27.8478 50.9004 31.756H52.9004ZM54.7715 21.5469C56.044 18.4004 57.8202 15.6814 60.0991 13.3795L58.6778 11.9725C56.2046 14.4706 54.2849 17.4156 52.9173 20.7971L54.7715 21.5469ZM60.0955 13.3831C62.3949 11.0838 65.1604 9.27139 68.4055 7.95018L67.6513 6.09782C64.1764 7.5126 61.182 9.46823 58.6813 11.9689L60.0955 13.3831ZM68.4055 7.95018C71.6317 6.63664 75.2216 5.972 79.1884 5.972V3.972C74.9952 3.972 71.1451 4.67536 67.6513 6.09782L68.4055 7.95018ZM79.1884 5.972C83.1532 5.972 86.7281 6.64793 89.9273 7.98288L90.6975 6.13712C87.2248 4.68806 83.3836 3.972 79.1884 3.972V5.972ZM89.9353 7.98617C93.1796 9.30708 95.9317 11.1185 98.2057 13.4155L99.6271 12.0085C97.1492 9.50552 94.1652 7.54892 90.6895 6.13382L89.9353 7.98617ZM98.2057 13.4155C100.483 15.7161 102.247 18.433 103.495 21.577L105.354 20.839C104.01 17.455 102.102 14.5079 99.6271 12.0085L98.2057 13.4155ZM103.497 21.5829C104.766 24.7196 105.404 28.1074 105.404 31.756H107.404C107.404 27.8686 106.723 24.2244 105.351 20.8331L103.497 21.5829ZM94.9484 31.756C94.9484 29.0787 94.6014 26.6436 93.8913 24.4624L91.9895 25.0816C92.6234 27.0284 92.9484 29.2493 92.9484 31.756H94.9484ZM93.8923 24.4656C93.184 22.2649 92.1492 20.3749 90.7739 18.818L89.2749 20.142C90.4436 21.4651 91.3528 23.1031 91.9885 25.0784L93.8923 24.4656ZM90.7801 18.8251C89.4277 17.2646 87.7642 16.0715 85.8045 15.2464L85.0284 17.0896C86.7166 17.8005 88.1251 18.8154 89.2687 20.1349L90.7801 18.8251ZM85.8045 15.2464C83.838 14.4184 81.6265 14.016 79.1884 14.016V16.016C81.4063 16.016 83.3469 16.3816 85.0284 17.0896L85.8045 15.2464ZM79.1884 14.016C76.7274 14.016 74.4936 14.418 72.5046 15.2446L73.2722 17.0914C74.9792 16.382 76.9454 16.016 79.1884 16.016V14.016ZM72.5004 15.2464C70.5422 16.0708 68.8694 17.2619 67.4949 18.818L68.9939 20.142C70.1634 18.8181 71.5866 17.8011 73.2765 17.0896L72.5004 15.2464ZM67.4887 18.8251C66.1402 20.3811 65.1196 22.2686 64.4125 24.4656L66.3163 25.0784C66.9532 23.0994 67.8526 21.4589 69.0001 20.1349L67.4887 18.8251ZM64.4135 24.4624C63.7034 26.6436 63.3564 29.0787 63.3564 31.756H65.3564C65.3564 29.2493 65.6814 27.0284 66.3153 25.0816L64.4135 24.4624ZM63.3564 31.756C63.3564 34.4566 63.7032 36.9144 64.4125 39.1184L66.3163 38.5056C65.6816 36.5336 65.3564 34.2874 65.3564 31.756H63.3564ZM64.4135 39.1216C65.1212 41.295 66.1419 43.1689 67.4887 44.7229L69.0001 43.4131C67.8509 42.0871 66.9517 40.457 66.3153 38.5024L64.4135 39.1216ZM67.4949 44.73C68.8694 46.2861 70.5422 47.4771 72.5004 48.3016L73.2765 46.4584C71.5866 45.7468 70.1634 44.7299 68.9939 43.406L67.4949 44.73ZM72.5149 48.3076C74.501 49.1072 76.7311 49.496 79.1884 49.496V47.496C76.9417 47.496 74.9718 47.1408 73.2619 46.4524L72.5149 48.3076ZM79.1884 49.496C81.6228 49.496 83.8305 49.1069 85.7941 48.3059L85.0387 46.4541C83.3543 47.1411 81.41 47.496 79.1884 47.496V49.496ZM85.8045 48.3016C87.7642 47.4765 89.4277 46.2834 90.7801 44.7229L89.2687 43.4131C88.1251 44.7326 86.7166 45.7475 85.0284 46.4584L85.8045 48.3016ZM90.7739 44.73C92.1474 43.1751 93.1824 41.2988 93.8913 39.1216L91.9895 38.5024C91.3544 40.4532 90.4454 42.0809 89.2749 43.406L90.7739 44.73ZM93.8923 39.1184C94.6016 36.9144 94.9484 34.4566 94.9484 31.756H92.9484C92.9484 34.2874 92.6232 36.5336 91.9885 38.5056L93.8923 39.1184ZM119.962 5.62L119.83 6.61123L119.962 5.62ZM120.934 5.908L120.487 6.80242L120.518 6.81783L120.55 6.83108L120.934 5.908ZM122.662 7.42L123.447 6.79968L123.441 6.79193L123.434 6.78429L122.662 7.42ZM147.574 38.92L146.79 39.5403L148.891 42.1969L148.57 38.8252L147.574 38.92ZM147.358 36.004L146.36 36.0539L146.36 36.0552L147.358 36.004ZM147.286 5.548V4.548H146.286V5.548H147.286ZM158.014 5.548H159.014V4.548H158.014V5.548ZM158.014 58V59H159.014V58H158.014ZM149.302 57.568L149.708 56.6542V56.6542L149.302 57.568ZM147.43 55.984L148.218 55.3683L148.214 55.3634L147.43 55.984ZM122.698 24.736L123.482 24.1154L121.443 21.5383L121.701 24.8147L122.698 24.736ZM122.878 27.436L121.88 27.49L121.88 27.4915L122.878 27.436ZM122.95 58V59H123.95V58H122.95ZM112.222 58H111.222V59H112.222V58ZM112.222 5.548V4.548H111.222V5.548H112.222ZM118.63 6.548C119.132 6.548 119.529 6.57104 119.83 6.61123L120.095 4.62877C119.676 4.57296 119.185 4.548 118.63 4.548V6.548ZM119.83 6.61123C120.094 6.64645 120.31 6.71378 120.487 6.80242L121.382 5.01357C120.983 4.81421 120.55 4.68954 120.095 4.62877L119.83 6.61123ZM120.55 6.83108C120.718 6.90116 120.898 7.01413 121.09 7.18794L122.435 5.70806C122.098 5.40187 121.727 5.15484 121.319 4.98492L120.55 6.83108ZM121.09 7.18794C121.306 7.38426 121.572 7.66894 121.89 8.05571L123.434 6.78429C123.081 6.35505 122.747 5.99174 122.435 5.70806L121.09 7.18794ZM121.878 8.04031L146.79 39.5403L148.359 38.2997L123.447 6.79968L121.878 8.04031ZM148.57 38.8252C148.475 37.8306 148.404 36.8731 148.357 35.9528L146.36 36.0552C146.408 37.0069 146.482 37.9934 146.579 39.0148L148.57 38.8252ZM148.357 35.9541C148.31 35.0084 148.286 34.1252 148.286 33.304H146.286C146.286 34.1628 146.311 35.0796 146.36 36.0539L148.357 35.9541ZM148.286 33.304V5.548H146.286V33.304H148.286ZM147.286 6.548H158.014V4.548H147.286V6.548ZM157.014 5.548V58H159.014V5.548H157.014ZM158.014 57H151.678V59H158.014V57ZM151.678 57C150.84 57 150.195 56.8703 149.708 56.6542L148.896 58.4818C149.706 58.8417 150.645 59 151.678 59V57ZM149.708 56.6542C149.256 56.453 148.753 56.0531 148.218 55.3684L146.642 56.5996C147.307 57.4509 148.053 58.107 148.896 58.4818L149.708 56.6542ZM148.214 55.3634L123.482 24.1154L121.914 25.3566L146.646 56.6046L148.214 55.3634ZM121.701 24.8147C121.773 25.7187 121.832 26.6105 121.88 27.49L123.877 27.382C123.828 26.4855 123.768 25.5773 123.695 24.6573L121.701 24.8147ZM121.88 27.4915C121.927 28.3393 121.95 29.1366 121.95 29.884H123.95C123.95 29.0954 123.926 28.2607 123.877 27.3805L121.88 27.4915ZM121.95 29.884V58H123.95V29.884H121.95ZM122.95 57H112.222V59H122.95V57ZM113.222 58V5.548H111.222V58H113.222ZM112.222 6.548H118.63V4.548H112.222V6.548ZM174.492 2.164L175.336 1.62799L174.903 0.945078L174.144 1.22643L174.492 2.164ZM176.616 6.7L175.659 6.98874L175.661 6.99567L175.663 7.00258L176.616 6.7ZM175.32 18.58L176.188 19.0761L175.32 18.58ZM169.38 25.096L168.871 25.9566L169.45 26.2995L169.986 25.8916L169.38 25.096ZM165.852 23.008L165.298 23.84L165.32 23.8549L165.343 23.8686L165.852 23.008ZM165.204 22.396L164.31 22.8432L164.338 22.8989L164.372 22.9507L165.204 22.396ZM165.204 20.92L166.099 21.3672L165.204 20.92ZM165.636 20.308L166.343 21.0151L166.359 20.9997L166.373 20.9837L165.636 20.308ZM166.5 19.264L165.711 18.65L165.706 18.6565L166.5 19.264ZM167.436 17.788L166.55 17.3254L167.436 17.788ZM168.156 15.916L167.201 15.6196L167.196 15.6348L167.192 15.6501L168.156 15.916ZM168.012 10.912L167.052 11.1929L167.056 11.2036L167.059 11.2142L168.012 10.912ZM166.536 7.744L167.387 7.21888L167.384 7.214L166.536 7.744ZM166.608 5.44L167.367 6.09079V6.09079L166.608 5.44ZM167.796 4.648L167.448 3.71039L167.44 3.71351L167.796 4.648ZM173.648 2.7C174.566 4.14523 175.232 5.57469 175.659 6.98874L177.574 6.41126C177.088 4.8013 176.339 3.20677 175.336 1.62799L173.648 2.7ZM175.663 7.00258C176.114 8.4232 176.336 9.82125 176.336 11.2H178.336C178.336 9.60275 178.078 8.0008 177.569 6.39742L175.663 7.00258ZM176.336 11.2C176.336 13.5843 175.715 15.8743 174.452 18.0839L176.188 19.0761C177.614 16.5816 178.336 13.9517 178.336 11.2H176.336ZM174.452 18.0839C173.187 20.2974 171.306 22.3727 168.774 24.3004L169.986 25.8916C172.686 23.8353 174.765 21.5666 176.188 19.0761L174.452 18.0839ZM169.89 24.2354L166.362 22.1474L165.343 23.8686L168.871 25.9566L169.89 24.2354ZM166.407 22.1759C166.194 22.0341 166.087 21.9174 166.036 21.8413L164.372 22.9507C164.609 23.3066 164.934 23.5979 165.298 23.84L166.407 22.1759ZM166.099 21.9488C166.04 21.8311 166.024 21.7432 166.024 21.676H164.024C164.024 22.0888 164.129 22.4809 164.31 22.8432L166.099 21.9488ZM166.024 21.676C166.024 21.5699 166.047 21.4707 166.099 21.3672L164.31 20.4728C164.122 20.8493 164.024 21.2541 164.024 21.676H166.024ZM166.099 21.3672C166.177 21.2111 166.26 21.098 166.343 21.0151L164.929 19.6009C164.676 19.854 164.472 20.1489 164.31 20.4728L166.099 21.3672ZM166.373 20.9837C166.663 20.6683 166.97 20.2962 167.295 19.8714L165.706 18.6565C165.407 19.0478 165.138 19.3717 164.899 19.6323L166.373 20.9837ZM167.29 19.8779C167.667 19.3926 168.011 18.8487 168.323 18.2506L166.55 17.3254C166.286 17.8313 166.005 18.2714 165.711 18.6501L167.29 19.8779ZM168.323 18.2506C168.648 17.6269 168.912 16.9355 169.12 16.1819L167.192 15.6501C167.016 16.2885 166.8 16.845 166.55 17.3254L168.323 18.2506ZM169.111 16.2124C169.36 15.4125 169.48 14.5678 169.48 13.684H167.48C167.48 14.3842 167.385 15.0275 167.201 15.6196L169.111 16.2124ZM169.48 13.684C169.48 12.6997 169.303 11.6731 168.965 10.6098L167.059 11.2142C167.346 12.1189 167.48 12.9403 167.48 13.684H169.48ZM168.972 10.6311C168.653 9.54038 168.117 8.40209 167.387 7.21889L165.685 8.26911C166.347 9.34191 166.796 10.3156 167.052 11.1929L168.972 10.6311ZM167.384 7.214C167.225 6.96005 167.176 6.75721 167.176 6.592H165.176C165.176 7.19478 165.367 7.75994 165.688 8.274L167.384 7.214ZM167.176 6.592C167.176 6.40501 167.231 6.25039 167.367 6.09079L165.849 4.78921C165.41 5.30161 165.176 5.91499 165.176 6.592H167.176ZM167.367 6.09079C167.525 5.90642 167.77 5.72794 168.152 5.58248L167.44 3.71351C166.814 3.95205 166.267 4.30157 165.849 4.78921L167.367 6.09079ZM168.144 5.58556L174.84 3.10156L174.144 1.22643L167.448 3.71043L168.144 5.58556ZM221.748 5.548H222.748V4.548H221.748V5.548ZM221.748 15.196V16.196H222.748V15.196H221.748ZM206.988 15.196V14.196H205.988V15.196H206.988ZM206.988 58V59H207.988V58H206.988ZM194.82 58H193.82V59H194.82V58ZM194.82 15.196H195.82V14.196H194.82V15.196ZM180.06 15.196H179.06V16.196H180.06V15.196ZM180.06 5.548V4.548H179.06V5.548H180.06ZM220.748 5.548V15.196H222.748V5.548H220.748ZM221.748 14.196H206.988V16.196H221.748V14.196ZM205.988 15.196V58H207.988V15.196H205.988ZM206.988 57H194.82V59H206.988V57ZM195.82 58V15.196H193.82V58H195.82ZM194.82 14.196H180.06V16.196H194.82V14.196ZM181.06 15.196V5.548H179.06V15.196H181.06ZM180.06 6.548H221.748V4.548H180.06V6.548ZM252.851 40.468V39.468H251.851V40.468H252.851ZM252.851 58V59H253.851V58H252.851ZM240.683 58H239.683V59H240.683V58ZM240.683 5.548V4.548H239.683V5.548H240.683ZM268.691 6.88L268.372 7.82787L268.383 7.83122L268.691 6.88ZM275.243 10.48L274.574 11.2228L274.579 11.2274L275.243 10.48ZM279.059 15.916L279.991 15.552L279.059 15.916ZM279.023 29.884L279.957 30.243L279.023 29.884ZM275.171 35.5L275.841 36.2423L275.171 35.5ZM268.583 39.172L268.894 40.1224L268.9 40.1207L268.583 39.172ZM252.851 31.288H251.851V32.288H252.851V31.288ZM266.027 29.02L266.763 29.6973L266.027 29.02ZM265.919 16.888L265.212 17.5951L265.224 17.6069L265.236 17.6183L265.919 16.888ZM263.147 15.232L262.819 16.1765L262.825 16.1786L263.147 15.232ZM252.851 14.656V13.656H251.851V14.656H252.851ZM251.851 40.468V58H253.851V40.468H251.851ZM252.851 57H240.683V59H252.851V57ZM241.683 58V5.548H239.683V58H241.683ZM240.683 6.548H259.187V4.548H240.683V6.548ZM259.187 6.548C262.808 6.548 265.863 6.98358 268.372 7.82782L269.01 5.93218C266.24 5.00041 262.958 4.548 259.187 4.548V6.548ZM268.383 7.83122C270.942 8.66123 272.994 9.79922 274.574 11.2228L275.913 9.73722C274.084 8.08877 271.769 6.82677 269 5.92877L268.383 7.83122ZM274.579 11.2274C276.193 12.6619 277.371 14.3438 278.128 16.28L279.991 15.552C279.115 13.3122 277.75 11.3701 275.908 9.73259L274.579 11.2274ZM278.128 16.28C278.895 18.2429 279.283 20.3744 279.283 22.684H281.283C281.283 20.1456 280.856 17.7651 279.991 15.552L278.128 16.28ZM279.283 22.684C279.283 25.1917 278.881 27.4683 278.09 29.525L279.957 30.243C280.846 27.9317 281.283 25.4083 281.283 22.684H279.283ZM278.09 29.525C277.306 31.5631 276.112 33.3036 274.501 34.7577L275.841 36.2423C277.687 34.5764 279.061 32.5729 279.957 30.243L278.09 29.525ZM274.501 34.7577C272.894 36.2082 270.827 37.3701 268.267 38.2233L268.9 40.1207C271.668 39.1979 273.992 37.9118 275.841 36.2423L274.501 34.7577ZM268.272 38.2216C265.758 39.0445 262.736 39.468 259.187 39.468V41.468C262.887 41.468 266.129 41.0275 268.894 40.1224L268.272 38.2216ZM259.187 39.468H252.851V41.468H259.187V39.468ZM252.851 32.288H259.187V30.288H252.851V32.288ZM259.187 32.288C262.485 32.288 265.1 31.504 266.763 29.6973L265.292 28.3427C264.171 29.56 262.226 30.288 259.187 30.288V32.288ZM266.763 29.6973C268.373 27.9481 269.115 25.5648 269.115 22.684H267.115C267.115 25.2272 266.465 27.0679 265.292 28.3427L266.763 29.6973ZM269.115 22.684C269.115 21.3836 268.92 20.1732 268.514 19.0644L266.636 19.7516C266.951 20.6108 267.115 21.5844 267.115 22.684H269.115ZM268.514 19.0644C268.102 17.9376 267.464 16.9639 266.602 16.1577L265.236 17.6183C265.862 18.2041 266.328 18.9104 266.636 19.7516L268.514 19.0644ZM266.626 16.1809C265.781 15.3357 264.718 14.7103 263.47 14.2853L262.825 16.1786C263.833 16.5217 264.617 17.0003 265.212 17.5951L266.626 16.1809ZM263.476 14.2875C262.239 13.8573 260.802 13.656 259.187 13.656V15.656C260.645 15.656 261.848 15.8387 262.819 16.1765L263.476 14.2875ZM259.187 13.656H252.851V15.656H259.187V13.656ZM251.851 14.656V31.288H253.851V14.656H251.851ZM329.296 58V59H330.756L330.229 57.639L329.296 58ZM317.236 57.28L316.636 58.08L316.652 58.0919L316.668 58.1032L317.236 57.28ZM315.832 55.372L314.885 55.6927L314.886 55.6971L315.832 55.372ZM312.736 46.228L313.683 45.9073L313.453 45.228H312.736V46.228ZM292.792 46.228V45.228H292.075L291.845 45.9073L292.792 46.228ZM289.696 55.372L290.638 55.7083L290.641 55.7005L290.643 55.6927L289.696 55.372ZM288.292 57.208L288.897 58.0047L288.905 57.9982L288.914 57.9915L288.292 57.208ZM276.232 58L275.3 57.639L274.773 59H276.232V58ZM296.536 5.548V4.548H295.851L295.604 5.18701L296.536 5.548ZM308.992 5.548L309.925 5.18701L309.677 4.548H308.992V5.548ZM295.6 37.948L294.653 37.6282L294.207 38.948H295.6V37.948ZM309.928 37.948V38.948H311.319L310.876 37.6296L309.928 37.948ZM305.104 23.584L306.052 23.2656L306.05 23.2603L305.104 23.584ZM303.988 20.38L303.038 20.6907L303.041 20.7018L303.045 20.7128L303.988 20.38ZM302.764 16.348L303.726 16.0754L302.727 12.5484L301.797 16.0943L302.764 16.348ZM301.576 20.416L302.527 20.7267L301.576 20.416ZM300.424 23.656L299.494 23.2888L299.485 23.3123L299.477 23.3362L300.424 23.656ZM329.296 57H319.864V59H329.296V57ZM319.864 57C318.96 57 318.296 56.7958 317.804 56.4568L316.668 58.1032C317.569 58.7242 318.656 59 319.864 59V57ZM317.836 56.48C317.318 56.0918 316.974 55.6188 316.778 55.0469L314.886 55.6971C315.218 56.6612 315.81 57.4602 316.636 58.08L317.836 56.48ZM316.779 55.0513L313.683 45.9073L311.789 46.5487L314.885 55.6927L316.779 55.0513ZM312.736 45.228H292.792V47.228H312.736V45.228ZM291.845 45.9073L288.749 55.0513L290.643 55.6927L293.739 46.5487L291.845 45.9073ZM288.754 55.0357C288.591 55.4931 288.256 55.9603 287.671 56.4245L288.914 57.9915C289.72 57.3517 290.321 56.5949 290.638 55.7083L288.754 55.0357ZM287.688 56.4113C287.192 56.7877 286.561 57 285.736 57V59C286.927 59 288.001 58.6843 288.897 58.0047L287.688 56.4113ZM285.736 57H276.232V59H285.736V57ZM277.165 58.361L297.469 5.90899L295.604 5.18701L275.3 57.639L277.165 58.361ZM296.536 6.548H308.992V4.548H296.536V6.548ZM308.06 5.90899L328.364 58.361L330.229 57.639L309.925 5.18701L308.06 5.90899ZM295.6 38.948H309.928V36.948H295.6V38.948ZM310.876 37.6296L306.052 23.2656L304.156 23.9024L308.98 38.2664L310.876 37.6296ZM306.05 23.2603C305.737 22.3444 305.364 21.2733 304.931 20.0472L303.045 20.7128C303.476 21.9347 303.847 22.9996 304.158 23.9077L306.05 23.2603ZM304.939 20.0693C304.535 18.8355 304.131 17.5043 303.726 16.0754L301.802 16.6206C302.213 18.0717 302.625 19.4285 303.038 20.6907L304.939 20.0693ZM301.797 16.0943C301.417 17.5419 301.027 18.8787 300.626 20.1053L302.527 20.7267C302.942 19.4573 303.343 18.0821 303.731 16.6017L301.797 16.0943ZM300.626 20.1053C300.222 21.3402 299.845 22.4004 299.494 23.2888L301.354 24.0232C301.724 23.0876 302.114 21.9878 302.527 20.7267L300.626 20.1053ZM299.477 23.3362L294.653 37.6282L296.548 38.2678L301.372 23.9758L299.477 23.3362ZM341.306 5.62L341.174 6.61123L341.306 5.62ZM342.278 5.908L341.831 6.80242L341.862 6.81783L341.893 6.83108L342.278 5.908ZM344.006 7.42L344.79 6.79968L344.784 6.79193L344.778 6.78429L344.006 7.42ZM368.918 38.92L368.134 39.5403L370.235 42.1969L369.914 38.8252L368.918 38.92ZM368.702 36.004L367.703 36.0539L367.703 36.0552L368.702 36.004ZM368.63 5.548V4.548H367.63V5.548H368.63ZM379.358 5.548H380.358V4.548H379.358V5.548ZM379.358 58V59H380.358V58H379.358ZM370.646 57.568L371.052 56.6542V56.6542L370.646 57.568ZM368.774 55.984L369.562 55.3683L369.558 55.3634L368.774 55.984ZM344.042 24.736L344.826 24.1154L342.787 21.5383L343.045 24.8147L344.042 24.736ZM344.222 27.436L343.224 27.49L343.224 27.4915L344.222 27.436ZM344.294 58V59H345.294V58H344.294ZM333.566 58H332.566V59H333.566V58ZM333.566 5.548V4.548H332.566V5.548H333.566ZM339.974 6.548C340.476 6.548 340.872 6.57104 341.174 6.61123L341.438 4.62877C341.02 4.57296 340.528 4.548 339.974 4.548V6.548ZM341.174 6.61123C341.438 6.64645 341.654 6.71378 341.831 6.80242L342.725 5.01357C342.327 4.81421 341.894 4.68954 341.438 4.62877L341.174 6.61123ZM341.893 6.83108C342.062 6.90116 342.242 7.01413 342.433 7.18794L343.779 5.70806C343.442 5.40187 343.071 5.15484 342.663 4.98492L341.893 6.83108ZM342.433 7.18794C342.649 7.38426 342.916 7.66894 343.234 8.05571L344.778 6.78429C344.425 6.35505 344.091 5.99174 343.779 5.70806L342.433 7.18794ZM343.222 8.04031L368.134 39.5403L369.702 38.2997L344.79 6.79968L343.222 8.04031ZM369.914 38.8252C369.819 37.8306 369.748 36.8731 369.701 35.9528L367.703 36.0552C367.752 37.0069 367.825 37.9934 367.923 39.0148L369.914 38.8252ZM369.701 35.9541C369.654 35.0084 369.63 34.1252 369.63 33.304H367.63C367.63 34.1628 367.655 35.0796 367.703 36.0539L369.701 35.9541ZM369.63 33.304V5.548H367.63V33.304H369.63ZM368.63 6.548H379.358V4.548H368.63V6.548ZM378.358 5.548V58H380.358V5.548H378.358ZM379.358 57H373.022V59H379.358V57ZM373.022 57C372.183 57 371.538 56.8703 371.052 56.6542L370.24 58.4818C371.05 58.8417 371.989 59 373.022 59V57ZM371.052 56.6542C370.6 56.453 370.097 56.0531 369.562 55.3684L367.986 56.5996C368.651 57.4509 369.397 58.107 370.24 58.4818L371.052 56.6542ZM369.558 55.3634L344.826 24.1154L343.258 25.3566L367.99 56.6046L369.558 55.3634ZM343.045 24.8147C343.117 25.7187 343.176 26.6105 343.224 27.49L345.221 27.382C345.172 26.4855 345.112 25.5773 345.039 24.6573L343.045 24.8147ZM343.224 27.4915C343.271 28.3393 343.294 29.1366 343.294 29.884H345.294C345.294 29.0954 345.269 28.2607 345.221 27.3805L343.224 27.4915ZM343.294 29.884V58H345.294V29.884H343.294ZM344.294 57H333.566V59H344.294V57ZM334.566 58V5.548H332.566V58H334.566ZM333.566 6.548H339.974V4.548H333.566V6.548ZM401.308 58V59H402.308V58H401.308ZM389.068 58H388.068V59H389.068V58ZM389.068 5.548V4.548H388.068V5.548H389.068ZM401.308 5.548H402.308V4.548H401.308V5.548ZM401.308 57H389.068V59H401.308V57ZM390.068 58V5.548H388.068V58H390.068ZM389.068 6.548H401.308V4.548H389.068V6.548ZM400.308 5.548V58H402.308V5.548H400.308ZM447.158 44.608L446.774 45.5311L446.808 45.5451L446.842 45.5567L447.158 44.608ZM447.986 45.148L448.711 44.4591L448.703 44.4499L448.694 44.4409L447.986 45.148ZM452.81 50.224L453.605 50.8317L454.123 50.1538L453.535 49.5351L452.81 50.224ZM444.854 56.488L445.257 57.4035L445.26 57.4021L444.854 56.488ZM422.858 56.56L422.459 57.477L422.468 57.4806L422.858 56.56ZM414.83 50.944L414.091 51.6171L414.098 51.6247L414.83 50.944ZM409.79 42.448L408.849 42.7848L408.85 42.787L409.79 42.448ZM410.042 20.992L410.967 21.3728L410.968 21.3704L410.042 20.992ZM415.658 12.496L414.958 11.7818L414.955 11.7853L415.658 12.496ZM424.334 6.952L423.969 6.02125L424.334 6.952ZM441.002 5.512L440.799 6.49098L440.806 6.4926L440.814 6.4941L441.002 5.512ZM445.898 6.952L445.517 7.87646L445.53 7.88149L445.898 6.952ZM450.074 9.148L449.513 9.97528L449.523 9.98246L450.074 9.148ZM453.458 11.956L454.26 12.5535L454.765 11.8767L454.182 11.2659L453.458 11.956ZM449.354 17.464L450.141 18.0818L450.149 18.0717L450.156 18.0615L449.354 17.464ZM448.418 18.4L449.01 19.2064L449.027 19.194L449.043 19.1809L448.418 18.4ZM445.682 18.508L445.235 19.4024V19.4024L445.682 18.508ZM444.458 17.824L443.904 18.656L443.92 18.667L443.937 18.6773L444.458 17.824ZM443.018 16.924L442.464 17.756L442.486 17.7711L442.51 17.7849L443.018 16.924ZM441.182 16.024L440.8 16.948L440.819 16.9558L440.838 16.9629L441.182 16.024ZM438.698 15.304L438.498 16.2836L438.502 16.2846L438.698 15.304ZM429.338 16.204L429.727 17.1257L429.737 17.1213L429.338 16.204ZM424.622 19.552L423.88 18.8824L423.879 18.883L424.622 19.552ZM421.562 24.808L420.622 24.4689L420.618 24.4786L421.562 24.808ZM421.562 38.92L420.617 39.246L420.62 39.2556L421.562 38.92ZM424.55 44.212L423.795 44.8669L423.801 44.8736L423.807 44.8803L424.55 44.212ZM437.402 48.424L437.507 49.4185L437.52 49.4171L437.533 49.4155L437.402 48.424ZM439.922 47.848L439.606 46.8993L439.597 46.9023L439.922 47.848ZM442.154 46.84L442.66 47.7027L442.669 47.6975L442.154 46.84ZM444.314 45.256L443.674 44.4878L443.667 44.494L443.66 44.5003L444.314 45.256ZM445.25 44.68L445.644 45.5991L445.671 45.5876L445.698 45.5744L445.25 44.68ZM446.294 45.428C446.44 45.428 446.597 45.4576 446.774 45.5311L447.543 43.6849C447.143 43.5184 446.725 43.428 446.294 43.428V45.428ZM446.842 45.5567C446.953 45.5936 447.1 45.6761 447.279 45.8551L448.694 44.4409C448.345 44.0919 447.94 43.8144 447.475 43.6593L446.842 45.5567ZM447.262 45.8369L452.086 50.9129L453.535 49.5351L448.711 44.4591L447.262 45.8369ZM452.016 49.6163C450.007 52.2425 447.489 54.2255 444.449 55.5739L445.26 57.4021C448.604 55.9185 451.39 53.7255 453.605 50.8317L452.016 49.6163ZM444.452 55.5725C441.439 56.8965 437.826 57.576 433.586 57.576V59.576C438.035 59.576 441.934 58.8635 445.257 57.4035L444.452 55.5725ZM433.586 57.576C429.716 57.576 426.276 56.9234 423.249 55.6394L422.468 57.4806C425.777 58.8846 429.489 59.576 433.586 59.576V57.576ZM423.257 55.643C420.232 54.3268 417.672 52.5327 415.563 50.2633L414.098 51.6247C416.405 54.1073 419.197 56.0572 422.459 57.477L423.257 55.643ZM415.57 50.271C413.48 47.9746 411.866 45.2582 410.731 42.109L408.85 42.787C410.067 46.1658 411.813 49.1134 414.091 51.617L415.57 50.271ZM410.732 42.1112C409.598 38.9415 409.026 35.4926 409.026 31.756H407.026C407.026 35.6994 407.631 39.3785 408.849 42.7848L410.732 42.1112ZM409.026 31.756C409.026 27.9605 409.678 24.5035 410.967 21.3727L409.118 20.6112C407.719 24.0085 407.026 27.7275 407.026 31.756H409.026ZM410.968 21.3704C412.264 18.2004 414.063 15.4831 416.362 13.2066L414.955 11.7853C412.454 14.2609 410.509 17.2076 409.117 20.6136L410.968 21.3704ZM416.358 13.2101C418.681 10.9339 421.457 9.15686 424.7 7.88275L423.969 6.02125C420.492 7.38713 417.484 9.30609 414.958 11.7819L416.358 13.2101ZM424.7 7.88275C427.93 6.61382 431.512 5.972 435.458 5.972V3.972C431.293 3.972 427.459 4.65018 423.969 6.02125L424.7 7.88275ZM435.458 5.972C437.366 5.972 439.145 6.14644 440.799 6.49098L441.206 4.53302C439.404 4.15755 437.487 3.972 435.458 3.972V5.972ZM440.814 6.4941C442.506 6.81854 444.073 7.28026 445.517 7.87637L446.28 6.02762C444.7 5.37573 443.003 4.87745 441.191 4.52989L440.814 6.4941ZM445.53 7.88149C446.978 8.4561 448.304 9.15455 449.513 9.97521L450.636 8.32078C449.301 7.41345 447.843 6.6479 446.267 6.02251L445.53 7.88149ZM449.523 9.98246C450.737 10.7838 451.806 11.6722 452.735 12.6461L454.182 11.2659C453.143 10.1758 451.956 9.19217 450.626 8.31353L449.523 9.98246ZM452.657 11.3585L448.553 16.8665L450.156 18.0615L454.26 12.5535L452.657 11.3585ZM448.568 16.8462C448.355 17.1173 448.099 17.3753 447.794 17.6191L449.043 19.1809C449.458 18.8486 449.826 18.4827 450.141 18.0818L448.568 16.8462ZM447.827 17.5936C447.7 17.6865 447.434 17.796 446.906 17.796V19.796C447.675 19.796 448.416 19.6415 449.01 19.2064L447.827 17.5936ZM446.906 17.796C446.629 17.796 446.374 17.7357 446.13 17.6136L445.235 19.4024C445.759 19.6643 446.32 19.796 446.906 19.796V17.796ZM446.13 17.6136C445.775 17.4362 445.392 17.2225 444.98 16.9707L443.937 18.6773C444.389 18.9535 444.822 19.1958 445.235 19.4024L446.13 17.6136ZM445.013 16.9919C444.564 16.6923 444.068 16.3827 443.527 16.0631L442.51 17.7849C443.025 18.0893 443.489 18.3797 443.904 18.656L445.013 16.9919ZM443.573 16.0919C442.989 15.7024 442.302 15.3695 441.527 15.0851L440.838 16.9629C441.503 17.2065 442.04 17.4736 442.464 17.756L443.573 16.0919ZM441.565 15.1C440.794 14.781 439.901 14.5246 438.895 14.3234L438.502 16.2846C439.416 16.4674 440.179 16.691 440.8 16.948L441.565 15.1ZM438.899 14.3244C437.88 14.1152 436.705 14.016 435.386 14.016V16.016C436.612 16.016 437.645 16.1088 438.498 16.2836L438.899 14.3244ZM435.386 14.016C433.057 14.016 430.903 14.4344 428.94 15.2867L429.737 17.1213C431.422 16.3896 433.3 16.016 435.386 16.016V14.016ZM428.95 15.2824C426.992 16.1071 425.298 17.3089 423.88 18.8824L425.365 20.2216C426.586 18.8671 428.037 17.8369 429.727 17.1256L428.95 15.2824ZM423.879 18.883C422.486 20.4311 421.404 22.2992 420.622 24.4689L422.503 25.1471C423.209 23.1888 424.167 21.5529 425.366 20.221L423.879 18.883ZM420.618 24.4786C419.855 26.6652 419.482 29.095 419.482 31.756H421.482C421.482 29.281 421.829 27.0788 422.507 25.1374L420.618 24.4786ZM419.482 31.756C419.482 34.5317 419.854 37.0332 420.617 39.246L422.508 38.594C421.831 36.6308 421.482 34.3563 421.482 31.756H419.482ZM420.62 39.2556C421.4 41.4419 422.453 43.319 423.795 44.8669L425.306 43.5571C424.152 42.225 423.213 40.5741 422.504 38.5843L420.62 39.2556ZM423.807 44.8803C425.169 46.3974 426.76 47.5631 428.574 48.3663L429.383 46.5377C427.837 45.8529 426.476 44.8586 425.294 43.5437L423.807 44.8803ZM428.574 48.3663C430.387 49.1694 432.325 49.568 434.378 49.568V47.568C432.592 47.568 430.93 47.2226 429.383 46.5377L428.574 48.3663ZM434.378 49.568C435.511 49.568 436.554 49.5188 437.507 49.4185L437.298 47.4295C436.427 47.5212 435.454 47.568 434.378 47.568V49.568ZM437.533 49.4155C438.503 49.2879 439.409 49.082 440.248 48.7937L439.597 46.9023C438.9 47.142 438.126 47.3201 437.272 47.4325L437.533 49.4155ZM440.239 48.7967C441.094 48.5115 441.902 48.1471 442.66 47.7027L441.649 45.9773C441.015 46.3489 440.335 46.6565 439.606 46.8993L440.239 48.7967ZM442.669 47.6975C443.445 47.232 444.211 46.6687 444.969 46.0117L443.66 44.5003C442.978 45.0913 442.304 45.584 441.64 45.9825L442.669 47.6975ZM444.955 46.0242C445.17 45.8446 445.4 45.704 445.644 45.5991L444.857 43.7609C444.429 43.944 444.035 44.1874 443.674 44.4878L444.955 46.0242ZM445.698 45.5744C445.901 45.4727 446.097 45.428 446.294 45.428V43.428C445.772 43.428 445.272 43.5513 444.803 43.7856L445.698 45.5744ZM472.915 5.548H473.915V4.548H472.915V5.548ZM472.519 32.728L473.511 32.8493L473.512 32.848L472.519 32.728ZM471.475 39.352V40.352H472.301L472.457 39.5401L471.475 39.352ZM463.915 39.352L462.933 39.5401L463.088 40.352H463.915V39.352ZM462.871 32.728L461.878 32.848L461.878 32.8493L462.871 32.728ZM462.475 5.548V4.548H461.475V5.548H462.475ZM461.719 49.936L460.807 49.5244L460.802 49.5368L460.797 49.5493L461.719 49.936ZM463.051 47.992L462.359 47.27L462.351 47.2774L462.344 47.2849L463.051 47.992ZM465.067 46.696L465.443 47.6225L465.455 47.6175L465.468 47.6122L465.067 46.696ZM470.071 46.696L469.67 47.6122L469.682 47.6175L469.694 47.6225L470.071 46.696ZM472.087 47.992L472.779 47.27L472.087 47.992ZM473.419 49.936L472.497 50.3227L472.502 50.3352L472.507 50.3476L473.419 49.936ZM473.419 54.796L472.503 54.3952L472.5 54.4022L472.497 54.4093L473.419 54.796ZM472.087 56.74L472.779 57.462V57.462L472.087 56.74ZM470.071 58.036L469.694 57.1095L470.071 58.036ZM465.067 58.036L465.443 57.1095L465.067 58.036ZM463.051 56.74L462.344 57.4471L462.351 57.4546L462.359 57.462L463.051 56.74ZM461.719 54.796L460.792 55.1724L460.8 55.1901L460.807 55.2076L461.719 54.796ZM471.915 5.548V26.14H473.915V5.548H471.915ZM471.915 26.14C471.915 28.308 471.785 30.464 471.526 32.608L473.512 32.848C473.78 30.624 473.915 28.388 473.915 26.14H471.915ZM471.526 32.6067C471.265 34.7431 470.921 36.9288 470.493 39.1639L472.457 39.5401C472.893 37.2632 473.245 35.0329 473.511 32.8493L471.526 32.6067ZM471.475 38.352H463.915V40.352H471.475V38.352ZM464.897 39.1639C464.469 36.9288 464.125 34.7431 463.863 32.6067L461.878 32.8493C462.145 35.0329 462.497 37.2632 462.933 39.5401L464.897 39.1639ZM463.864 32.608C463.604 30.464 463.475 28.308 463.475 26.14H461.475C461.475 28.388 461.609 30.624 461.878 32.848L463.864 32.608ZM463.475 26.14V5.548H461.475V26.14H463.475ZM462.475 6.548H472.915V4.548H462.475V6.548ZM462.251 52.348C462.251 51.6073 462.384 50.9358 462.641 50.3227L460.797 49.5493C460.43 50.4242 460.251 51.3607 460.251 52.348H462.251ZM462.63 50.3476C462.919 49.7085 463.295 49.1619 463.758 48.6991L462.344 47.2849C461.702 47.9261 461.191 48.6755 460.807 49.5244L462.63 50.3476ZM463.743 48.714C464.224 48.2529 464.788 47.8888 465.443 47.6225L464.69 45.7695C463.81 46.1272 463.03 46.6271 462.359 47.27L463.743 48.714ZM465.468 47.6122C466.098 47.3362 466.8 47.192 467.587 47.192V45.192C466.549 45.192 465.571 45.3838 464.666 45.7798L465.468 47.6122ZM467.587 47.192C468.345 47.192 469.036 47.3347 469.67 47.6122L470.472 45.7798C469.57 45.3853 468.604 45.192 467.587 45.192V47.192ZM469.694 47.6225C470.35 47.8888 470.914 48.2529 471.395 48.714L472.779 47.27C472.108 46.6271 471.328 46.1272 470.447 45.7695L469.694 47.6225ZM471.395 48.714C471.871 49.1701 472.237 49.7036 472.497 50.3227L474.341 49.5493C473.977 48.6804 473.455 47.9179 472.779 47.27L471.395 48.714ZM472.507 50.3476C472.782 50.9548 472.923 51.6175 472.923 52.348H474.923C474.923 51.3505 474.728 50.4052 474.33 49.5244L472.507 50.3476ZM472.923 52.348C472.923 53.0784 472.782 53.7575 472.503 54.3952L474.335 55.1968C474.728 54.2985 474.923 53.3456 474.923 52.348H472.923ZM472.497 54.4093C472.237 55.0284 471.871 55.5619 471.395 56.018L472.779 57.462C473.455 56.8141 473.977 56.0516 474.341 55.1827L472.497 54.4093ZM471.395 56.018C470.914 56.4791 470.35 56.8432 469.694 57.1095L470.447 58.9625C471.328 58.6048 472.108 58.1049 472.779 57.462L471.395 56.018ZM469.694 57.1095C469.054 57.3696 468.355 57.504 467.587 57.504V59.504C468.595 59.504 469.551 59.3264 470.447 58.9625L469.694 57.1095ZM467.587 57.504C466.791 57.504 466.08 57.3683 465.443 57.1095L464.69 58.9625C465.589 59.3277 466.559 59.504 467.587 59.504V57.504ZM465.443 57.1095C464.788 56.8432 464.224 56.4791 463.743 56.018L462.359 57.462C463.03 58.1049 463.81 58.6048 464.69 58.9625L465.443 57.1095ZM463.758 56.0329C463.295 55.5701 462.919 55.0235 462.63 54.3844L460.807 55.2076C461.191 56.0565 461.702 56.8059 462.344 57.4471L463.758 56.0329ZM462.645 54.4196C462.384 53.7762 462.251 53.0885 462.251 52.348H460.251C460.251 53.3355 460.43 54.2798 460.792 55.1724L462.645 54.4196Z" fill="url(#paint0_linear)"/>
<defs>
<linearGradient id="paint0_linear" x1="-21.8851" y1="58.6363" x2="73.2836" y2="234.065" gradientUnits="userSpaceOnUse">
<stop stop-color="#6271FF"/>
<stop offset="0.976709" stop-color="#EFC0FF"/>
</linearGradient>
</defs>
</svg>
