<svg width="475" height="59" viewBox="0 0 475 59" fill="none" xmlns="http://www.w3.org/2000/svg">
<path d="M48.7909 30.756C48.7909 34.548 48.1309 38.052 46.8109 41.268C45.5149 44.46 43.6789 47.232 41.3029 49.584C38.9269 51.912 36.0589 53.736 32.6989 55.056C29.3629 56.352 25.6549 57 21.5749 57H1.19891V4.548H21.5749C25.6549 4.548 29.3629 5.208 32.6989 6.528C36.0589 7.848 38.9269 9.672 41.3029 12C43.6789 14.328 45.5149 17.1 46.8109 20.316C48.1309 23.508 48.7909 26.988 48.7909 30.756ZM36.3349 30.756C36.3349 28.164 35.9989 25.824 35.3269 23.736C34.6549 21.648 33.6829 19.884 32.4109 18.444C31.1629 16.98 29.6269 15.864 27.8029 15.096C25.9789 14.304 23.9029 13.908 21.5749 13.908H13.4389V47.64H21.5749C23.9029 47.64 25.9789 47.256 27.8029 46.488C29.6269 45.696 31.1629 44.58 32.4109 43.14C33.6829 41.676 34.6549 39.9 35.3269 37.812C35.9989 35.724 36.3349 33.372 36.3349 30.756ZM106.404 30.756C106.404 34.548 105.744 38.076 104.424 41.34C103.128 44.604 101.292 47.448 98.9164 49.872C96.5404 52.272 93.6724 54.156 90.3124 55.524C86.9764 56.892 83.2684 57.576 79.1884 57.576C75.1084 57.576 71.3884 56.892 68.0284 55.524C64.6684 54.156 61.7884 52.272 59.3884 49.872C57.0124 47.448 55.1644 44.604 53.8444 41.34C52.5484 38.076 51.9004 34.548 51.9004 30.756C51.9004 26.964 52.5484 23.436 53.8444 20.172C55.1644 16.908 57.0124 14.076 59.3884 11.676C61.7884 9.276 64.6684 7.392 68.0284 6.024C71.3884 4.656 75.1084 3.972 79.1884 3.972C83.2684 3.972 86.9764 4.668 90.3124 6.06C93.6724 7.428 96.5404 9.312 98.9164 11.712C101.292 14.112 103.128 16.944 104.424 20.208C105.744 23.472 106.404 26.988 106.404 30.756ZM93.9484 30.756C93.9484 28.164 93.6124 25.836 92.9404 23.772C92.2684 21.684 91.2964 19.92 90.0244 18.48C88.7764 17.04 87.2404 15.936 85.4164 15.168C83.5924 14.4 81.5164 14.016 79.1884 14.016C76.8364 14.016 74.7364 14.4 72.8884 15.168C71.0644 15.936 69.5164 17.04 68.2444 18.48C66.9964 19.92 66.0364 21.684 65.3644 23.772C64.6924 25.836 64.3564 28.164 64.3564 30.756C64.3564 33.372 64.6924 35.724 65.3644 37.812C66.0364 39.876 66.9964 41.628 68.2444 43.068C69.5164 44.508 71.0644 45.612 72.8884 46.38C74.7364 47.124 76.8364 47.496 79.1884 47.496C81.5164 47.496 83.5924 47.124 85.4164 46.38C87.2404 45.612 88.7764 44.508 90.0244 43.068C91.2964 41.628 92.2684 39.876 92.9404 37.812C93.6124 35.724 93.9484 33.372 93.9484 30.756ZM118.63 4.548C119.158 4.548 119.602 4.572 119.962 4.62C120.322 4.668 120.646 4.764 120.934 4.908C121.222 5.028 121.498 5.208 121.762 5.448C122.026 5.688 122.326 6.012 122.662 6.42L147.574 37.92C147.478 36.912 147.406 35.94 147.358 35.004C147.31 34.044 147.286 33.144 147.286 32.304V4.548H158.014V57H151.678C150.742 57 149.95 56.856 149.302 56.568C148.654 56.28 148.03 55.752 147.43 54.984L122.698 23.736C122.77 24.648 122.83 25.548 122.878 26.436C122.926 27.3 122.95 28.116 122.95 28.884V57H112.222V4.548H118.63ZM174.492 1.164C175.452 2.676 176.16 4.188 176.616 5.7C177.096 7.212 177.336 8.712 177.336 10.2C177.336 12.768 176.664 15.228 175.32 17.58C173.976 19.932 171.996 22.104 169.38 24.096L165.852 22.008C165.564 21.816 165.348 21.612 165.204 21.396C165.084 21.156 165.024 20.916 165.024 20.676C165.024 20.412 165.084 20.16 165.204 19.92C165.324 19.68 165.468 19.476 165.636 19.308C165.9 19.02 166.188 18.672 166.5 18.264C166.836 17.832 167.148 17.34 167.436 16.788C167.724 16.236 167.964 15.612 168.156 14.916C168.372 14.22 168.48 13.476 168.48 12.684C168.48 11.82 168.324 10.896 168.012 9.912C167.724 8.928 167.232 7.872 166.536 6.744C166.296 6.36 166.176 5.976 166.176 5.592C166.176 5.16 166.32 4.776 166.608 4.44C166.896 4.104 167.292 3.84 167.796 3.648L174.492 1.164ZM221.748 4.548V14.196H206.988V57H194.82V14.196H180.06V4.548H221.748ZM252.851 39.468V57H240.683V4.548H259.187C262.883 4.548 266.051 4.992 268.691 5.88C271.355 6.744 273.539 7.944 275.243 9.48C276.971 11.016 278.243 12.828 279.059 14.916C279.875 17.004 280.283 19.26 280.283 21.684C280.283 24.3 279.863 26.7 279.023 28.884C278.183 31.068 276.899 32.94 275.171 34.5C273.443 36.06 271.247 37.284 268.583 38.172C265.943 39.036 262.811 39.468 259.187 39.468H252.851ZM252.851 30.288H259.187C262.355 30.288 264.635 29.532 266.027 28.02C267.419 26.508 268.115 24.396 268.115 21.684C268.115 20.484 267.935 19.392 267.575 18.408C267.215 17.424 266.663 16.584 265.919 15.888C265.199 15.168 264.275 14.616 263.147 14.232C262.043 13.848 260.723 13.656 259.187 13.656H252.851V30.288ZM329.296 57H319.864C318.808 57 317.932 56.76 317.236 56.28C316.564 55.776 316.096 55.14 315.832 54.372L312.736 45.228H292.792L289.696 54.372C289.456 55.044 288.988 55.656 288.292 56.208C287.596 56.736 286.744 57 285.736 57H276.232L296.536 4.548H308.992L329.296 57ZM295.6 36.948H309.928L305.104 22.584C304.792 21.672 304.42 20.604 303.988 19.38C303.58 18.132 303.172 16.788 302.764 15.348C302.38 16.812 301.984 18.168 301.576 19.416C301.168 20.664 300.784 21.744 300.424 22.656L295.6 36.948ZM339.974 4.548C340.502 4.548 340.946 4.572 341.306 4.62C341.666 4.668 341.99 4.764 342.278 4.908C342.566 5.028 342.842 5.208 343.106 5.448C343.37 5.688 343.67 6.012 344.006 6.42L368.918 37.92C368.822 36.912 368.75 35.94 368.702 35.004C368.654 34.044 368.63 33.144 368.63 32.304V4.548H379.358V57H373.022C372.086 57 371.294 56.856 370.646 56.568C369.998 56.28 369.374 55.752 368.774 54.984L344.042 23.736C344.114 24.648 344.174 25.548 344.222 26.436C344.27 27.3 344.294 28.116 344.294 28.884V57H333.566V4.548H339.974ZM401.308 57H389.068V4.548H401.308V57ZM446.294 43.428C446.582 43.428 446.87 43.488 447.158 43.608C447.446 43.704 447.722 43.884 447.986 44.148L452.81 49.224C450.698 51.984 448.046 54.072 444.854 55.488C441.686 56.88 437.93 57.576 433.586 57.576C429.602 57.576 426.026 56.904 422.858 55.56C419.714 54.192 417.038 52.32 414.83 49.944C412.646 47.544 410.966 44.712 409.79 41.448C408.614 38.16 408.026 34.596 408.026 30.756C408.026 26.844 408.698 23.256 410.042 19.992C411.386 16.704 413.258 13.872 415.658 11.496C418.082 9.12 420.974 7.272 424.334 5.952C427.694 4.632 431.402 3.972 435.458 3.972C437.426 3.972 439.274 4.152 441.002 4.512C442.754 4.848 444.386 5.328 445.898 5.952C447.41 6.552 448.802 7.284 450.074 8.148C451.346 8.988 452.474 9.924 453.458 10.956L449.354 16.464C449.09 16.8 448.778 17.112 448.418 17.4C448.058 17.664 447.554 17.796 446.906 17.796C446.474 17.796 446.066 17.7 445.682 17.508C445.298 17.316 444.89 17.088 444.458 16.824C444.026 16.536 443.546 16.236 443.018 15.924C442.514 15.588 441.902 15.288 441.182 15.024C440.486 14.736 439.658 14.496 438.698 14.304C437.762 14.112 436.658 14.016 435.386 14.016C433.178 14.016 431.162 14.412 429.338 15.204C427.514 15.972 425.942 17.088 424.622 18.552C423.326 19.992 422.306 21.744 421.562 23.808C420.842 25.872 420.482 28.188 420.482 30.756C420.482 33.444 420.842 35.832 421.562 37.92C422.306 40.008 423.302 41.772 424.55 43.212C425.822 44.628 427.298 45.708 428.978 46.452C430.658 47.196 432.458 47.568 434.378 47.568C435.482 47.568 436.49 47.52 437.402 47.424C438.314 47.304 439.154 47.112 439.922 46.848C440.714 46.584 441.458 46.248 442.154 45.84C442.874 45.408 443.594 44.88 444.314 44.256C444.602 44.016 444.914 43.824 445.25 43.68C445.586 43.512 445.934 43.428 446.294 43.428ZM472.915 4.548V25.14C472.915 27.348 472.783 29.544 472.519 31.728C472.255 33.888 471.907 36.096 471.475 38.352H463.915C463.483 36.096 463.135 33.888 462.871 31.728C462.607 29.544 462.475 27.348 462.475 25.14V4.548H472.915ZM461.251 51.348C461.251 50.484 461.407 49.68 461.719 48.936C462.055 48.192 462.499 47.544 463.051 46.992C463.627 46.44 464.299 46.008 465.067 45.696C465.835 45.36 466.675 45.192 467.587 45.192C468.475 45.192 469.303 45.36 470.071 45.696C470.839 46.008 471.511 46.44 472.087 46.992C472.663 47.544 473.107 48.192 473.419 48.936C473.755 49.68 473.923 50.484 473.923 51.348C473.923 52.212 473.755 53.028 473.419 53.796C473.107 54.54 472.663 55.188 472.087 55.74C471.511 56.292 470.839 56.724 470.071 57.036C469.303 57.348 468.475 57.504 467.587 57.504C466.675 57.504 465.835 57.348 465.067 57.036C464.299 56.724 463.627 56.292 463.051 55.74C462.499 55.188 462.055 54.54 461.719 53.796C461.407 53.028 461.251 52.212 461.251 51.348Z" fill="#151531"/>
<path d="M46.8109 41.268L46.185 41.0111L46.184 41.0135L46.8109 41.268ZM41.3029 49.584L41.7764 50.0673L41.7789 50.0648L41.3029 49.584ZM32.6989 55.056L32.9439 55.6867L32.9463 55.6857L32.6989 55.056ZM1.19891 57H0.522331V57.6766H1.19891V57ZM1.19891 4.548V3.87142H0.522331V4.548H1.19891ZM32.6989 6.528L32.45 7.15711L32.4515 7.15772L32.6989 6.528ZM41.3029 12L40.8294 12.4833L41.3029 12ZM46.8109 20.316L46.1833 20.5689L46.1857 20.5745L46.8109 20.316ZM32.4109 18.444L31.8959 18.883L31.9038 18.8919L32.4109 18.444ZM27.8029 15.096L27.5334 15.7166L27.5404 15.7196L27.8029 15.096ZM13.4389 13.908V13.2314H12.7623V13.908H13.4389ZM13.4389 47.64H12.7623V48.3166H13.4389V47.64ZM27.8029 46.488L28.0655 47.1116L28.0724 47.1086L27.8029 46.488ZM32.4109 43.14L31.9002 42.6963L31.8996 42.6969L32.4109 43.14ZM35.3269 37.812L34.6829 37.6047L35.3269 37.812ZM48.1143 30.756C48.1143 34.4679 47.4686 37.8837 46.185 41.0111L47.4368 41.5249C48.7932 38.2203 49.4675 34.6281 49.4675 30.756H48.1143ZM46.184 41.0135C44.9214 44.1232 43.1358 46.8176 40.8269 49.1032L41.7789 50.0648C44.222 47.6464 46.1084 44.7967 47.4378 41.5225L46.184 41.0135ZM40.8294 49.1007C38.5235 51.36 35.7344 53.1366 32.4515 54.4263L32.9463 55.6857C36.3835 54.3354 39.3303 52.464 41.7764 50.0673L40.8294 49.1007ZM32.4539 54.4253C29.2062 55.6871 25.5827 56.3234 21.5749 56.3234V57.6766C25.7271 57.6766 29.5196 57.0169 32.9439 55.6867L32.4539 54.4253ZM21.5749 56.3234H1.19891V57.6766H21.5749V56.3234ZM1.87548 57V4.548H0.522331V57H1.87548ZM1.19891 5.22457H21.5749V3.87142H1.19891V5.22457ZM21.5749 5.22457C25.5813 5.22457 29.2033 5.87247 32.45 7.15711L32.9478 5.89888C29.5225 4.54352 25.7285 3.87142 21.5749 3.87142V5.22457ZM32.4515 7.15772C35.7344 8.4474 38.5235 10.224 40.8294 12.4833L41.7764 11.5167C39.3303 9.12001 36.3835 7.24859 32.9463 5.89827L32.4515 7.15772ZM40.8294 12.4833C43.1359 14.7432 44.9208 17.4357 46.1834 20.5689L47.4384 20.0631C46.1091 16.7643 44.2219 13.9128 41.7764 11.5167L40.8294 12.4833ZM46.1857 20.5745C47.4688 23.6774 48.1143 27.0686 48.1143 30.756H49.4675C49.4675 26.9074 48.793 23.3386 47.4361 20.0574L46.1857 20.5745ZM37.0115 30.756C37.0115 28.1061 36.668 25.6946 35.9709 23.5287L34.6829 23.9433C35.3298 25.9534 35.6583 28.2219 35.6583 30.756H37.0115ZM35.9709 23.5287C35.2744 21.3645 34.2599 19.5152 32.918 17.9961L31.9038 18.8919C33.1059 20.2528 34.0354 21.9315 34.6829 23.9433L35.9709 23.5287ZM32.9258 18.0051C31.6072 16.4583 29.9839 15.2802 28.0655 14.4724L27.5404 15.7196C29.2699 16.4478 30.7186 17.5017 31.896 18.8829L32.9258 18.0051ZM28.0724 14.4754C26.1501 13.6407 23.98 13.2314 21.5749 13.2314V14.5846C23.8258 14.5846 25.8077 14.9673 27.5334 15.7166L28.0724 14.4754ZM21.5749 13.2314H13.4389V14.5846H21.5749V13.2314ZM12.7623 13.908V47.64H14.1155V13.908H12.7623ZM13.4389 48.3166H21.5749V46.9634H13.4389V48.3166ZM21.5749 48.3166C23.9774 48.3166 26.145 47.9202 28.0655 47.1116L27.5404 45.8644C25.8128 46.5918 23.8284 46.9634 21.5749 46.9634V48.3166ZM28.0724 47.1086C29.9851 46.2781 31.605 45.103 32.9222 43.5831L31.8996 42.6969C30.7208 44.057 29.2687 45.1139 27.5334 45.8674L28.0724 47.1086ZM32.9216 43.5837C34.261 42.0423 35.2746 40.1829 35.9709 38.0193L34.6829 37.6047C34.0352 39.6171 33.1049 41.3097 31.9002 42.6963L32.9216 43.5837ZM35.9709 38.0193C36.6682 35.8528 37.0115 33.4292 37.0115 30.756H35.6583C35.6583 33.3148 35.3296 35.5952 34.6829 37.6047L35.9709 38.0193ZM104.424 41.34L103.797 41.0863L103.796 41.0903L104.424 41.34ZM98.9164 49.872L99.3972 50.348L99.3996 50.3456L98.9164 49.872ZM90.3124 55.524L90.0573 54.8974L90.0557 54.898L90.3124 55.524ZM68.0284 55.524L67.7733 56.1506L68.0284 55.524ZM59.3884 49.872L58.9052 50.3456L58.91 50.3504L59.3884 49.872ZM53.8444 41.34L53.2156 41.5897L53.2172 41.5937L53.8444 41.34ZM53.8444 20.172L53.2172 19.9183L53.2156 19.9223L53.8444 20.172ZM59.3884 11.676L58.91 11.1976L58.9076 11.2L59.3884 11.676ZM68.0284 6.024L68.2835 6.65063L68.0284 6.024ZM90.3124 6.06L90.0519 6.68442L90.0573 6.68663L90.3124 6.06ZM98.9164 11.712L98.4356 12.188L98.9164 11.712ZM104.424 20.208L103.796 20.4577L103.797 20.4617L104.424 20.208ZM92.9404 23.772L92.2964 23.9793L92.2971 23.9815L92.9404 23.772ZM90.0244 18.48L89.5131 18.9231L89.5173 18.9279L90.0244 18.48ZM85.4164 15.168L85.679 14.5444L85.4164 15.168ZM72.8884 15.168L72.6288 14.5432L72.6259 14.5444L72.8884 15.168ZM68.2444 18.48L67.7373 18.0321L67.7331 18.0369L68.2444 18.48ZM65.3644 23.772L66.0077 23.9815L66.0084 23.9793L65.3644 23.772ZM65.3644 37.812L64.7204 38.0193L64.7211 38.0215L65.3644 37.812ZM68.2444 43.068L67.7331 43.5111L67.7373 43.5159L68.2444 43.068ZM72.8884 46.38L72.6258 47.0036L72.6357 47.0076L72.8884 46.38ZM85.4164 46.38L85.672 47.0065L85.679 47.0036L85.4164 46.38ZM90.0244 43.068L89.5173 42.6201L89.5131 42.6249L90.0244 43.068ZM92.9404 37.812L93.5837 38.0215L93.5844 38.0193L92.9404 37.812ZM105.728 30.756C105.728 34.4678 105.082 37.909 103.797 41.0863L105.052 41.5937C106.407 38.243 107.081 34.6282 107.081 30.756H105.728ZM103.796 41.0903C102.532 44.2737 100.744 47.0409 98.4332 49.3984L99.3996 50.3456C101.841 47.8551 103.725 44.9343 105.053 41.5897L103.796 41.0903ZM98.4356 49.396C96.1285 51.7264 93.339 53.5612 90.0573 54.8974L90.5675 56.1506C94.0058 54.7508 96.9523 52.8176 99.3972 50.348L98.4356 49.396ZM90.0557 54.898C86.8112 56.2285 83.1919 56.8994 79.1884 56.8994V58.2526C83.3449 58.2526 87.1416 57.5555 90.5691 56.15L90.0557 54.898ZM79.1884 56.8994C75.185 56.8994 71.553 56.2285 68.2835 54.8974L67.7733 56.1506C71.2238 57.5555 75.0318 58.2526 79.1884 58.2526V56.8994ZM68.2835 54.8974C65.0013 53.561 62.1987 51.7255 59.8668 49.3936L58.91 50.3504C61.3781 52.8185 64.3355 54.751 67.7733 56.1506L68.2835 54.8974ZM59.8716 49.3984C57.5598 47.0399 55.7597 44.2714 54.4716 41.0863L53.2172 41.5937C54.5691 44.9366 56.465 47.8561 58.9052 50.3456L59.8716 49.3984ZM54.4732 41.0903C53.2112 37.9119 52.577 34.4694 52.577 30.756H51.2238C51.2238 34.6266 51.8856 38.2401 53.2156 41.5897L54.4732 41.0903ZM52.577 30.756C52.577 27.0426 53.2112 23.6001 54.4732 20.4217L53.2156 19.9223C51.8856 23.2719 51.2238 26.8854 51.2238 30.756H52.577ZM54.4716 20.4257C55.7595 17.2411 57.5589 14.4856 59.8692 12.152L58.9076 11.2C56.4659 13.6664 54.5693 16.5749 53.2172 19.9183L54.4716 20.4257ZM59.8668 12.1544C62.1987 9.82251 65.0013 7.98698 68.2835 6.65063L67.7733 5.39737C64.3355 6.79702 61.3781 8.72948 58.91 11.1976L59.8668 12.1544ZM68.2835 6.65063C71.553 5.31948 75.185 4.64857 79.1884 4.64857V3.29542C75.0318 3.29542 71.2238 3.99252 67.7733 5.39737L68.2835 6.65063ZM79.1884 4.64857C83.1904 4.64857 86.8084 5.331 90.0519 6.68439L90.573 5.4356C87.1444 4.005 83.3464 3.29542 79.1884 3.29542V4.64857ZM90.0573 6.68663C93.339 8.02276 96.1285 9.85764 98.4356 12.188L99.3972 11.236C96.9523 8.76636 94.0058 6.83324 90.5675 5.43337L90.0573 6.68663ZM98.4356 12.188C100.745 14.5207 102.532 17.2749 103.796 20.4577L105.053 19.9583C103.725 16.6131 101.84 13.7033 99.3972 11.236L98.4356 12.188ZM103.797 20.4617C105.082 23.6395 105.728 27.0688 105.728 30.756H107.081C107.081 26.9072 106.406 23.3045 105.052 19.9543L103.797 20.4617ZM94.625 30.756C94.625 28.1063 94.2816 25.7058 93.5837 23.5625L92.2971 23.9815C92.9433 25.9662 93.2718 28.2217 93.2718 30.756H94.625ZM93.5844 23.5647C92.8879 21.4005 91.8734 19.5512 90.5315 18.0321L89.5173 18.9279C90.7194 20.2888 91.6489 21.9675 92.2964 23.9793L93.5844 23.5647ZM90.5357 18.0369C89.2171 16.5154 87.5948 15.3511 85.679 14.5444L85.1539 15.7916C86.886 16.5209 88.3358 17.5646 89.5131 18.9231L90.5357 18.0369ZM85.679 14.5444C83.7585 13.7358 81.5909 13.3394 79.1884 13.3394V14.6926C81.4419 14.6926 83.4263 15.0642 85.1539 15.7916L85.679 14.5444ZM79.1884 13.3394C76.7627 13.3394 74.5722 13.7356 72.6288 14.5432L73.148 15.7928C74.9007 15.0644 76.9101 14.6926 79.1884 14.6926V13.3394ZM72.6259 14.5444C70.7111 15.3507 69.0787 16.5136 67.7373 18.0321L68.7515 18.9279C69.9541 17.5664 71.4177 16.5213 73.151 15.7916L72.6259 14.5444ZM67.7331 18.0369C66.4171 19.5554 65.4161 21.403 64.7204 23.5647L66.0084 23.9793C66.6567 21.965 67.5757 20.2846 68.7557 18.9231L67.7331 18.0369ZM64.7211 23.5625C64.0233 25.7058 63.6798 28.1063 63.6798 30.756H65.033C65.033 28.2217 65.3616 25.9662 66.0077 23.9815L64.7211 23.5625ZM63.6798 30.756C63.6798 33.4292 64.0231 35.8528 64.7204 38.0193L66.0084 37.6047C65.3617 35.5952 65.033 33.3148 65.033 30.756H63.6798ZM64.7211 38.0215C65.4172 40.1595 66.4183 41.994 67.7331 43.5111L68.7557 42.6249C67.5745 41.262 66.6556 39.5925 66.0077 37.6025L64.7211 38.0215ZM67.7373 43.5159C69.0787 45.0344 70.7111 46.1973 72.6259 47.0036L73.151 45.7564C71.4177 45.0267 69.9541 43.9816 68.7515 42.6201L67.7373 43.5159ZM72.6357 47.0076C74.5772 47.7892 76.7652 48.1726 79.1884 48.1726V46.8194C76.9076 46.8194 74.8957 46.4588 73.1411 45.7524L72.6357 47.0076ZM79.1884 48.1726C81.5884 48.1726 83.7535 47.789 85.6719 47.0065L85.1609 45.7535C83.4313 46.459 81.4444 46.8194 79.1884 46.8194V48.1726ZM85.679 47.0036C87.5948 46.1969 89.2171 45.0326 90.5357 43.5111L89.5131 42.6249C88.3358 43.9834 86.886 45.0271 85.1539 45.7564L85.679 47.0036ZM90.5315 43.5159C91.8722 41.9981 92.8868 40.162 93.5837 38.0215L92.2971 37.6025C91.65 39.59 90.7206 41.2579 89.5173 42.6201L90.5315 43.5159ZM93.5844 38.0193C94.2817 35.8528 94.625 33.4292 94.625 30.756H93.2718C93.2718 33.3148 92.9431 35.5952 92.2964 37.6047L93.5844 38.0193ZM119.962 4.62L119.873 5.29064L119.962 4.62ZM120.934 4.908L120.632 5.51314L120.653 5.52357L120.674 5.53253L120.934 4.908ZM122.662 6.42L123.193 6.00023L123.185 5.98989L122.662 6.42ZM147.574 37.92L147.044 38.3397L148.465 40.137L148.248 37.8559L147.574 37.92ZM147.358 35.004L146.683 35.0378L146.683 35.0387L147.358 35.004ZM147.286 4.548V3.87142H146.61V4.548H147.286ZM158.014 4.548H158.691V3.87142H158.014V4.548ZM158.014 57V57.6766H158.691V57H158.014ZM149.302 56.568L149.577 55.9497L149.302 56.568ZM147.43 54.984L147.964 54.5675L147.961 54.5641L147.43 54.984ZM122.698 23.736L123.229 23.3161L121.849 21.5725L122.024 23.7892L122.698 23.736ZM122.878 26.436L122.203 26.4725L122.203 26.4735L122.878 26.436ZM122.95 57V57.6766H123.627V57H122.95ZM112.222 57H111.546V57.6766H112.222V57ZM112.222 4.548V3.87142H111.546V4.548H112.222ZM118.63 5.22457C119.141 5.22457 119.553 5.24792 119.873 5.29064L120.052 3.94936C119.652 3.89608 119.176 3.87142 118.63 3.87142V5.22457ZM119.873 5.29064C120.168 5.33 120.419 5.4066 120.632 5.51314L121.237 4.30285C120.874 4.1214 120.477 4.006 120.052 3.94936L119.873 5.29064ZM120.674 5.53253C120.881 5.61875 121.092 5.75341 121.307 5.94862L122.217 4.94737C121.904 4.66259 121.564 4.43724 121.195 4.28347L120.674 5.53253ZM121.307 5.94862C121.539 6.15907 121.816 6.45647 122.14 6.8501L123.185 5.98989C122.837 5.56752 122.514 5.21693 122.217 4.94737L121.307 5.94862ZM122.132 6.83968L147.044 38.3397L148.105 37.5003L123.193 6.00031L122.132 6.83968ZM148.248 37.8559C148.153 36.8569 148.081 35.8948 148.034 34.9693L146.683 35.0387C146.731 35.9852 146.804 36.9671 146.901 37.9841L148.248 37.8559ZM148.034 34.9702C147.987 34.0199 147.963 33.1313 147.963 32.304H146.61C146.61 33.1567 146.634 34.0681 146.683 35.0378L148.034 34.9702ZM147.963 32.304V4.548H146.61V32.304H147.963ZM147.286 5.22457H158.014V3.87142H147.286V5.22457ZM157.338 4.548V57H158.691V4.548H157.338ZM158.014 56.3234H151.678V57.6766H158.014V56.3234ZM151.678 56.3234C150.808 56.3234 150.116 56.1891 149.577 55.9497L149.028 57.1863C149.785 57.5229 150.677 57.6766 151.678 57.6766V56.3234ZM149.577 55.9497C149.061 55.7205 148.52 55.2792 147.964 54.5675L146.897 55.4005C147.541 56.2248 148.247 56.8395 149.028 57.1863L149.577 55.9497ZM147.961 54.5641L123.229 23.3161L122.168 24.1559L146.9 55.4039L147.961 54.5641ZM122.024 23.7892C122.095 24.6958 122.155 25.5903 122.203 26.4725L123.554 26.3995C123.506 25.5057 123.445 24.6002 123.373 23.6828L122.024 23.7892ZM122.203 26.4735C122.25 27.3266 122.274 28.13 122.274 28.884H123.627C123.627 28.102 123.602 27.2734 123.554 26.3985L122.203 26.4735ZM122.274 28.884V57H123.627V28.884H122.274ZM122.95 56.3234H112.222V57.6766H122.95V56.3234ZM112.899 57V4.548H111.546V57H112.899ZM112.222 5.22457H118.63V3.87142H112.222V5.22457ZM174.492 1.164L175.063 0.801347L174.77 0.339307L174.257 0.529662L174.492 1.164ZM176.616 5.7L175.968 5.89537L175.971 5.90471L176.616 5.7ZM175.32 17.58L175.908 17.9157L175.32 17.58ZM169.38 24.096L169.036 24.6782L169.428 24.9103L169.79 24.6343L169.38 24.096ZM165.852 22.008L165.477 22.5709L165.492 22.581L165.508 22.5902L165.852 22.008ZM165.204 21.396L164.599 21.6986L164.618 21.7362L164.641 21.7713L165.204 21.396ZM165.204 19.92L165.809 20.2226L165.204 19.92ZM165.636 19.308L166.115 19.7864L166.125 19.776L166.135 19.7652L165.636 19.308ZM166.5 18.264L165.966 17.8486L165.963 17.853L166.5 18.264ZM167.436 16.788L166.836 16.475L167.436 16.788ZM168.156 14.916L167.51 14.7155L167.507 14.7257L167.504 14.7361L168.156 14.916ZM168.012 9.912L167.363 10.102L167.365 10.1093L167.367 10.1165L168.012 9.912ZM166.536 6.744L167.112 6.38872L167.11 6.38542L166.536 6.744ZM166.608 4.44L167.122 4.88031V4.88031L166.608 4.44ZM167.796 3.648L167.561 3.01364L167.555 3.01575L167.796 3.648ZM173.921 1.52664C174.852 2.99347 175.532 4.44963 175.968 5.89535L177.264 5.50464C176.788 3.92637 176.052 2.35853 175.063 0.801347L173.921 1.52664ZM175.971 5.90471C176.432 7.35489 176.66 8.78591 176.66 10.2H178.013C178.013 8.63808 177.761 7.0691 177.261 5.49528L175.971 5.90471ZM176.66 10.2C176.66 12.6437 176.022 14.9887 174.733 17.2443L175.908 17.9157C177.307 15.4673 178.013 12.8923 178.013 10.2H176.66ZM174.733 17.2443C173.442 19.5026 171.529 21.6092 168.97 23.5577L169.79 24.6343C172.463 22.5988 174.51 20.3613 175.908 17.9157L174.733 17.2443ZM169.725 23.5138L166.197 21.4258L165.508 22.5902L169.036 24.6782L169.725 23.5138ZM166.228 21.4451C165.99 21.287 165.848 21.1421 165.767 21.0207L164.641 21.7713C164.848 22.0819 165.138 22.345 165.477 22.5709L166.228 21.4451ZM165.809 21.0934C165.731 20.9362 165.701 20.7991 165.701 20.676H164.348C164.348 21.0329 164.438 21.3758 164.599 21.6986L165.809 21.0934ZM165.701 20.676C165.701 20.5188 165.736 20.3702 165.809 20.2226L164.599 19.6174C164.433 19.9498 164.348 20.3052 164.348 20.676H165.701ZM165.809 20.2226C165.901 20.0393 166.004 19.8968 166.115 19.7864L165.158 18.8296C164.932 19.0552 164.747 19.3207 164.599 19.6174L165.809 20.2226ZM166.135 19.7652C166.416 19.4586 166.717 19.0943 167.038 18.675L165.963 17.853C165.659 18.2497 165.384 18.5814 165.137 18.8508L166.135 19.7652ZM167.034 18.6794C167.398 18.2113 167.732 17.6842 168.036 17.101L166.836 16.475C166.565 16.9958 166.274 17.4527 165.966 17.8486L167.034 18.6794ZM168.036 17.101C168.349 16.5005 168.606 15.8309 168.808 15.0959L167.504 14.7361C167.323 15.3931 167.099 15.9715 166.836 16.475L168.036 17.101ZM168.802 15.1165C169.04 14.3502 169.157 13.5381 169.157 12.684H167.804C167.804 13.4139 167.704 14.0898 167.51 14.7155L168.802 15.1165ZM169.157 12.684C169.157 11.7386 168.986 10.7452 168.657 9.70751L167.367 10.1165C167.662 11.0468 167.804 11.9014 167.804 12.684H169.157ZM168.662 9.72195C168.352 8.66575 167.831 7.55407 167.112 6.38872L165.96 7.09927C166.633 8.18993 167.096 9.19025 167.363 10.102L168.662 9.72195ZM167.11 6.38542C166.925 6.0894 166.853 5.82797 166.853 5.592H165.5C165.5 6.12402 165.667 6.63059 165.962 7.10258L167.11 6.38542ZM166.853 5.592C166.853 5.32576 166.936 5.09696 167.122 4.88031L166.095 3.99969C165.704 4.45504 165.5 4.99423 165.5 5.592H166.853ZM167.122 4.88031C167.322 4.6469 167.616 4.44076 168.037 4.28025L167.555 3.01575C166.969 3.23923 166.47 3.5611 166.095 3.99969L167.122 4.88031ZM168.032 4.28233L174.728 1.79833L174.257 0.529662L167.561 3.01366L168.032 4.28233ZM221.748 4.548H222.424V3.87142H221.748V4.548ZM221.748 14.196V14.8726H222.424V14.196H221.748ZM206.988 14.196V13.5194H206.311V14.196H206.988ZM206.988 57V57.6766H207.664V57H206.988ZM194.82 57H194.143V57.6766H194.82V57ZM194.82 14.196H195.496V13.5194H194.82V14.196ZM180.06 14.196H179.383V14.8726H180.06V14.196ZM180.06 4.548V3.87142H179.383V4.548H180.06ZM221.071 4.548V14.196H222.424V4.548H221.071ZM221.748 13.5194H206.988V14.8726H221.748V13.5194ZM206.311 14.196V57H207.664V14.196H206.311ZM206.988 56.3234H194.82V57.6766H206.988V56.3234ZM195.496 57V14.196H194.143V57H195.496ZM194.82 13.5194H180.06V14.8726H194.82V13.5194ZM180.736 14.196V4.548H179.383V14.196H180.736ZM180.06 5.22457H221.748V3.87142H180.06V5.22457ZM252.851 39.468V38.7914H252.175V39.468H252.851ZM252.851 57V57.6766H253.528V57H252.851ZM240.683 57H240.007V57.6766H240.683V57ZM240.683 4.548V3.87142H240.007V4.548H240.683ZM268.691 5.88L268.476 6.52131L268.483 6.52357L268.691 5.88ZM275.243 9.48L274.79 9.98255L274.794 9.98568L275.243 9.48ZM279.059 14.916L279.689 14.6697L279.059 14.916ZM279.023 28.884L279.655 29.1269L279.023 28.884ZM275.171 34.5L275.625 35.0022L275.171 34.5ZM268.583 38.172L268.794 38.815L268.797 38.8139L268.583 38.172ZM252.851 30.288H252.175V30.9646H252.851V30.288ZM266.027 28.02L266.525 28.4782L266.027 28.02ZM265.919 15.888L265.441 16.3664L265.449 16.3744L265.457 16.3821L265.919 15.888ZM263.147 14.232L262.925 14.871L262.929 14.8725L263.147 14.232ZM252.851 13.656V12.9794H252.175V13.656H252.851ZM252.175 39.468V57H253.528V39.468H252.175ZM252.851 56.3234H240.683V57.6766H252.851V56.3234ZM241.36 57V4.548H240.007V57H241.36ZM240.683 5.22457H259.187V3.87142H240.683V5.22457ZM259.187 5.22457C262.832 5.22457 265.924 5.66288 268.476 6.52127L268.907 5.23873C266.179 4.32112 262.934 3.87142 259.187 3.87142V5.22457ZM268.483 6.52357C271.076 7.36457 273.171 8.52262 274.79 9.98254L275.696 8.97746C273.908 7.36537 271.635 6.12342 268.9 5.23642L268.483 6.52357ZM274.794 9.98568C276.445 11.453 277.653 13.177 278.429 15.1623L279.689 14.6697C278.833 12.479 277.498 10.579 275.693 8.97432L274.794 9.98568ZM278.429 15.1623C279.212 17.1656 279.607 19.3374 279.607 21.684H280.96C280.96 19.1826 280.539 16.8424 279.689 14.6697L278.429 15.1623ZM279.607 21.684C279.607 24.2267 279.199 26.5432 278.392 28.6411L279.655 29.1269C280.528 26.8568 280.96 24.3733 280.96 21.684H279.607ZM278.392 28.6411C277.59 30.7264 276.367 32.5094 274.718 33.9978L275.625 35.0022C277.432 33.3706 278.777 31.4096 279.655 29.1269L278.392 28.6411ZM274.718 33.9978C273.072 35.4837 270.963 36.6657 268.369 37.5301L268.797 38.8139C271.532 37.9023 273.815 36.6363 275.625 35.0022L274.718 33.9978ZM268.373 37.529C265.818 38.3652 262.76 38.7914 259.187 38.7914V40.1446C262.862 40.1446 266.069 39.7068 268.794 38.815L268.373 37.529ZM259.187 38.7914H252.851V40.1446H259.187V38.7914ZM252.851 30.9646H259.187V29.6114H252.851V30.9646ZM259.187 30.9646C262.443 30.9646 264.949 30.1897 266.525 28.4782L265.53 27.5617C264.321 28.8743 262.268 29.6114 259.187 29.6114V30.9646ZM266.525 28.4782C268.065 26.8057 268.792 24.5102 268.792 21.684H267.439C267.439 24.2818 266.774 26.2103 265.53 27.5617L266.525 28.4782ZM268.792 21.684C268.792 20.4161 268.602 19.244 268.211 18.1755L266.94 18.6405C267.269 19.54 267.439 20.5519 267.439 21.684H268.792ZM268.211 18.1755C267.815 17.0949 267.205 16.1645 266.382 15.3939L265.457 16.3821C266.121 17.0035 266.615 17.7531 266.94 18.6405L268.211 18.1755ZM266.398 15.4096C265.593 14.6049 264.575 14.0032 263.365 13.5915L262.929 14.8725C263.976 15.2288 264.806 15.7311 265.441 16.3664L266.398 15.4096ZM263.37 13.593C262.176 13.1777 260.777 12.9794 259.187 12.9794V14.3326C260.67 14.3326 261.911 14.5183 262.925 14.871L263.37 13.593ZM259.187 12.9794H252.851V14.3326H259.187V12.9794ZM252.175 13.656V30.288H253.528V13.656H252.175ZM329.296 57V57.6766H330.284L329.927 56.7558L329.296 57ZM317.236 56.28L316.83 56.8213L316.841 56.8293L316.852 56.837L317.236 56.28ZM315.832 54.372L315.191 54.589L315.192 54.5919L315.832 54.372ZM312.736 45.228L313.377 45.011L313.221 44.5514H312.736V45.228ZM292.792 45.228V44.5514H292.307L292.151 45.011L292.792 45.228ZM289.696 54.372L290.333 54.5996L290.337 54.589L289.696 54.372ZM288.292 56.208L288.701 56.747L288.707 56.7426L288.713 56.7381L288.292 56.208ZM276.232 57L275.601 56.7558L275.245 57.6766H276.232V57ZM296.536 4.548V3.87142H296.073L295.905 4.30376L296.536 4.548ZM308.992 4.548L309.623 4.30376L309.456 3.87142H308.992V4.548ZM295.6 36.948L294.959 36.7316L294.658 37.6246H295.6V36.948ZM309.928 36.948V37.6246H310.869L310.57 36.7326L309.928 36.948ZM305.104 22.584L305.746 22.3686L305.744 22.365L305.104 22.584ZM303.988 19.38L303.345 19.5902L303.348 19.5977L303.35 19.6052L303.988 19.38ZM302.764 15.348L303.415 15.1636L302.739 12.7773L302.11 15.1763L302.764 15.348ZM301.576 19.416L302.219 19.6262L301.576 19.416ZM300.424 22.656L299.795 22.4076L299.789 22.4235L299.783 22.4396L300.424 22.656ZM329.296 56.3234H319.864V57.6766H329.296V56.3234ZM319.864 56.3234C318.911 56.3234 318.178 56.1077 317.62 55.723L316.852 56.837C317.686 57.4123 318.705 57.6766 319.864 57.6766V56.3234ZM317.642 55.7387C317.075 55.3131 316.69 54.7874 316.472 54.1521L315.192 54.5919C315.502 55.4926 316.054 56.2389 316.83 56.8213L317.642 55.7387ZM316.473 54.155L313.377 45.011L312.095 45.445L315.191 54.589L316.473 54.155ZM312.736 44.5514H292.792V45.9046H312.736V44.5514ZM292.151 45.011L289.055 54.155L290.337 54.589L293.433 45.445L292.151 45.011ZM289.059 54.1444C288.871 54.6713 288.493 55.1853 287.872 55.6779L288.713 56.7381C289.483 56.1267 290.041 55.4167 290.333 54.5996L289.059 54.1444ZM287.883 55.669C287.322 56.0944 286.62 56.3234 285.736 56.3234V57.6766C286.868 57.6766 287.87 57.3776 288.701 56.747L287.883 55.669ZM285.736 56.3234H276.232V57.6766H285.736V56.3234ZM276.863 57.2442L297.167 4.79224L295.905 4.30376L275.601 56.7558L276.863 57.2442ZM296.536 5.22457H308.992V3.87142H296.536V5.22457ZM308.361 4.79224L328.665 57.2442L329.927 56.7558L309.623 4.30376L308.361 4.79224ZM295.6 37.6246H309.928V36.2714H295.6V37.6246ZM310.57 36.7326L305.746 22.3686L304.463 22.7994L309.287 37.1634L310.57 36.7326ZM305.744 22.365C305.431 21.4504 305.059 20.3802 304.626 19.1548L303.35 19.6052C303.782 20.8278 304.153 21.8936 304.464 22.803L305.744 22.365ZM304.631 19.1698C304.226 17.9314 303.821 16.5961 303.415 15.1636L302.113 15.5324C302.523 16.9799 302.934 18.3326 303.345 19.5902L304.631 19.1698ZM302.11 15.1763C301.729 16.6293 301.336 17.9722 300.933 19.2058L302.219 19.6262C302.632 18.3637 303.032 16.9947 303.419 15.5197L302.11 15.1763ZM300.933 19.2058C300.528 20.4449 300.149 21.5116 299.795 22.4076L301.053 22.9044C301.42 21.9764 301.808 20.8831 302.219 19.6262L300.933 19.2058ZM299.783 22.4396L294.959 36.7316L296.241 37.1644L301.065 22.8724L299.783 22.4396ZM341.306 4.62L341.217 5.29064L341.306 4.62ZM342.278 4.908L341.976 5.51314L341.996 5.52357L342.018 5.53253L342.278 4.908ZM344.006 6.42L344.537 6.00023L344.528 5.98989L344.006 6.42ZM368.918 37.92L368.387 38.3397L369.809 40.137L369.592 37.8559L368.918 37.92ZM368.702 35.004L368.026 35.0378L368.026 35.0387L368.702 35.004ZM368.63 4.548V3.87142H367.954V4.548H368.63ZM379.358 4.548H380.035V3.87142H379.358V4.548ZM379.358 57V57.6766H380.035V57H379.358ZM370.646 56.568L370.921 55.9497L370.646 56.568ZM368.774 54.984L369.307 54.5675L369.305 54.5641L368.774 54.984ZM344.042 23.736L344.573 23.3161L343.193 21.5725L343.368 23.7892L344.042 23.736ZM344.222 26.436L343.547 26.4725L343.547 26.4735L344.222 26.436ZM344.294 57V57.6766H344.971V57H344.294ZM333.566 57H332.89V57.6766H333.566V57ZM333.566 4.548V3.87142H332.89V4.548H333.566ZM339.974 5.22457C340.484 5.22457 340.896 5.24792 341.217 5.29064L341.396 3.94936C340.996 3.89608 340.52 3.87142 339.974 3.87142V5.22457ZM341.217 5.29064C341.512 5.33 341.762 5.4066 341.976 5.51314L342.581 4.30285C342.218 4.1214 341.82 4.006 341.396 3.94936L341.217 5.29064ZM342.018 5.53253C342.225 5.61875 342.436 5.75341 342.651 5.94862L343.561 4.94737C343.248 4.66259 342.907 4.43724 342.538 4.28347L342.018 5.53253ZM342.651 5.94862C342.882 6.15907 343.16 6.45647 343.484 6.8501L344.528 5.98989C344.181 5.56752 343.858 5.21693 343.561 4.94737L342.651 5.94862ZM343.475 6.83968L368.387 38.3397L369.449 37.5003L344.537 6.00031L343.475 6.83968ZM369.592 37.8559C369.496 36.8569 369.425 35.8948 369.378 34.9693L368.026 35.0387C368.075 35.9852 368.148 36.9671 368.245 37.9841L369.592 37.8559ZM369.378 34.9702C369.33 34.0199 369.307 33.1313 369.307 32.304H367.954C367.954 33.1567 367.978 34.0681 368.026 35.0378L369.378 34.9702ZM369.307 32.304V4.548H367.954V32.304H369.307ZM368.63 5.22457H379.358V3.87142H368.63V5.22457ZM378.682 4.548V57H380.035V4.548H378.682ZM379.358 56.3234H373.022V57.6766H379.358V56.3234ZM373.022 56.3234C372.152 56.3234 371.459 56.1891 370.921 55.9497L370.371 57.1863C371.129 57.5229 372.02 57.6766 373.022 57.6766V56.3234ZM370.921 55.9497C370.405 55.7205 369.863 55.2792 369.307 54.5675L368.241 55.4005C368.885 56.2248 369.591 56.8395 370.371 57.1863L370.921 55.9497ZM369.305 54.5641L344.573 23.3161L343.512 24.1559L368.244 55.4039L369.305 54.5641ZM343.368 23.7892C343.439 24.6958 343.499 25.5903 343.547 26.4725L344.898 26.3995C344.849 25.5057 344.789 24.6002 344.717 23.6828L343.368 23.7892ZM343.547 26.4735C343.594 27.3266 343.618 28.13 343.618 28.884H344.971C344.971 28.102 344.946 27.2734 344.898 26.3985L343.547 26.4735ZM343.618 28.884V57H344.971V28.884H343.618ZM344.294 56.3234H333.566V57.6766H344.294V56.3234ZM334.243 57V4.548H332.89V57H334.243ZM333.566 5.22457H339.974V3.87142H333.566V5.22457ZM401.308 57V57.6766H401.985V57H401.308ZM389.068 57H388.391V57.6766H389.068V57ZM389.068 4.548V3.87142H388.391V4.548H389.068ZM401.308 4.548H401.985V3.87142H401.308V4.548ZM401.308 56.3234H389.068V57.6766H401.308V56.3234ZM389.745 57V4.548H388.391V57H389.745ZM389.068 5.22457H401.308V3.87142H389.068V5.22457ZM400.631 4.548V57H401.985V4.548H400.631ZM447.158 43.608L446.898 44.2325L446.921 44.242L446.945 44.2499L447.158 43.608ZM447.986 44.148L448.477 43.6819L448.471 43.6757L448.465 43.6696L447.986 44.148ZM452.81 49.224L453.348 49.6352L453.699 49.1765L453.301 48.7579L452.81 49.224ZM444.854 55.488L445.127 56.1074L445.129 56.1065L444.854 55.488ZM422.858 55.56L422.589 56.1804L422.594 56.1828L422.858 55.56ZM414.83 49.944L414.33 50.3994L414.335 50.4046L414.83 49.944ZM409.79 41.448L409.153 41.6758L409.154 41.6773L409.79 41.448ZM410.042 19.992L410.668 20.2496L410.669 20.248L410.042 19.992ZM415.658 11.496L415.185 11.0128L415.182 11.0152L415.658 11.496ZM424.334 5.952L424.087 5.32227L424.334 5.952ZM441.002 4.512L440.864 5.17443L440.875 5.17646L441.002 4.512ZM445.898 5.952L445.64 6.57746L445.649 6.58087L445.898 5.952ZM450.074 8.148L449.694 8.70772L449.702 8.71257L450.074 8.148ZM453.458 10.956L454.001 11.3602L454.342 10.9024L453.948 10.4891L453.458 10.956ZM449.354 16.464L449.886 16.882L449.892 16.8752L449.897 16.8682L449.354 16.464ZM448.418 17.4L448.819 17.9456L448.83 17.9372L448.841 17.9283L448.418 17.4ZM445.682 17.508L445.38 18.1131L445.38 18.1131L445.682 17.508ZM444.458 16.824L444.083 17.3869L444.094 17.3943L444.106 17.4013L444.458 16.824ZM443.018 15.924L442.643 16.4869L442.658 16.4971L442.674 16.5065L443.018 15.924ZM441.182 15.024L440.924 15.6492L440.937 15.6545L440.95 15.6592L441.182 15.024ZM438.698 14.304L438.563 14.9668L438.566 14.9674L438.698 14.304ZM429.338 15.204L429.601 15.8276L429.608 15.8246L429.338 15.204ZM424.622 18.552L424.12 18.0989L424.12 18.0994L424.622 18.552ZM421.562 23.808L420.926 23.5786L420.924 23.5852L421.562 23.808ZM421.562 37.92L420.923 38.1406L420.925 38.1471L421.562 37.92ZM424.55 43.212L424.039 43.6552L424.047 43.6641L424.55 43.212ZM437.402 47.424L437.473 48.0969L437.482 48.0959L437.491 48.0948L437.402 47.424ZM439.922 46.848L439.708 46.2061L439.703 46.2082L439.922 46.848ZM442.154 45.84L442.497 46.4237L442.503 46.4202L442.154 45.84ZM444.314 44.256L443.881 43.7361L443.871 43.7447L444.314 44.256ZM445.25 43.68L445.517 44.3019L445.535 44.294L445.553 44.2851L445.25 43.68ZM446.294 44.1046C446.486 44.1046 446.686 44.144 446.898 44.2325L447.419 42.9835C447.055 42.832 446.679 42.7514 446.294 42.7514V44.1046ZM446.945 44.2499C447.113 44.3059 447.302 44.4199 447.508 44.6264L448.465 43.6696C448.143 43.3481 447.78 43.1021 447.372 42.9661L446.945 44.2499ZM447.496 44.6141L452.32 49.6901L453.301 48.7579L448.477 43.6819L447.496 44.6141ZM452.273 48.8128C450.23 51.4824 447.669 53.4993 444.58 54.8695L445.129 56.1065C448.424 54.6447 451.167 52.4856 453.348 49.6352L452.273 48.8128ZM444.582 54.8686C441.519 56.2146 437.86 56.8994 433.586 56.8994V58.2526C438.001 58.2526 441.854 57.5454 445.127 56.1074L444.582 54.8686ZM433.586 56.8994C429.679 56.8994 426.195 56.2406 423.123 54.9372L422.594 56.1828C425.858 57.5674 429.526 58.2526 433.586 58.2526V56.8994ZM423.128 54.9396C420.065 53.6066 417.467 51.7873 415.326 49.4834L414.335 50.4046C416.61 52.8527 419.364 54.7774 422.589 56.1804L423.128 54.9396ZM415.331 49.4886C413.211 47.1588 411.575 44.405 410.427 41.2187L409.154 41.6773C410.358 45.019 412.082 47.9292 414.33 50.3994L415.331 49.4886ZM410.428 41.2201C409.28 38.0122 408.703 34.5261 408.703 30.756H407.35C407.35 34.6659 407.949 38.3078 409.153 41.6758L410.428 41.2201ZM408.703 30.756C408.703 26.9228 409.361 23.4235 410.668 20.2496L409.417 19.7344C408.036 23.0885 407.35 26.7652 407.35 30.756H408.703ZM410.669 20.248C411.98 17.0398 413.802 14.2855 416.134 11.9768L415.182 11.0152C412.714 13.4585 410.793 16.3682 409.416 19.736L410.669 20.248ZM416.132 11.9792C418.487 9.67067 421.301 7.87068 424.582 6.58172L424.087 5.32227C420.648 6.67332 417.678 8.56933 415.185 11.0128L416.132 11.9792ZM424.582 6.58172C427.854 5.29627 431.477 4.64857 435.458 4.64857V3.29542C431.328 3.29542 427.535 3.96772 424.087 5.32227L424.582 6.58172ZM435.458 4.64857C437.385 4.64857 439.187 4.82481 440.864 5.17435L441.14 3.84964C439.362 3.47918 437.468 3.29542 435.458 3.29542V4.64857ZM440.875 5.17646C442.586 5.50464 444.174 5.97228 445.64 6.5774L446.157 5.32659C444.599 4.68371 442.923 4.19135 441.13 3.84753L440.875 5.17646ZM445.649 6.58087C447.118 7.16369 448.465 7.87299 449.694 8.70767L450.455 7.58832C449.139 6.695 447.703 5.94031 446.148 5.32313L445.649 6.58087ZM449.702 8.71257C450.934 9.52643 452.022 10.4302 452.969 11.4229L453.948 10.4891C452.927 9.41781 451.759 8.44956 450.447 7.58342L449.702 8.71257ZM452.916 10.5518L448.812 16.0598L449.897 16.8682L454.001 11.3602L452.916 10.5518ZM448.822 16.046C448.593 16.3381 448.318 16.6136 447.996 16.8717L448.841 17.9283C449.239 17.6104 449.588 17.2619 449.886 16.882L448.822 16.046ZM448.018 16.8544C447.816 17.0026 447.473 17.1194 446.906 17.1194V18.4726C447.636 18.4726 448.301 18.3254 448.819 17.9456L448.018 16.8544ZM446.906 17.1194C446.579 17.1194 446.274 17.0476 445.985 16.9029L445.38 18.1131C445.858 18.3524 446.37 18.4726 446.906 18.4726V17.1194ZM445.985 16.9029C445.621 16.7208 445.23 16.5024 444.811 16.2467L444.106 17.4013C444.551 17.6736 444.976 17.9112 445.38 18.1131L445.985 16.9029ZM444.834 16.2611C444.39 15.9652 443.899 15.6587 443.363 15.3415L442.674 16.5065C443.194 16.8133 443.663 17.1068 444.083 17.3869L444.834 16.2611ZM443.394 15.3611C442.835 14.9888 442.173 14.6665 441.415 14.3888L440.95 15.6592C441.632 15.9094 442.194 16.1872 442.643 16.4869L443.394 15.3611ZM441.441 14.3988C440.695 14.0899 439.822 13.8388 438.831 13.6406L438.566 14.9674C439.495 15.1532 440.278 15.3821 440.924 15.6492L441.441 14.3988ZM438.834 13.6412C437.842 13.4376 436.69 13.3394 435.386 13.3394V14.6926C436.627 14.6926 437.683 14.7864 438.563 14.9668L438.834 13.6412ZM435.386 13.3394C433.096 13.3394 430.987 13.7506 429.069 14.5834L429.608 15.8246C431.338 15.0734 433.261 14.6926 435.386 14.6926V13.3394ZM429.076 14.5804C427.161 15.3868 425.507 16.5609 424.12 18.0989L425.125 19.0051C426.378 17.6151 427.868 16.5572 429.601 15.8276L429.076 14.5804ZM424.12 18.0994C422.758 19.6125 421.696 21.4431 420.926 23.5786L422.199 24.0374C422.917 22.0449 423.895 20.3715 425.125 19.0046L424.12 18.0994ZM420.924 23.5852C420.175 25.7321 419.806 28.1251 419.806 30.756H421.159C421.159 28.2509 421.51 26.0119 422.201 24.0308L420.924 23.5852ZM419.806 30.756C419.806 33.5033 420.174 35.9681 420.923 38.1406L422.202 37.6994C421.511 35.6959 421.159 33.3847 421.159 30.756H419.806ZM420.925 38.1471C421.693 40.3016 422.728 42.1421 424.039 43.6551L425.062 42.7689C423.877 41.4019 422.92 39.7144 422.2 37.6929L420.925 38.1471ZM424.047 43.6641C425.381 45.1486 426.934 46.2865 428.704 47.0706L429.252 45.8334C427.663 45.1295 426.264 44.1074 425.054 42.7599L424.047 43.6641ZM428.704 47.0706C430.475 47.8546 432.368 48.2446 434.378 48.2446V46.8914C432.548 46.8914 430.842 46.5374 429.252 45.8334L428.704 47.0706ZM434.378 48.2446C435.502 48.2446 436.534 48.1958 437.473 48.0969L437.332 46.7511C436.447 46.8442 435.463 46.8914 434.378 46.8914V48.2446ZM437.491 48.0948C438.442 47.9697 439.326 47.7683 440.142 47.4878L439.703 46.2082C438.982 46.4557 438.187 46.6383 437.314 46.7532L437.491 48.0948ZM440.136 47.4899C440.971 47.2115 441.759 46.8563 442.497 46.4237L441.812 45.2563C441.158 45.6397 440.457 45.9565 439.709 46.2061L440.136 47.4899ZM442.503 46.4202C443.26 45.9655 444.012 45.4136 444.758 44.7673L443.871 43.7447C443.177 44.3464 442.489 44.8505 441.806 45.2598L442.503 46.4202ZM444.748 44.7758C444.987 44.5766 445.243 44.4194 445.517 44.3019L444.984 43.0581C444.586 43.2286 444.218 43.4554 443.881 43.7362L444.748 44.7758ZM445.553 44.2851C445.799 44.162 446.044 44.1046 446.294 44.1046V42.7514C445.825 42.7514 445.374 42.862 444.948 43.0749L445.553 44.2851ZM472.915 4.548H473.591V3.87142H472.915V4.548ZM472.519 31.728L473.19 31.8101L473.19 31.8092L472.519 31.728ZM471.475 38.352V39.0286H472.034L472.139 38.4792L471.475 38.352ZM463.915 38.352L463.25 38.4792L463.355 39.0286H463.915V38.352ZM462.871 31.728L462.199 31.8092L462.199 31.8101L462.871 31.728ZM462.475 4.548V3.87142H461.798V4.548H462.475ZM461.719 48.936L461.102 48.6575L461.098 48.6659L461.095 48.6744L461.719 48.936ZM463.051 46.992L462.583 46.5035L462.577 46.5085L462.572 46.5136L463.051 46.992ZM465.067 45.696L465.321 46.3228L465.33 46.3194L465.338 46.3158L465.067 45.696ZM470.071 45.696L469.8 46.3158L469.808 46.3194L469.816 46.3228L470.071 45.696ZM472.087 46.992L472.555 46.5035L472.087 46.992ZM473.419 48.936L472.795 49.1977L472.798 49.2061L472.802 49.2145L473.419 48.936ZM473.419 53.796L472.799 53.5248L472.795 53.5344L473.419 53.796ZM472.087 55.74L472.555 56.2285L472.087 55.74ZM470.071 57.036L469.816 56.4092L470.071 57.036ZM465.067 57.036L465.321 56.4092L465.067 57.036ZM463.051 55.74L462.572 56.2184L462.577 56.2235L462.583 56.2285L463.051 55.74ZM461.719 53.796L461.092 54.0506L461.097 54.0627L461.102 54.0745L461.719 53.796ZM472.238 4.548V25.14H473.591V4.548H472.238ZM472.238 25.14C472.238 27.321 472.108 29.4898 471.847 31.6468L473.19 31.8092C473.458 29.5982 473.591 27.375 473.591 25.14H472.238ZM471.847 31.6459C471.585 33.79 471.24 35.9829 470.81 38.2248L472.139 38.4792C472.574 36.2091 472.924 33.986 473.19 31.8101L471.847 31.6459ZM471.475 37.6754H463.915V39.0286H471.475V37.6754ZM464.579 38.2248C464.15 35.9829 463.804 33.79 463.542 31.6459L462.199 31.8101C462.465 33.986 462.816 36.2091 463.25 38.4792L464.579 38.2248ZM463.542 31.6468C463.282 29.4898 463.151 27.321 463.151 25.14H461.798C461.798 27.375 461.932 29.5982 462.199 31.8092L463.542 31.6468ZM463.151 25.14V4.548H461.798V25.14H463.151ZM462.475 5.22457H472.915V3.87142H462.475V5.22457ZM461.927 51.348C461.927 50.5674 462.068 49.853 462.343 49.1977L461.095 48.6744C460.746 49.507 460.574 50.4006 460.574 51.348H461.927ZM462.335 49.2145C462.639 48.5415 463.038 47.962 463.529 47.4704L462.572 46.5136C461.96 47.126 461.47 47.8425 461.102 48.6575L462.335 49.2145ZM463.519 47.4805C464.031 46.99 464.63 46.6039 465.321 46.3228L464.812 45.0692C463.968 45.4121 463.223 45.89 462.583 46.5035L463.519 47.4805ZM465.338 46.3158C466.013 46.0204 466.76 45.8686 467.587 45.8686V44.5154C466.59 44.5154 465.656 44.6996 464.796 45.0761L465.338 46.3158ZM467.587 45.8686C468.387 45.8686 469.122 46.0195 469.8 46.3158L470.342 45.0761C469.483 44.7005 468.562 44.5154 467.587 44.5154V45.8686ZM469.816 46.3228C470.508 46.6039 471.107 46.99 471.619 47.4805L472.555 46.5035C471.915 45.89 471.17 45.4121 470.325 45.0692L469.816 46.3228ZM471.619 47.4805C472.127 47.9676 472.518 48.5381 472.795 49.1977L474.043 48.6744C473.695 47.8459 473.199 47.1204 472.555 46.5035L471.619 47.4805ZM472.802 49.2145C473.096 49.8659 473.246 50.5743 473.246 51.348H474.599C474.599 50.3937 474.413 49.4941 474.035 48.6575L472.802 49.2145ZM473.246 51.348C473.246 52.1216 473.096 52.845 472.799 53.5248L474.039 54.0672C474.413 53.211 474.599 52.3024 474.599 51.348H473.246ZM472.795 53.5344C472.518 54.1939 472.127 54.7644 471.619 55.2515L472.555 56.2285C473.199 55.6116 473.695 54.8861 474.043 54.0576L472.795 53.5344ZM471.619 55.2515C471.107 55.742 470.508 56.1281 469.816 56.4092L470.325 57.6628C471.17 57.3199 471.915 56.842 472.555 56.2285L471.619 55.2515ZM469.816 56.4092C469.135 56.686 468.394 56.8274 467.587 56.8274V58.1806C468.556 58.1806 469.471 58.01 470.325 57.6628L469.816 56.4092ZM467.587 56.8274C466.753 56.8274 466.001 56.6852 465.321 56.4092L464.812 57.6628C465.669 58.0108 466.596 58.1806 467.587 58.1806V56.8274ZM465.321 56.4092C464.63 56.1281 464.031 55.742 463.519 55.2515L462.583 56.2285C463.223 56.842 463.968 57.3199 464.812 57.6628L465.321 56.4092ZM463.529 55.2616C463.038 54.77 462.639 54.1905 462.335 53.5175L461.102 54.0745C461.47 54.8895 461.96 55.606 462.572 56.2184L463.529 55.2616ZM462.346 53.5414C462.068 52.8576 461.927 52.1285 461.927 51.348H460.574C460.574 52.2955 460.746 53.1984 461.092 54.0506L462.346 53.5414Z" fill="url(#paint0_linear)"/>
<defs>
<linearGradient id="paint0_linear" x1="-21.8851" y1="57.6363" x2="73.2836" y2="233.065" gradientUnits="userSpaceOnUse">
<stop stop-color="#6271FF"/>
<stop offset="0.976709" stop-color="#EFC0FF"/>
</linearGradient>
</defs>
</svg>
