<svg width="19" height="19" viewBox="0 0 19 19" fill="none" xmlns="http://www.w3.org/2000/svg">
<g clip-path="url(#clip0)">
<path d="M9.14974 7.15021C8.69774 7.15021 8.32861 7.51934 8.32861 7.97133C8.32861 8.42333 8.69774 8.79246 9.14974 8.79246C9.60173 8.79246 9.97086 8.42333 9.97086 7.97133C9.97086 7.51934 9.60173 7.15021 9.14974 7.15021ZM9.14974 8.42333C8.90114 8.42333 8.70528 8.21993 8.70528 7.97887C8.70528 7.7378 8.90867 7.5344 9.14974 7.5344C9.3908 7.5344 9.5942 7.7378 9.5942 7.97887C9.5942 8.21993 9.39834 8.42333 9.14974 8.42333Z" fill="#1F1F3D"/>
<path d="M15.2606 12.9194H4.1774C3.89269 12.9194 3.76074 13.081 3.76074 13.2866C3.76074 13.4921 3.89269 13.6537 4.1774 13.6537H15.2606C15.5453 13.6537 15.6842 13.4921 15.6842 13.2866C15.6842 13.081 15.5453 12.9194 15.2606 12.9194Z" fill="#1F1F3D"/>
<path d="M15.2606 14.2704H4.1774C3.89269 14.2704 3.76074 14.432 3.76074 14.6376C3.76074 14.8432 3.89269 15.0047 4.1774 15.0047H15.2606C15.5453 15.0047 15.6842 14.8432 15.6842 14.6376C15.6842 14.4393 15.5453 14.2704 15.2606 14.2704Z" fill="#1F1F3D"/>
<path d="M15.2606 15.6802H4.1774C3.89269 15.6802 3.76074 15.8417 3.76074 16.0473C3.76074 16.2529 3.89269 16.4144 4.1774 16.4144H15.2606C15.5453 16.4144 15.6842 16.2529 15.6842 16.0473C15.6842 15.8491 15.5453 15.6802 15.2606 15.6802Z" fill="#1F1F3D"/>
<path d="M15.1595 3.46875H4.27766C3.99294 3.46875 3.75684 3.68902 3.75684 3.95335C3.75684 4.21767 3.99294 4.43794 4.27766 4.43794H15.1664C15.4511 4.43794 15.6873 4.21767 15.6873 3.95335C15.6803 3.68168 15.4511 3.46875 15.1595 3.46875Z" fill="#1F1F3D"/>
<path d="M14.2914 5.41455H5.14571C4.38183 5.41455 3.75684 6.07536 3.75684 6.88303V10.4808C3.75684 11.2885 4.38183 11.9493 5.14571 11.9493H14.2984C15.0623 11.9493 15.6873 11.2885 15.6873 10.4808V6.88303C15.6803 6.07536 15.0553 5.41455 14.2914 5.41455ZM5.14571 11.2224C4.99293 11.2224 4.86099 11.1636 4.74988 11.0755L6.44431 9.05637L8.479 11.2297H5.14571V11.2224ZM14.2914 11.2224H9.14566L11.729 8.16794L14.7359 11.0388C14.6178 11.1489 14.465 11.2224 14.2914 11.2224ZM14.9859 10.4367L11.8748 7.47042C11.7706 7.36762 11.6179 7.37497 11.5206 7.49244L8.80539 10.7011L6.60403 8.3515C6.49986 8.23402 6.34708 8.24137 6.24292 8.35884L4.45127 10.4955C4.45127 10.4881 4.45127 10.4881 4.45127 10.4808V6.88303C4.45127 6.4792 4.76377 6.14879 5.14571 6.14879H14.2984C14.6803 6.14879 14.9928 6.4792 14.9928 6.88303V10.4367H14.9859Z" fill="#1F1F3D"/>
<path d="M16.4736 0.941589H2.97172C1.73473 0.941589 0.722656 1.96046 0.722656 3.20574V16.6774C0.722656 17.9227 1.73473 18.9416 2.97172 18.9416H16.4736C17.7106 18.9416 18.7227 17.9227 18.7227 16.6774V3.20574C18.7227 1.96046 17.7106 0.941589 16.4736 0.941589ZM17.4632 16.2623C17.4632 17.0472 16.8334 17.6812 16.0538 17.6812H3.38405C2.60437 17.6812 1.97463 17.0472 1.97463 16.2623V3.62083C1.97463 2.83593 2.60437 2.20197 3.38405 2.20197H16.0538C16.8334 2.20197 17.4632 2.83593 17.4632 3.62083V16.2623Z" fill="#1F1F3D"/>
</g>
<defs>
<clipPath id="clip0">
<rect width="18" height="18" fill="white" transform="translate(0.722656 0.941589)"/>
</clipPath>
</defs>
</svg>
