<svg width="20" height="24" viewBox="0 0 20 24" fill="none" xmlns="http://www.w3.org/2000/svg">
<path d="M19.0416 19.56C18.7405 19.11 18.4959 18.7 18.3172 18.36C17.6868 17.18 17.094 16.07 17.094 14.74L16.9153 10.84C16.9153 7.57 14.8924 4.8 12.1169 3.85V2.26C12.1075 1.01 11.1572 0 9.98113 0C8.80505 0 7.85479 1.01 7.85479 2.26V3.86C5.08866 4.82 3.08462 7.58 3.08462 10.81L2.90586 14.79C2.90586 16.09 2.31312 17.2 1.67333 18.4C1.50398 18.72 1.25936 19.11 0.95828 19.57C0.647796 20.04 0.591344 20.55 0.798334 20.97C0.995914 21.38 1.42871 21.63 1.93677 21.63H7.29968C7.53489 22.97 8.65452 24 9.99995 24C11.3454 24 12.4556 22.97 12.7002 21.62H18.0631C18.5806 21.62 19.004 21.37 19.2016 20.96C19.418 20.54 19.3521 20.03 19.0416 19.56ZM9.2943 2.26C9.2943 1.86 9.60478 1.53 9.98113 1.53C10.3575 1.53 10.668 1.86 10.668 2.26V3.53C10.4422 3.51 10.2163 3.49 9.99054 3.49C9.75532 3.49 9.52011 3.5 9.28489 3.53V2.26H9.2943ZM9.99995 22.47C9.45425 22.47 8.99323 22.12 8.78624 21.62H9.99995H11.2137C11.0067 22.12 10.5456 22.47 9.99995 22.47ZM9.99995 20.1H2.35075C2.57656 19.74 2.77414 19.42 2.93409 19.12C3.59269 17.89 4.33597 16.49 4.33597 14.82L4.51473 10.84C4.51473 7.63 6.97038 5.02 9.99054 5.02C13.0107 5.02 15.4663 7.63 15.4663 10.88L15.6451 14.78C15.6451 16.48 16.3978 17.88 17.0658 19.14C17.2069 19.41 17.3951 19.72 17.6303 20.09H9.99995V20.1Z" fill="#BDBFDF"/>
</svg>
