<svg width="19" height="19" viewBox="0 0 19 19" fill="none" xmlns="http://www.w3.org/2000/svg">
<path d="M16.7762 9.70379C16.0731 8.88343 15.0303 8.31327 13.6473 7.99291C14.6165 7.54757 15.2024 7.24684 15.4055 7.09066C15.8977 6.72343 16.2688 6.31319 16.5184 5.86013C16.7684 5.40691 16.8933 4.90694 16.8933 4.36014C16.8933 3.85238 16.8114 3.37584 16.6472 2.9305C16.4831 2.48508 16.2293 2.07886 15.8856 1.71171C15.534 1.34465 15.1356 1.04761 14.6903 0.821037C14.2762 0.617988 13.9011 0.46567 13.5652 0.364124C12.7606 0.153153 12.0145 0.0476675 11.327 0.0476675H10.4598C10.3036 0.0476675 10.1452 0.0456974 9.98507 0.041757C9.82507 0.038063 9.74109 0.0360107 9.7333 0.0360107C9.69434 0.0360107 9.63955 0.038063 9.56903 0.0417981C9.49872 0.0457384 9.44389 0.0477086 9.40489 0.0477086L8.87747 0.0594885L4.42454 0.211806L1.37776 0.282158L1.42464 1.25472C2.08078 1.34075 2.52629 1.39169 2.76057 1.4072C3.15899 1.43064 3.42854 1.48937 3.5692 1.583C3.65523 1.64559 3.7021 1.69242 3.7099 1.72366C3.78797 1.89551 3.83082 2.32127 3.83878 3.00102C3.86998 4.1573 3.90523 5.7354 3.94419 7.73531L3.96762 13.5594C3.96762 14.5593 3.93253 15.3173 3.86222 15.8328C3.83098 16.0204 3.74885 16.2196 3.61607 16.4305C3.25668 16.5789 2.77625 16.7001 2.17469 16.7938C1.99512 16.8171 1.72944 16.864 1.37793 16.9346L1.35449 18.0361C3.22159 17.9734 4.28404 17.9306 4.54217 17.9071C6.21389 17.8054 7.37809 17.7626 8.03428 17.7781L10.3427 17.8248C11.2493 17.856 12.0227 17.813 12.6632 17.696C13.6787 17.5085 14.4715 17.2739 15.0421 16.9926C15.6201 16.7114 16.1669 16.2895 16.6824 15.7271C17.0734 15.2975 17.3504 14.8405 17.5144 14.3559C17.7411 13.6921 17.8542 13.0632 17.8542 12.4694C17.8544 11.454 17.4952 10.532 16.7762 9.70379ZM7.60068 1.39567C8.21003 1.29412 8.71784 1.24335 9.12407 1.24335C10.4599 1.24335 11.4562 1.53637 12.1123 2.12225C12.776 2.70804 13.1082 3.4386 13.1082 4.31352C13.1082 5.55578 12.7607 6.43074 12.0654 6.93851C11.3702 7.44623 10.3389 7.70022 8.97175 7.70022C8.45614 7.70022 8.03038 7.67293 7.69451 7.61825C7.68659 7.35257 7.68269 7.05183 7.68269 6.71584L7.69451 5.56744C7.70223 4.34102 7.67879 3.25123 7.62416 2.29796C7.60848 2.0402 7.60068 1.73962 7.60068 1.39567ZM13.4601 14.9304C13.171 15.4928 12.6943 15.9343 12.0305 16.2547C11.3663 16.5751 10.5225 16.735 9.49918 16.735C8.99917 16.735 8.45228 16.6104 7.85857 16.3603C7.76482 16.1339 7.71791 15.9617 7.71774 15.8445L7.68269 12.6805L7.69451 10.6532V8.96564C7.90548 8.88753 8.30005 8.84854 8.87812 8.84854C10.1828 8.84854 11.1475 8.97356 11.7726 9.22348C12.421 9.47369 12.9718 9.96582 13.425 10.7002C13.7452 11.216 13.9054 11.919 13.9054 12.8097C13.9052 13.6766 13.7567 14.3836 13.4601 14.9304Z" fill="#1F1F3D"/>
</svg>
