<svg width="19" height="19" viewBox="0 0 19 19" fill="none" xmlns="http://www.w3.org/2000/svg">
<g clip-path="url(#clip0)">
<path d="M5.08758 4.86748C5.792 4.86748 6.36902 4.29795 6.36902 3.58604V2.29712C6.36152 1.58521 5.792 1.01569 5.08758 1.01569C4.37568 1.01569 3.80615 1.58521 3.80615 2.29712V3.59354C3.80615 4.29795 4.37568 4.86748 5.08758 4.86748Z" fill="#1F1F3D"/>
<path d="M13.0832 4.86748C13.7876 4.86748 14.3646 4.29795 14.3646 3.58604V2.29712C14.3646 1.58521 13.7951 1.01569 13.0832 1.01569C12.3788 1.01569 11.8018 1.58521 11.8018 2.29712V3.59354C11.8093 4.29795 12.3788 4.86748 13.0832 4.86748Z" fill="#1F1F3D"/>
<path d="M8.18255 8.51691H6.78871C6.60886 8.51691 6.45898 8.66678 6.45898 8.84663V9.98568C6.45898 10.1655 6.60886 10.3154 6.78871 10.3154H8.18255C8.3624 10.3154 8.51227 10.1655 8.51227 9.98568V8.84663C8.51227 8.66678 8.3624 8.51691 8.18255 8.51691Z" fill="#1F1F3D"/>
<path d="M11.4423 8.51691H10.0485C9.86862 8.51691 9.71875 8.66678 9.71875 8.84663V9.98568C9.71875 10.1655 9.86862 10.3154 10.0485 10.3154H11.4423C11.6222 10.3154 11.772 10.1655 11.772 9.98568V8.84663C11.772 8.66678 11.6222 8.51691 11.4423 8.51691Z" fill="#1F1F3D"/>
<path d="M14.7021 8.51691H13.3082C13.1284 8.51691 12.9785 8.66678 12.9785 8.84663V9.98568C12.9785 10.1655 13.1284 10.3154 13.3082 10.3154H14.7021C14.8819 10.3154 15.0318 10.1655 15.0318 9.98568V8.84663C15.0318 8.66678 14.8819 8.51691 14.7021 8.51691Z" fill="#1F1F3D"/>
<path d="M8.18255 11.4919H6.78871C6.60886 11.4919 6.45898 11.6418 6.45898 11.8217V12.9607C6.45898 13.1406 6.60886 13.2904 6.78871 13.2904H8.18255C8.3624 13.2904 8.51227 13.1406 8.51227 12.9607V11.8217C8.51227 11.6418 8.3624 11.4919 8.18255 11.4919Z" fill="#1F1F3D"/>
<path d="M11.4423 11.4919H10.0485C9.86862 11.4919 9.71875 11.6418 9.71875 11.8217V12.9607C9.71875 13.1406 9.86862 13.2904 10.0485 13.2904H11.4423C11.6222 13.2904 11.772 13.1406 11.772 12.9607V11.8217C11.772 11.6418 11.6222 11.4919 11.4423 11.4919Z" fill="#1F1F3D"/>
<path d="M4.92278 11.4919H3.52894C3.34909 11.4919 3.19922 11.6418 3.19922 11.8217V12.9607C3.19922 13.1406 3.34909 13.2904 3.52894 13.2904H4.92278C5.10263 13.2904 5.25251 13.1406 5.25251 12.9607V11.8217C5.24501 11.6418 5.10263 11.4919 4.92278 11.4919Z" fill="#1F1F3D"/>
<path d="M4.92278 14.4745H3.52894C3.34909 14.4745 3.19922 14.6244 3.19922 14.8042V15.9433C3.19922 16.1231 3.34909 16.273 3.52894 16.273H4.92278C5.10263 16.273 5.25251 16.1231 5.25251 15.9433V14.8042C5.24501 14.6169 5.10263 14.4745 4.92278 14.4745Z" fill="#1F1F3D"/>
<path d="M14.7021 11.4919H13.3082C13.1284 11.4919 12.9785 11.6418 12.9785 11.8217V12.9607C12.9785 13.1406 13.1284 13.2904 13.3082 13.2904H14.7021C14.8819 13.2904 15.0318 13.1406 15.0318 12.9607V11.8217C15.0318 11.6418 14.8819 11.4919 14.7021 11.4919Z" fill="#1F1F3D"/>
<path d="M8.18255 14.4745H6.78871C6.60886 14.4745 6.45898 14.6244 6.45898 14.8042V15.9433C6.45898 16.1231 6.60886 16.273 6.78871 16.273H8.18255C8.3624 16.273 8.51227 16.1231 8.51227 15.9433V14.8042C8.51227 14.6169 8.3624 14.4745 8.18255 14.4745Z" fill="#1F1F3D"/>
<path d="M11.4423 14.4745H10.0485C9.86862 14.4745 9.71875 14.6244 9.71875 14.8042V15.9433C9.71875 16.1231 9.86862 16.273 10.0485 16.273H11.4423C11.6222 16.273 11.772 16.1231 11.772 15.9433V14.8042C11.772 14.6169 11.6222 14.4745 11.4423 14.4745Z" fill="#1F1F3D"/>
<path d="M14.7021 14.4745H13.3082C13.1284 14.4745 12.9785 14.6244 12.9785 14.8042V15.9433C12.9785 16.1231 13.1284 16.273 13.3082 16.273H14.7021C14.8819 16.273 15.0318 16.1231 15.0318 15.9433V14.8042C15.0318 14.6169 14.8819 14.4745 14.7021 14.4745Z" fill="#1F1F3D"/>
<path d="M16.9567 2.86664H15.0167V3.59353C15.0167 4.65765 14.1474 5.52692 13.0833 5.52692C12.0192 5.52692 11.1499 4.65765 11.1499 3.59353V2.86664H7.0134V3.59353C7.0134 4.65765 6.14412 5.52692 5.08001 5.52692C4.01589 5.52692 3.15411 4.65765 3.15411 3.59353V2.86664H1.29004C0.540664 2.86664 0.119141 3.28722 0.119141 4.01318V17.9591C0.119141 18.4986 0.561272 18.9407 1.10082 18.9407H17.1375C17.677 18.9407 18.1191 18.4986 18.1191 17.9591V4.01318C18.1191 3.35748 17.589 2.86664 16.9567 2.86664ZM16.5829 16.9174C16.5829 17.2771 16.2907 17.5694 15.931 17.5694H2.30732C1.94762 17.5694 1.65536 17.2771 1.65536 16.9174V7.79003C1.65536 7.43033 1.94762 7.13808 2.30732 7.13808H15.931C16.2907 7.13808 16.5829 7.43033 16.5829 7.79003V16.9174Z" fill="#1F1F3D"/>
</g>
<defs>
<clipPath id="clip0">
<rect width="18" height="18" fill="white" transform="translate(0.119141 0.985657)"/>
</clipPath>
</defs>
</svg>
