<svg width="19" height="19" viewBox="0 0 19 19" fill="none" xmlns="http://www.w3.org/2000/svg">
<path d="M8.3562 13.9253L8.20875 13.7725H7.99641H6.87188C3.68447 13.7725 1.10449 11.1925 1.10449 8.00509V7.06048C1.10449 3.87306 3.68447 1.29309 6.87188 1.29309H12.3296C15.5165 1.29309 18.0971 3.87263 18.1045 7.06071C18.1045 7.06099 18.1045 7.06128 18.1045 7.06156L18.1045 8.00509C18.1045 10.963 15.8629 13.4064 12.9858 13.7306L12.5014 13.7852L12.5437 14.2709L12.8586 17.8844L12.8589 17.8879C12.8797 18.108 12.782 18.2262 12.7122 18.267C12.6762 18.2882 12.6442 18.2926 12.6184 18.2891C12.5952 18.2859 12.5515 18.273 12.4958 18.2148L12.4945 18.2135L8.3562 13.9253Z" stroke="#1F1F3D"/>
</svg>
