<svg width="51" height="34" viewBox="0 0 51 34" fill="none" xmlns="http://www.w3.org/2000/svg">
<path d="M11.016 10.552L10.3336 10.2801L11.016 10.552ZM9.824 12.384L9.30455 11.8646L9.824 12.384ZM7.976 13.576L7.70755 12.8922L7.976 13.576ZM1.168 14H0.433391V14.7346H1.168V14ZM1.168 2.432V1.69739H0.433391V2.432H1.168ZM7.976 2.864L7.70317 3.54608L7.70755 3.5478L7.976 2.864ZM9.824 4.056L9.30455 4.57545L9.30728 4.57816L9.824 4.056ZM11.016 5.88L11.6984 5.60806L11.016 5.88ZM8.984 6.512L8.28782 6.7465L8.28858 6.74874L8.984 6.512ZM8.256 5.232L7.70831 5.7216L7.71205 5.72573L8.256 5.232ZM7.104 4.424L6.82146 5.10211L6.8243 5.10328L7.104 4.424ZM3.336 4.144V3.40939H2.60139V4.144H3.336ZM3.336 12.288H2.60139V13.0226H3.336V12.288ZM7.104 12.008L6.8243 11.3287L6.82146 11.3299L7.104 12.008ZM8.256 11.208L8.79996 11.7017L8.80368 11.6976L8.256 11.208ZM8.984 9.928L9.67942 10.1647L9.68018 10.1625L8.984 9.928ZM10.7054 8.216C10.7054 8.98115 10.5782 9.66631 10.3336 10.2801L11.6984 10.8239C12.0192 10.019 12.1746 9.14685 12.1746 8.216H10.7054ZM10.3336 10.2801C10.0858 10.9018 9.74216 11.4269 9.30455 11.8646L10.3434 12.9034C10.9298 12.3171 11.3809 11.6208 11.6984 10.8239L10.3336 10.2801ZM9.30455 11.8646C8.86881 12.3003 8.33998 12.6439 7.70755 12.8922L8.24446 14.2598C9.05202 13.9428 9.75519 13.4917 10.3434 12.9034L9.30455 11.8646ZM7.70755 12.8922C7.08351 13.1372 6.37873 13.2654 5.584 13.2654V14.7346C6.53861 14.7346 7.42849 14.5801 8.24446 14.2598L7.70755 12.8922ZM5.584 13.2654H1.168V14.7346H5.584V13.2654ZM1.90261 14V2.432H0.433391V14H1.90261ZM1.168 3.16661H5.584V1.69739H1.168V3.16661ZM5.584 3.16661C6.37711 3.16661 7.08035 3.29694 7.70317 3.54607L8.24883 2.18193C7.43166 1.85506 6.54023 1.69739 5.584 1.69739V3.16661ZM7.70755 3.5478C8.33998 3.79609 8.86881 4.1397 9.30455 4.57545L10.3434 3.53655C9.75519 2.9483 9.05202 2.49724 8.24446 2.1802L7.70755 3.5478ZM9.30728 4.57816C9.74315 5.00949 10.0861 5.53079 10.3336 6.15194L11.6984 5.60806C11.3806 4.81054 10.9288 4.11584 10.3407 3.53384L9.30728 4.57816ZM10.3336 6.15194C10.5782 6.76569 10.7054 7.45085 10.7054 8.216H12.1746C12.1746 7.28515 12.0192 6.41298 11.6984 5.60806L10.3336 6.15194ZM9.97461 8.216C9.97461 7.51631 9.8806 6.86623 9.67942 6.27526L8.28858 6.74874C8.42873 7.16043 8.50539 7.64636 8.50539 8.216H9.97461ZM9.68018 6.2775C9.48175 5.68842 9.19169 5.16985 8.79995 4.73826L7.71205 5.72573C7.94964 5.98748 8.14492 6.32224 8.28782 6.7465L9.68018 6.2775ZM8.80368 4.74241C8.41228 4.30457 7.93548 3.97192 7.3837 3.74472L6.8243 5.10328C7.17919 5.24941 7.47039 5.45543 7.70832 5.72159L8.80368 4.74241ZM7.38654 3.7459C6.83551 3.5163 6.23053 3.40939 5.584 3.40939V4.87861C6.06813 4.87861 6.47649 4.95836 6.82146 5.1021L7.38654 3.7459ZM5.584 3.40939H3.336V4.87861H5.584V3.40939ZM2.60139 4.144V12.288H4.07061V4.144H2.60139ZM3.336 13.0226H5.584V11.5534H3.336V13.0226ZM5.584 13.0226C6.23053 13.0226 6.83551 12.9157 7.38654 12.6861L6.82146 11.3299C6.47649 11.4736 6.06813 11.5534 5.584 11.5534V13.0226ZM7.3837 12.6873C7.93291 12.4611 8.40859 12.1329 8.79995 11.7017L7.71206 10.7143C7.47408 10.9764 7.18175 11.1815 6.8243 11.3287L7.3837 12.6873ZM8.80368 11.6976C9.19161 11.2636 9.48084 10.7481 9.67942 10.1647L8.28858 9.69126C8.14583 10.1106 7.94972 10.4484 7.70832 10.7184L8.80368 11.6976ZM9.68018 10.1625C9.88055 9.56765 9.97461 8.91589 9.97461 8.216H8.50539C8.50539 8.78544 8.42879 9.27502 8.28782 9.6935L9.68018 10.1625ZM23.7931 10.576L24.4769 10.8445L24.4776 10.8427L23.7931 10.576ZM22.6011 12.448L23.1285 12.9594L22.6011 12.448ZM20.7531 13.688L21.0303 14.3683L21.0346 14.3665L20.7531 13.688ZM15.9611 13.688L15.6796 14.3666L15.6857 14.369L15.9611 13.688ZM14.1051 12.448L13.5777 12.9594L13.5804 12.9621L14.1051 12.448ZM12.9131 10.576L12.2287 10.8427L12.2293 10.8445L12.9131 10.576ZM12.9131 5.864L13.5969 6.13245L13.5976 6.13074L12.9131 5.864ZM14.1051 3.984L13.5804 3.46987L13.5777 3.4726L14.1051 3.984ZM15.9611 2.752L16.2383 3.43232L16.2408 3.43128L15.9611 2.752ZM22.6011 3.992L22.0737 4.5034L22.0764 4.50606L22.6011 3.992ZM23.7931 5.864L23.1087 6.13074L23.1093 6.13245L23.7931 5.864ZM21.7531 6.512L21.0547 6.73991L21.0577 6.74874L21.7531 6.512ZM21.0331 5.224L21.5808 4.73441L21.0331 5.224ZM19.8811 4.416L19.5986 5.09411L19.6014 5.09528L19.8811 4.416ZM16.8331 4.416L16.5534 3.73672L16.8331 4.416ZM15.6731 5.224L15.1295 4.72983L15.1254 4.73441L15.6731 5.224ZM14.9451 6.512L15.6405 6.74874L15.6413 6.7465L14.9451 6.512ZM14.9451 9.928L14.2489 10.1625L14.2497 10.1647L14.9451 9.928ZM15.6731 11.208L15.1254 11.6977L15.1333 11.7063L15.6731 11.208ZM16.8331 12.008L16.5534 12.6873L16.8331 12.008ZM19.8811 12.008L19.6014 11.3287L19.5986 11.3299L19.8811 12.008ZM21.0331 11.208L21.5771 11.7017L21.5808 11.6976L21.0331 11.208ZM21.7531 9.928L21.0569 9.69349L21.0555 9.69792L21.7531 9.928ZM23.4825 8.216C23.4825 8.98092 23.3553 9.67625 23.1087 10.3093L24.4776 10.8427C24.7962 10.0251 24.9517 9.14708 24.9517 8.216H23.4825ZM23.1093 10.3075C22.8603 10.9418 22.5146 11.482 22.0737 11.9366L23.1285 12.9594C23.7117 12.358 24.1606 11.6502 24.4769 10.8445L23.1093 10.3075ZM22.0737 11.9366C21.6356 12.3885 21.1048 12.7468 20.4717 13.0095L21.0346 14.3665C21.8415 14.0318 22.5427 13.5635 23.1285 12.9594L22.0737 11.9366ZM20.476 13.0077C19.8543 13.261 19.1526 13.3934 18.3611 13.3934V14.8626C19.319 14.8626 20.2119 14.7017 21.0303 14.3683L20.476 13.0077ZM18.3611 13.3934C17.5697 13.3934 16.8646 13.261 16.2365 13.007L15.6857 14.369C16.5083 14.7017 17.4032 14.8626 18.3611 14.8626V13.3934ZM16.2426 13.0095C15.6089 12.7466 15.0743 12.3874 14.6298 11.9339L13.5804 12.9621C14.1707 13.5646 14.8734 14.0321 15.6797 14.3665L16.2426 13.0095ZM14.6325 11.9366C14.1917 11.482 13.8459 10.9418 13.5969 10.3075L12.2293 10.8445C12.5457 11.6502 12.9946 12.358 13.5777 12.9594L14.6325 11.9366ZM13.5976 10.3093C13.3509 9.67626 13.2237 8.98092 13.2237 8.216H11.7545C11.7545 9.14708 11.91 10.0251 12.2287 10.8427L13.5976 10.3093ZM13.2237 8.216C13.2237 7.45101 13.3509 6.75905 13.5969 6.13245L12.2293 5.59554C11.91 6.40895 11.7545 7.28499 11.7545 8.216H13.2237ZM13.5976 6.13074C13.8468 5.4912 14.1926 4.94907 14.6325 4.49539L13.5777 3.4726C12.9937 4.07493 12.5448 4.78613 12.2287 5.59726L13.5976 6.13074ZM14.6298 4.49812C15.0733 4.04555 15.6064 3.68975 16.2383 3.43232L15.684 2.07168C14.8759 2.40091 14.1716 2.86645 13.5804 3.46988L14.6298 4.49812ZM16.2408 3.43128C16.8678 3.17312 17.5714 3.03861 18.3611 3.03861V1.56939C17.4015 1.56939 16.5051 1.73354 15.6814 2.07272L16.2408 3.43128ZM18.3611 3.03861C19.151 3.03861 19.8511 3.17315 20.4717 3.43055L21.0346 2.07345C20.2151 1.73352 19.3206 1.56939 18.3611 1.56939V3.03861ZM20.4717 3.43055C21.1048 3.69317 21.6356 4.05154 22.0737 4.5034L23.1285 3.4806C22.5427 2.87646 21.8415 2.40816 21.0346 2.07345L20.4717 3.43055ZM22.0764 4.50606C22.5146 4.95345 22.8596 5.49178 23.1087 6.13074L24.4776 5.59726C24.1613 4.78555 23.7116 4.07588 23.1259 3.47793L22.0764 4.50606ZM23.1093 6.13245C23.3553 6.75905 23.4825 7.45101 23.4825 8.216H24.9517C24.9517 7.28499 24.7963 6.40895 24.4769 5.59554L23.1093 6.13245ZM22.7437 8.216C22.7437 7.51631 22.6497 6.86623 22.4485 6.27526L21.0577 6.74874C21.1979 7.16043 21.2745 7.64636 21.2745 8.216H22.7437ZM22.4515 6.28411C22.2587 5.69317 21.9715 5.17146 21.5808 4.73441L20.4854 5.71359C20.7241 5.98054 20.9169 6.31749 21.0548 6.73989L22.4515 6.28411ZM21.5808 4.73441C21.1894 4.29657 20.7126 3.96392 20.1608 3.73672L19.6014 5.09528C19.9563 5.24141 20.2475 5.44743 20.4854 5.71359L21.5808 4.73441ZM20.1637 3.7379C19.6126 3.5083 19.0077 3.40139 18.3611 3.40139V4.87061C18.8453 4.87061 19.2536 4.95036 19.5986 5.0941L20.1637 3.7379ZM18.3611 3.40139C17.7144 3.40139 17.108 3.50836 16.5534 3.73672L17.1128 5.09528C17.4649 4.9503 17.8772 4.87061 18.3611 4.87061V3.40139ZM16.5534 3.73672C16.0027 3.9635 15.525 4.29487 15.1296 4.72985L16.2167 5.71815C16.4613 5.44913 16.7569 5.24183 17.1128 5.09528L16.5534 3.73672ZM15.1254 4.73441C14.7363 5.16971 14.4472 5.68907 14.249 6.2775L15.6413 6.7465C15.7844 6.3216 15.9806 5.98229 16.2208 5.71359L15.1254 4.73441ZM14.2497 6.27526C14.0485 6.86623 13.9545 7.51631 13.9545 8.216H15.4237C15.4237 7.64636 15.5004 7.16043 15.6405 6.74874L14.2497 6.27526ZM13.9545 8.216C13.9545 8.91589 14.0486 9.56765 14.249 10.1625L15.6413 9.6935C15.5003 9.27502 15.4237 8.78544 15.4237 8.216H13.9545ZM14.2497 10.1647C14.4483 10.7481 14.7375 11.2636 15.1254 11.6976L16.2208 10.7184C15.9794 10.4484 15.7833 10.1106 15.6405 9.69126L14.2497 10.1647ZM15.1333 11.7063C15.5287 12.1346 16.0052 12.4616 16.5534 12.6873L17.1128 11.3287C16.7544 11.1811 16.4576 10.9748 16.2129 10.7097L15.1333 11.7063ZM16.5534 12.6873C17.108 12.9156 17.7144 13.0226 18.3611 13.0226V11.5534C17.8772 11.5534 17.4649 11.4737 17.1128 11.3287L16.5534 12.6873ZM18.3611 13.0226C19.0077 13.0226 19.6126 12.9157 20.1637 12.6861L19.5986 11.3299C19.2536 11.4736 18.8453 11.5534 18.3611 11.5534V13.0226ZM20.1608 12.6873C20.71 12.4611 21.1857 12.1329 21.5771 11.7017L20.4892 10.7143C20.2512 10.9764 19.9589 11.1815 19.6014 11.3287L20.1608 12.6873ZM21.5808 11.6976C21.9703 11.2619 22.2576 10.744 22.4508 10.1581L21.0555 9.69792C20.918 10.1147 20.7253 10.4501 20.4854 10.7184L21.5808 11.6976ZM22.4493 10.1625C22.6497 9.56765 22.7437 8.91589 22.7437 8.216H21.2745C21.2745 8.78544 21.1979 9.27502 21.0569 9.6935L22.4493 10.1625ZM27.286 2.448L27.1652 3.17261L27.195 3.17757L27.225 3.18007L27.286 2.448ZM27.454 2.496L27.0972 3.13816L27.1379 3.16077L27.1812 3.17807L27.454 2.496ZM27.606 2.6L27.0866 3.11945L27.1018 3.13471L27.118 3.14905L27.606 2.6ZM27.766 2.776L28.3439 2.32243L28.3436 2.32214L27.766 2.776ZM33.838 10.512L33.2601 10.9656L34.8625 13.0071L34.5679 10.4286L33.838 10.512ZM33.79 9.968L33.0557 9.9896L33.056 10.001L33.0567 10.0124L33.79 9.968ZM33.782 2.432V1.69739H33.0474V2.432H33.782ZM35.678 2.432H36.4126V1.69739H35.678V2.432ZM35.678 14V14.7346H36.4126V14H35.678ZM33.814 13.632L34.3963 13.1841L34.3918 13.1784L33.814 13.632ZM27.766 5.928L28.3438 5.47438L26.8015 3.50969L27.0346 5.99657L27.766 5.928ZM27.798 6.44L27.0637 6.46294L27.0641 6.47513L27.0649 6.4873L27.798 6.44ZM27.814 14V14.7346H28.5486V14H27.814ZM25.918 14H25.1834V14.7346H25.918V14ZM25.918 2.432V1.69739H25.1834V2.432H25.918ZM27.046 3.16661C27.1188 3.16661 27.1552 3.17093 27.1652 3.17261L27.4068 1.72338C27.2888 1.70373 27.1652 1.69739 27.046 1.69739V3.16661ZM27.225 3.18007C27.2026 3.1782 27.1545 3.16997 27.0972 3.13816L27.8108 1.85384C27.6575 1.7687 27.4974 1.72846 27.347 1.71593L27.225 3.18007ZM27.1812 3.17807C27.1269 3.15637 27.0963 3.1292 27.0866 3.11945L28.1254 2.08055C28.0197 1.9748 27.8877 1.8783 27.7268 1.81393L27.1812 3.17807ZM27.118 3.14905C27.1219 3.15253 27.1452 3.1749 27.1884 3.22986L28.3436 2.32214C28.2695 2.22777 28.1861 2.1328 28.094 2.05095L27.118 3.14905ZM27.1881 3.22957L33.2601 10.9656L34.4159 10.0584L28.3439 2.32243L27.1881 3.22957ZM34.5679 10.4286C34.5479 10.254 34.5331 10.0857 34.5233 9.92356L33.0567 10.0124C33.0682 10.2023 33.0854 10.3966 33.1081 10.5954L34.5679 10.4286ZM34.5243 9.9464C34.5191 9.77108 34.5166 9.61037 34.5166 9.464H33.0474C33.0474 9.62697 33.0502 9.80226 33.0557 9.9896L34.5243 9.9464ZM34.5166 9.464V2.432H33.0474V9.464H34.5166ZM33.782 3.16661H35.678V1.69739H33.782V3.16661ZM34.9434 2.432V14H36.4126V2.432H34.9434ZM35.678 13.2654H34.566V14.7346H35.678V13.2654ZM34.566 13.2654C34.5182 13.2654 34.4866 13.2616 34.4682 13.2581C34.4501 13.2547 34.4485 13.2523 34.4578 13.2568L33.8262 14.5833C34.0666 14.6978 34.3248 14.7346 34.566 14.7346V13.2654ZM34.4578 13.2568C34.4725 13.2637 34.473 13.2668 34.4607 13.256C34.4482 13.245 34.4262 13.223 34.3963 13.1841L33.2317 14.0799C33.3818 14.275 33.5757 14.464 33.8262 14.5833L34.4578 13.2568ZM34.3918 13.1784L28.3438 5.47438L27.1882 6.38162L33.2362 14.0856L34.3918 13.1784ZM27.0346 5.99657C27.0492 6.15212 27.0589 6.30757 27.0637 6.46294L28.5323 6.41705C28.5264 6.23109 28.5148 6.04521 28.4974 5.85943L27.0346 5.99657ZM27.0649 6.4873C27.0748 6.6398 27.0794 6.77579 27.0794 6.896H28.5486C28.5486 6.73888 28.5426 6.57086 28.5311 6.3927L27.0649 6.4873ZM27.0794 6.896V14H28.5486V6.896H27.0794ZM27.814 13.2654H25.918V14.7346H27.814V13.2654ZM26.6526 14V2.432H25.1834V14H26.6526ZM25.918 3.16661H27.046V1.69739H25.918V3.16661ZM39.3158 1.744L39.9387 1.35466L39.6162 0.838727L39.0493 1.05943L39.3158 1.744ZM39.7238 2.64L39.0173 2.84184L39.0208 2.85339L39.7238 2.64ZM39.4518 5.064L38.8109 4.70484L38.8079 4.71025L39.4518 5.064ZM38.2918 6.408L37.909 7.03503L38.3515 7.30514L38.7543 6.97869L38.2918 6.408ZM37.6758 6.032L38.0585 5.40495L38.0537 5.40208L37.6758 6.032ZM37.5638 5.92L36.8925 6.21835L36.8992 6.2336L36.9067 6.24853L37.5638 5.92ZM37.6357 5.528L38.1552 6.04745L38.1737 6.02892L38.1909 6.00912L37.6357 5.528ZM37.8517 5.256L37.264 4.81522L37.2603 4.82023L37.8517 5.256ZM38.0677 4.912L38.7191 5.25186L38.7248 5.24053L38.0677 4.912ZM38.2197 4.496L37.5134 4.29419L37.51 4.30596L37.5071 4.31783L38.2197 4.496ZM38.1958 3.44L37.4887 3.63942L37.4901 3.64426L38.1958 3.44ZM37.8997 2.784L38.5284 2.4039L38.5166 2.3845L38.5037 2.36585L37.8997 2.784ZM38.1237 2.208L38.3673 2.90107L38.3788 2.89701L38.3902 2.89257L38.1237 2.208ZM38.6928 2.13334C38.8478 2.38137 38.9533 2.6174 39.0174 2.84181L40.4301 2.43819C40.3235 2.06526 40.157 1.70397 39.9387 1.35466L38.6928 2.13334ZM39.0208 2.85339C39.0914 3.08601 39.1251 3.31284 39.1251 3.536H40.5944C40.5944 3.16183 40.5374 2.79133 40.4267 2.42661L39.0208 2.85339ZM39.1251 3.536C39.1251 3.93804 39.0242 4.32431 38.8109 4.70485L40.0926 5.42315C40.4233 4.83302 40.5944 4.20063 40.5944 3.536H39.1251ZM38.8079 4.71025C38.5944 5.09879 38.2749 5.47607 37.8292 5.83731L38.7543 6.97869C39.322 6.5186 39.7757 5.99988 40.0956 5.41775L38.8079 4.71025ZM38.6745 5.78097L38.0585 5.40497L37.293 6.65903L37.909 7.03503L38.6745 5.78097ZM38.0537 5.40208C38.0844 5.42049 38.1633 5.47647 38.2208 5.59147L36.9067 6.24853C37.0069 6.44887 37.1604 6.57951 37.2978 6.66192L38.0537 5.40208ZM38.235 5.62165C38.2461 5.64642 38.2664 5.70302 38.2664 5.784H36.7971C36.7971 5.95032 36.8388 6.09758 36.8925 6.21835L38.235 5.62165ZM38.2664 5.784C38.2664 5.8186 38.2601 5.86693 38.2383 5.92049C38.2164 5.97453 38.1854 6.01725 38.1552 6.04745L37.1163 5.00855C36.9041 5.22072 36.7971 5.49512 36.7971 5.784H38.2664ZM38.1909 6.00912C38.275 5.91207 38.3591 5.80588 38.4432 5.69177L37.2603 4.82023C37.1951 4.90879 37.1352 4.98393 37.0806 5.04688L38.1909 6.00912ZM38.4394 5.69677C38.5442 5.55705 38.6373 5.40847 38.719 5.25181L37.4165 4.57219C37.3702 4.66086 37.3193 4.74161 37.2641 4.81523L38.4394 5.69677ZM38.7248 5.24053C38.8145 5.06113 38.8831 4.87161 38.9324 4.67417L37.5071 4.31783C37.4818 4.41906 37.449 4.50687 37.4107 4.58347L38.7248 5.24053ZM38.9261 4.69781C38.9893 4.47672 39.0184 4.24824 39.0184 4.016H37.5491C37.5491 4.12509 37.5356 4.21661 37.5134 4.29419L38.9261 4.69781ZM39.0184 4.016C39.0184 3.75535 38.9762 3.49422 38.9014 3.23574L37.4901 3.64426C37.5326 3.79111 37.5491 3.91398 37.5491 4.016H39.0184ZM38.9028 3.24058C38.8225 2.95606 38.6934 2.67675 38.5284 2.4039L37.2711 3.1641C37.3835 3.34992 37.4516 3.50794 37.4887 3.63942L38.9028 3.24058ZM38.5037 2.36585C38.515 2.38214 38.5304 2.40879 38.5427 2.4457C38.5552 2.48335 38.5624 2.52507 38.5624 2.568H37.0931C37.0931 2.81097 37.1741 3.02646 37.2958 3.20215L38.5037 2.36585ZM38.5624 2.568C38.5624 2.63494 38.5388 2.73189 38.4692 2.81655C38.4086 2.89021 38.3528 2.90616 38.3673 2.90107L37.8802 1.51492C37.6974 1.57917 37.4935 1.68979 37.3343 1.88345C37.166 2.08811 37.0931 2.3304 37.0931 2.568H38.5624ZM38.3902 2.89257L39.5822 2.42857L39.0493 1.05943L37.8573 1.52343L38.3902 2.89257ZM49.7575 2.432H50.4921V1.69739H49.7575V2.432ZM49.7575 4.2V4.93461H50.4921V4.2H49.7575ZM46.2775 4.2V3.46539H45.5429V4.2H46.2775ZM46.2775 14V14.7346H47.0121V14H46.2775ZM44.1255 14H43.3909V14.7346H44.1255V14ZM44.1255 4.2H44.8601V3.46539H44.1255V4.2ZM40.6295 4.2H39.8949V4.93461H40.6295V4.2ZM40.6295 2.432V1.69739H39.8949V2.432H40.6295ZM49.0229 2.432V4.2H50.4921V2.432H49.0229ZM49.7575 3.46539H46.2775V4.93461H49.7575V3.46539ZM45.5429 4.2V14H47.0121V4.2H45.5429ZM46.2775 13.2654H44.1255V14.7346H46.2775V13.2654ZM44.8601 14V4.2H43.3909V14H44.8601ZM44.1255 3.46539H40.6295V4.93461H44.1255V3.46539ZM41.3641 4.2V2.432H39.8949V4.2H41.3641ZM40.6295 3.16661H49.7575V1.69739H40.6295V3.16661ZM3.392 28.928V28.1934H2.65739V28.928H3.392ZM3.392 33V33.7346H4.12661V33H3.392ZM1.24 33H0.505391V33.7346H1.24V33ZM1.24 21.432V20.6974H0.505391V21.432H1.24ZM9.232 23.632L8.54719 23.8979L9.232 23.632ZM9.216 26.664L9.89753 26.9382L9.8986 26.9355L9.216 26.664ZM8.376 27.864L8.86743 28.41L8.376 27.864ZM3.392 27.248H2.65739V27.9826H3.392V27.248ZM6.04 27.104L6.26852 27.8023L6.27987 27.7983L6.04 27.104ZM6.768 26.68L7.27245 27.2141L7.28008 27.2067L6.768 26.68ZM7.2 26.008L7.88957 26.2613L7.89118 26.2568L7.2 26.008ZM7.2 24.28L6.51398 24.5427L7.2 24.28ZM6.768 23.64L6.27161 24.1815L6.27161 24.1815L6.768 23.64ZM6.04 23.24L5.81148 23.9383L5.82307 23.9418L6.04 23.24ZM3.392 23.096V22.3614H2.65739V23.096H3.392ZM2.65739 28.928V33H4.12661V28.928H2.65739ZM3.392 32.2654H1.24V33.7346H3.392V32.2654ZM1.97461 33V21.432H0.505391V33H1.97461ZM1.24 22.1666H5.008V20.6974H1.24V22.1666ZM5.008 22.1666C5.72689 22.1666 6.31694 22.2512 6.79163 22.4035L7.24037 21.0045C6.58439 20.7941 5.83578 20.6974 5.008 20.6974V22.1666ZM6.79163 22.4035C7.27997 22.5601 7.65174 22.7689 7.92944 23.0144L8.90256 21.9136C8.44426 21.5085 7.8827 21.2105 7.24037 21.0045L6.79163 22.4035ZM7.92944 23.0144C8.21052 23.2629 8.41406 23.555 8.54719 23.8979L9.91681 23.3661C9.69794 22.8024 9.35748 22.3158 8.90256 21.9136L7.92944 23.0144ZM8.54719 23.8979C8.68691 24.2578 8.76139 24.6625 8.76139 25.12H10.2306C10.2306 24.5002 10.1291 23.9129 9.91681 23.3661L8.54719 23.8979ZM8.76139 25.12C8.76139 25.5971 8.68216 26.0185 8.5334 26.3925L9.8986 26.9355C10.1232 26.3708 10.2306 25.7629 10.2306 25.12H8.76139ZM8.53447 26.3898C8.3898 26.7494 8.17501 27.0566 7.88457 27.318L8.86743 28.41C9.32366 27.9994 9.66887 27.5066 9.89753 26.9382L8.53447 26.3898ZM7.88457 27.318C7.59831 27.5756 7.22445 27.7908 6.7437 27.9511L7.2083 29.3449C7.84755 29.1318 8.40703 28.8244 8.86743 28.41L7.88457 27.318ZM6.7437 27.9511C6.27589 28.107 5.70161 28.1934 5.008 28.1934V29.6626C5.81839 29.6626 6.55611 29.5623 7.2083 29.3449L6.7437 27.9511ZM5.008 28.1934H3.392V29.6626H5.008V28.1934ZM3.392 27.9826H5.008V26.5134H3.392V27.9826ZM5.008 27.9826C5.45975 27.9826 5.88414 27.928 6.26849 27.8022L5.81151 26.4058C5.6092 26.472 5.34558 26.5134 5.008 26.5134V27.9826ZM6.27987 27.7983C6.65467 27.6689 6.99248 27.4784 7.2724 27.2141L6.2636 26.1459C6.15952 26.2442 6.01199 26.3365 5.80014 26.4097L6.27987 27.7983ZM7.28008 27.2067C7.55412 26.9403 7.75717 26.6217 7.88956 26.2613L6.51044 25.7547C6.45083 25.917 6.36588 26.0464 6.25592 26.1533L7.28008 27.2067ZM7.89118 26.2568C8.01982 25.8995 8.07861 25.5178 8.07861 25.12H6.60939C6.60939 25.3729 6.57218 25.5832 6.50882 25.7592L7.89118 26.2568ZM8.07861 25.12C8.07861 24.7344 8.01864 24.3636 7.88602 24.0173L6.51398 24.5427C6.57336 24.6978 6.60939 24.887 6.60939 25.12H8.07861ZM7.88602 24.0173C7.75057 23.6636 7.54297 23.3538 7.26439 23.0985L6.27161 24.1815C6.37703 24.2782 6.45743 24.3951 6.51398 24.5427L7.88602 24.0173ZM7.26439 23.0985C6.97917 22.837 6.63573 22.6552 6.25693 22.5382L5.82307 23.9418C6.03094 24.0061 6.17283 24.091 6.27161 24.1815L7.26439 23.0985ZM6.26849 22.5418C5.88414 22.416 5.45975 22.3614 5.008 22.3614V23.8306C5.34558 23.8306 5.6092 23.872 5.81151 23.9382L6.26849 22.5418ZM5.008 22.3614H3.392V23.8306H5.008V22.3614ZM2.65739 23.096V27.248H4.12661V23.096H2.65739ZM20.1016 33V33.7346H21.1794L20.7854 32.7314L20.1016 33ZM17.9736 32.864L17.5084 33.4326L17.5224 33.444L17.537 33.4548L17.9736 32.864ZM17.7176 32.512L17.0277 32.7646L17.032 32.7757L17.7176 32.512ZM16.8536 30.152L17.5435 29.8995L17.367 29.4174H16.8536V30.152ZM12.0616 30.152V29.4174H11.5483L11.3718 29.8995L12.0616 30.152ZM11.1976 32.512L10.5077 32.2594L10.5038 32.2707L11.1976 32.512ZM10.9416 32.848L10.4857 32.272L10.4797 32.2768L10.4738 32.2816L10.9416 32.848ZM8.81363 33L8.12988 32.7314L7.73581 33.7346H8.81363V33ZM13.3576 21.432V20.6974H12.8569L12.6739 21.1634L13.3576 21.432ZM15.5576 21.432L16.2414 21.1634L16.0583 20.6974H15.5576V21.432ZM12.6136 28.632L11.9241 28.3786L11.5611 29.3666H12.6136V28.632ZM16.3016 28.632V29.3666H17.3527L16.9915 28.3796L16.3016 28.632ZM14.8936 24.784L15.5835 24.5316L15.5815 24.5261L14.8936 24.784ZM14.6776 24.184L13.9776 24.4067L13.9807 24.4164L13.984 24.426L14.6776 24.184ZM14.4536 23.424L15.162 23.2295L14.4536 20.6489L13.7452 23.2295L14.4536 23.424ZM14.2296 24.184L13.5296 23.9613L13.5273 23.9685L13.5251 23.9759L14.2296 24.184ZM14.0216 24.8L13.3381 24.5307L13.335 24.5387L13.3321 24.5466L14.0216 24.8ZM20.1016 32.2654H18.4376V33.7346H20.1016V32.2654ZM18.4376 32.2654C18.4034 32.2654 18.3888 32.2612 18.3882 32.261C18.388 32.261 18.3906 32.2617 18.3951 32.2639C18.3996 32.2662 18.4049 32.2693 18.4103 32.2732L17.537 33.4548C17.8121 33.6581 18.1297 33.7346 18.4376 33.7346V32.2654ZM18.4388 32.2954C18.4181 32.2785 18.4099 32.2654 18.4033 32.2483L17.032 32.7757C17.1321 33.0359 17.2945 33.2575 17.5084 33.4326L18.4388 32.2954ZM18.4075 32.2594L17.5435 29.8995L16.1638 30.4045L17.0278 32.7645L18.4075 32.2594ZM16.8536 29.4174H12.0616V30.8866H16.8536V29.4174ZM11.3718 29.8995L10.5078 32.2594L11.8875 32.7645L12.7515 30.4045L11.3718 29.8995ZM10.5038 32.2707C10.5068 32.2621 10.51 32.2553 10.5127 32.2502C10.5141 32.2478 10.5152 32.2459 10.516 32.2446C10.5168 32.2434 10.5173 32.2428 10.5173 32.2428C10.5171 32.243 10.509 32.2535 10.4857 32.272L11.3976 33.424C11.6071 33.2581 11.7925 33.038 11.8915 32.7533L10.5038 32.2707ZM10.4738 32.2816C10.4776 32.2785 10.4826 32.275 10.4884 32.2717C10.4943 32.2685 10.4995 32.2664 10.5033 32.2651C10.5114 32.2624 10.5076 32.2654 10.4856 32.2654V33.7346C10.8125 33.7346 11.1369 33.6395 11.4095 33.4144L10.4738 32.2816ZM10.4856 32.2654H8.81363V33.7346H10.4856V32.2654ZM9.49738 33.2686L14.0414 21.7006L12.6739 21.1634L8.12988 32.7314L9.49738 33.2686ZM13.3576 22.1666H15.5576V20.6974H13.3576V22.1666ZM14.8739 21.7006L19.4179 33.2686L20.7854 32.7314L16.2414 21.1634L14.8739 21.7006ZM12.6136 29.3666H16.3016V27.8974H12.6136V29.3666ZM16.9915 28.3796L15.5835 24.5316L14.2037 25.0364L15.6117 28.8844L16.9915 28.3796ZM15.5815 24.5261C15.52 24.3621 15.4499 24.1677 15.3712 23.942L13.984 24.426C14.0653 24.659 14.1393 24.8646 14.2058 25.0419L15.5815 24.5261ZM15.3777 23.9613C15.3064 23.7372 15.2345 23.4934 15.162 23.2295L13.7452 23.6185C13.8221 23.8986 13.8996 24.1615 13.9776 24.4067L15.3777 23.9613ZM13.7452 23.2295C13.6728 23.4934 13.6009 23.7372 13.5296 23.9613L14.9297 24.4067C15.0077 24.1615 15.0851 23.8986 15.162 23.6185L13.7452 23.2295ZM13.5251 23.9759C13.4602 24.1955 13.3977 24.3796 13.3381 24.5307L14.7051 25.0693C14.7842 24.8684 14.8604 24.6418 14.9341 24.3921L13.5251 23.9759ZM13.3321 24.5466L11.9241 28.3786L13.3032 28.8854L14.7112 25.0534L13.3321 24.5466ZM22.661 21.448L22.5402 22.1726L22.57 22.1776L22.6 22.1801L22.661 21.448ZM22.829 21.496L22.4722 22.1382L22.5129 22.1608L22.5562 22.1781L22.829 21.496ZM22.981 21.6L22.4616 22.1194L22.4768 22.1347L22.493 22.1491L22.981 21.6ZM23.141 21.776L23.7189 21.3224L23.7186 21.3221L23.141 21.776ZM29.213 29.512L28.6351 29.9656L30.2375 32.0071L29.9429 29.4286L29.213 29.512ZM29.165 28.968L28.4307 28.9896L28.431 29.001L28.4317 29.0124L29.165 28.968ZM29.157 21.432V20.6974H28.4224V21.432H29.157ZM31.053 21.432H31.7876V20.6974H31.053V21.432ZM31.053 33V33.7346H31.7876V33H31.053ZM29.189 32.632L29.7713 32.1841L29.7668 32.1784L29.189 32.632ZM23.141 24.928L23.7188 24.4744L22.1765 22.5097L22.4096 24.9966L23.141 24.928ZM23.173 25.44L22.4387 25.4629L22.4391 25.4751L22.4399 25.4873L23.173 25.44ZM23.189 33V33.7346H23.9236V33H23.189ZM21.293 33H20.5584V33.7346H21.293V33ZM21.293 21.432V20.6974H20.5584V21.432H21.293ZM22.421 22.1666C22.4938 22.1666 22.5302 22.1709 22.5402 22.1726L22.7818 20.7234C22.6638 20.7037 22.5402 20.6974 22.421 20.6974V22.1666ZM22.6 22.1801C22.5776 22.1782 22.5295 22.17 22.4722 22.1382L23.1858 20.8538C23.0325 20.7687 22.8724 20.7285 22.722 20.7159L22.6 22.1801ZM22.5562 22.1781C22.5019 22.1564 22.4713 22.1292 22.4616 22.1194L23.5004 21.0806C23.3947 20.9748 23.2627 20.8783 23.1018 20.8139L22.5562 22.1781ZM22.493 22.1491C22.4969 22.1525 22.5202 22.1749 22.5634 22.2299L23.7186 21.3221C23.6445 21.2278 23.5611 21.1328 23.469 21.0509L22.493 22.1491ZM22.5631 22.2296L28.6351 29.9656L29.7909 29.0584L23.7189 21.3224L22.5631 22.2296ZM29.9429 29.4286C29.9229 29.254 29.9081 29.0857 29.8983 28.9236L28.4317 29.0124C28.4432 29.2023 28.4604 29.3966 28.4831 29.5954L29.9429 29.4286ZM29.8993 28.9464C29.8941 28.7711 29.8916 28.6104 29.8916 28.464H28.4224C28.4224 28.627 28.4252 28.8023 28.4307 28.9896L29.8993 28.9464ZM29.8916 28.464V21.432H28.4224V28.464H29.8916ZM29.157 22.1666H31.053V20.6974H29.157V22.1666ZM30.3184 21.432V33H31.7876V21.432H30.3184ZM31.053 32.2654H29.941V33.7346H31.053V32.2654ZM29.941 32.2654C29.8932 32.2654 29.8616 32.2616 29.8432 32.2581C29.8251 32.2547 29.8235 32.2523 29.8328 32.2567L29.2012 33.5832C29.4416 33.6978 29.6998 33.7346 29.941 33.7346V32.2654ZM29.8328 32.2567C29.8475 32.2637 29.848 32.2668 29.8357 32.256C29.8232 32.245 29.8012 32.223 29.7713 32.1841L28.6067 33.0799C28.7568 33.275 28.9507 33.464 29.2012 33.5832L29.8328 32.2567ZM29.7668 32.1784L23.7188 24.4744L22.5632 25.3816L28.6112 33.0856L29.7668 32.1784ZM22.4096 24.9966C22.4242 25.1521 22.4339 25.3076 22.4387 25.4629L23.9073 25.4171C23.9014 25.2311 23.8898 25.0452 23.8724 24.8594L22.4096 24.9966ZM22.4399 25.4873C22.4498 25.6398 22.4544 25.7758 22.4544 25.896H23.9236C23.9236 25.7389 23.9176 25.5709 23.9061 25.3927L22.4399 25.4873ZM22.4544 25.896V33H23.9236V25.896H22.4544ZM23.189 32.2654H21.293V33.7346H23.189V32.2654ZM22.0276 33V21.432H20.5584V33H22.0276ZM21.293 22.1666H22.421V20.6974H21.293V22.1666ZM35.8107 33V33.7346H36.5454V33H35.8107ZM33.6507 33H32.9161V33.7346H33.6507V33ZM33.6507 21.432V20.6974H32.9161V21.432H33.6507ZM35.8107 21.432H36.5454V20.6974H35.8107V21.432ZM35.8107 32.2654H33.6507V33.7346H35.8107V32.2654ZM34.3854 33V21.432H32.9161V33H34.3854ZM33.6507 22.1666H35.8107V20.6974H33.6507V22.1666ZM35.0761 21.432V33H36.5454V21.432H35.0761ZM46.674 30.408L47.2142 29.9101L47.2089 29.9045L46.674 30.408ZM47.522 31.328L48.0936 31.7895L48.4918 31.2962L48.0622 30.8301L47.522 31.328ZM45.786 32.664L45.4848 31.994L45.4828 31.9949L45.786 32.664ZM41.002 32.688L40.712 33.3629L40.7139 33.3638L41.002 32.688ZM39.25 31.464L38.7117 31.9639L39.25 31.464ZM38.13 29.592L37.4373 29.8365L37.4389 29.841L38.13 29.592ZM38.178 24.832L38.8601 25.1048L38.8608 25.1031L38.178 24.832ZM39.394 22.96L38.8746 22.4406L39.394 22.96ZM41.266 21.744L41.5371 22.4268L41.5397 22.4257L41.266 21.744ZM45.93 21.72L45.6379 22.3941L45.6447 22.3969L45.93 21.72ZM47.586 22.808L48.1822 23.2372L48.5493 22.7273L48.1024 22.2855L47.586 22.808ZM46.866 23.808L46.2698 23.3788L46.2621 23.3895L46.2548 23.4005L46.866 23.808ZM46.698 23.976L46.2799 23.372L46.2684 23.3799L46.2572 23.3883L46.698 23.976ZM46.05 23.904L45.6092 24.4917V24.4917L46.05 23.904ZM45.562 23.592L45.1994 24.2309L45.1994 24.2309L45.562 23.592ZM44.81 23.28L44.5852 23.9794L44.5888 23.9805L44.81 23.28ZM42.162 23.424L42.4417 24.1033L42.4457 24.1016L42.162 23.424ZM40.986 24.232L40.4506 23.729L40.4465 23.7334L40.986 24.232ZM40.218 25.52L39.5287 25.266L39.5272 25.2701L40.218 25.52ZM40.218 28.952L39.5263 29.1995L39.5287 29.206L40.218 28.952ZM42.082 31.032L41.7875 31.7051L41.7947 31.7081L42.082 31.032ZM44.25 31.256L44.1529 30.5278L44.1507 30.5281L44.25 31.256ZM44.906 31.104L44.6682 30.4089L44.6625 30.4109L44.906 31.104ZM45.474 30.84L45.8548 31.4683L45.86 31.465L45.474 30.84ZM46.01 30.432L45.5186 29.886L45.5159 29.8884L46.01 30.432ZM46.178 30.32L46.482 30.9888L46.5063 30.9777L46.5298 30.9649L46.178 30.32ZM46.37 31.0066C46.3313 31.0066 46.283 30.9985 46.234 30.9766C46.1859 30.9551 46.1548 30.9282 46.1391 30.9115L47.2089 29.9045C46.9943 29.6765 46.7034 29.5374 46.37 29.5374V31.0066ZM46.1338 30.9059L46.9818 31.8259L48.0622 30.8301L47.2142 29.9101L46.1338 30.9059ZM46.9504 30.8665C46.5543 31.3572 46.0686 31.7315 45.4848 31.994L46.0872 33.334C46.8794 32.9778 47.551 32.4615 48.0936 31.7895L46.9504 30.8665ZM45.4828 31.9949C44.9182 32.2507 44.2057 32.3934 43.322 32.3934V33.8626C44.3583 33.8626 45.2885 33.6959 46.0892 33.3331L45.4828 31.9949ZM43.322 32.3934C42.5478 32.3934 41.8745 32.2614 41.2901 32.0122L40.7139 33.3638C41.5055 33.7013 42.3789 33.8626 43.322 33.8626V32.3934ZM41.292 32.0131C40.6994 31.7584 40.2011 31.4086 39.7883 30.9641L38.7117 31.9639C39.2696 32.5647 39.9393 33.0309 40.712 33.3629L41.292 32.0131ZM39.7883 30.9641C39.3756 30.5196 39.0517 29.9829 38.8211 29.343L37.4389 29.841C37.731 30.6518 38.1538 31.363 38.7117 31.9639L39.7883 30.9641ZM38.8227 29.3475C38.5975 28.7093 38.4806 28.001 38.4806 27.216H37.0114C37.0114 28.1483 37.1505 29.024 37.4373 29.8365L38.8227 29.3475ZM38.4806 27.216C38.4806 26.4288 38.6107 25.7282 38.8601 25.1048L37.4959 24.5592C37.1693 25.3758 37.0114 26.2645 37.0114 27.216H38.4806ZM38.8608 25.1031C39.1139 24.4655 39.4655 23.9274 39.9134 23.4794L38.8746 22.4406C38.2772 23.0379 37.8181 23.7478 37.4952 24.5609L38.8608 25.1031ZM39.9134 23.4794C40.3614 23.0315 40.8995 22.6799 41.5371 22.4268L40.9949 21.0612C40.1818 21.3841 39.4719 21.8432 38.8746 22.4406L39.9134 23.4794ZM41.5397 22.4257C42.1737 22.1712 42.8848 22.0386 43.682 22.0386V20.5694C42.7192 20.5694 41.8197 20.7301 40.9923 21.0623L41.5397 22.4257ZM43.682 22.0386C44.4628 22.0386 45.1088 22.1648 45.6379 22.394L46.2221 21.046C45.4712 20.7206 44.6186 20.5694 43.682 20.5694V22.0386ZM45.6447 22.3969C46.2113 22.6358 46.6829 22.9483 47.0696 23.3305L48.1024 22.2855C47.5717 21.761 46.9394 21.3482 46.2153 21.0431L45.6447 22.3969ZM46.9898 22.3788L46.2698 23.3788L47.4622 24.2372L48.1822 23.2372L46.9898 22.3788ZM46.2548 23.4005C46.2611 23.3911 46.2674 23.3837 46.2726 23.3786C46.2776 23.3735 46.2806 23.3715 46.2799 23.372L47.1162 24.58C47.2543 24.4843 47.3784 24.3637 47.4772 24.2155L46.2548 23.4005ZM46.2572 23.3883C46.3127 23.3467 46.3635 23.3279 46.394 23.3198C46.4231 23.3121 46.4363 23.3134 46.426 23.3134V24.7826C46.6312 24.7826 46.9005 24.7424 47.1388 24.5637L46.2572 23.3883ZM46.426 23.3134C46.4626 23.3134 46.4894 23.3209 46.5027 23.326C46.5145 23.3305 46.5104 23.331 46.4908 23.3163L45.6092 24.4917C45.8257 24.654 46.102 24.7826 46.426 24.7826V23.3134ZM46.4908 23.3163C46.3299 23.1957 46.1388 23.0747 45.9246 22.9531L45.1994 24.2309C45.3798 24.3333 45.5141 24.4203 45.6092 24.4917L46.4908 23.3163ZM45.9246 22.9531C45.6685 22.8078 45.3663 22.6853 45.0312 22.5795L44.5888 23.9805C44.8617 24.0667 45.0608 24.1522 45.1994 24.2309L45.9246 22.9531ZM45.0348 22.5806C44.6377 22.453 44.1734 22.4014 43.666 22.4014V23.8706C44.0866 23.8706 44.385 23.915 44.5852 23.9794L45.0348 22.5806ZM43.666 22.4014C43.0338 22.4014 42.435 22.5134 41.8783 22.7464L42.4457 24.1016C42.8064 23.9506 43.2102 23.8706 43.666 23.8706V22.4014ZM41.8823 22.7447C41.3336 22.9706 40.8541 23.2995 40.4506 23.729L41.5214 24.735C41.7793 24.4605 42.0837 24.2507 42.4417 24.1033L41.8823 22.7447ZM40.4465 23.7334C40.0479 24.1647 39.7445 24.6802 39.5287 25.266L40.9073 25.774C41.0648 25.3465 41.2735 25.0033 41.5255 24.7306L40.4465 23.7334ZM39.5272 25.2701C39.3122 25.8646 39.2114 26.5165 39.2114 27.216H40.6806C40.6806 26.6568 40.7612 26.1781 40.9088 25.7699L39.5272 25.2701ZM39.2114 27.216C39.2114 27.9339 39.3113 28.5988 39.5264 29.1995L40.9096 28.7045C40.762 28.2919 40.6806 27.7994 40.6806 27.216H39.2114ZM39.5287 29.206C39.743 29.7877 40.039 30.2994 40.4261 30.7257L41.5139 29.7383C41.2716 29.4713 41.0663 29.1296 40.9073 28.698L39.5287 29.206ZM40.4261 30.7257C40.8099 31.1487 41.2655 31.4766 41.7876 31.705L42.3764 30.359C42.0452 30.214 41.7594 30.0087 41.5139 29.7383L40.4261 30.7257ZM41.7947 31.7081C42.3174 31.9303 42.8745 32.0386 43.458 32.0386V30.5694C43.0602 30.5694 42.6999 30.4964 42.3693 30.3559L41.7947 31.7081ZM43.458 32.0386C43.7771 32.0386 44.075 32.0213 44.3493 31.9839L44.1507 30.5281C43.9556 30.5547 43.7256 30.5694 43.458 30.5694V32.0386ZM44.3471 31.9842C44.6294 31.9465 44.898 31.8855 45.1495 31.7971L44.6625 30.4109C44.5194 30.4612 44.3506 30.5015 44.1529 30.5278L44.3471 31.9842ZM45.1438 31.7991C45.3943 31.7133 45.6318 31.6033 45.8548 31.4682L45.0933 30.2118C44.9642 30.29 44.823 30.356 44.6682 30.4089L45.1438 31.7991ZM45.86 31.465C46.084 31.3267 46.2985 31.1625 46.5042 30.9756L45.5159 29.8884C45.3695 30.0215 45.2267 30.1293 45.088 30.215L45.86 31.465ZM46.5014 30.978C46.5052 30.9746 46.499 30.981 46.482 30.9888L45.874 29.6512C45.7397 29.7123 45.6215 29.7934 45.5186 29.886L46.5014 30.978ZM46.5298 30.9649C46.4764 30.994 46.4188 31.0066 46.37 31.0066V29.5374C46.1825 29.5374 45.9969 29.582 45.8262 29.6751L46.5298 30.9649Z" fill="url(#paint0_linear)"/>
<defs>
<linearGradient id="paint0_linear" x1="2.31439" y1="31.7273" x2="42.7399" y2="47.986" gradientUnits="userSpaceOnUse">
<stop stop-color="#6271FF"/>
<stop offset="0.976709" stop-color="#EFC0FF"/>
</linearGradient>
</defs>
</svg>
