<svg width="19" height="19" viewBox="0 0 19 19" fill="none" xmlns="http://www.w3.org/2000/svg">
<g clip-path="url(#clip0)">
<path d="M18.436 9.79163C18.436 4.82106 14.4066 0.791626 9.43604 0.791626C4.46547 0.791626 0.436035 4.82106 0.436035 9.79163C0.436035 14.2837 3.72719 18.0071 8.02979 18.6823V12.3932H5.74463V9.79163H8.02979V7.80881C8.02979 5.55319 9.37346 4.30725 11.4292 4.30725C12.4139 4.30725 13.4438 4.48303 13.4438 4.48303V6.69788H12.309C11.191 6.69788 10.8423 7.39168 10.8423 8.10342V9.79163H13.3384L12.9394 12.3932H10.8423V18.6823C15.1449 18.0071 18.436 14.2837 18.436 9.79163Z" fill="#1877F2"/>
<path d="M12.9394 12.3932L13.3384 9.79163H10.8423V8.10342C10.8423 7.39168 11.191 6.69788 12.309 6.69788H13.4438V4.48303C13.4438 4.48303 12.4139 4.30725 11.4292 4.30725C9.37346 4.30725 8.02979 5.55319 8.02979 7.80881V9.79163H5.74463V12.3932H8.02979V18.6823C8.48805 18.7542 8.95756 18.7916 9.43604 18.7916C9.91451 18.7916 10.384 18.7542 10.8423 18.6823V12.3932H12.9394Z" fill="white"/>
</g>
<defs>
<clipPath id="clip0">
<rect width="18" height="18" fill="white" transform="translate(0.436035 0.791626)"/>
</clipPath>
</defs>
</svg>
