<svg width="10" height="12" viewBox="0 0 10 12" fill="none" xmlns="http://www.w3.org/2000/svg">
<path d="M7.59157 3.685L9.07025 0.765C9.15006 0.61 9.15006 0.42 9.07445 0.26C8.99883 0.105 8.86021 0.00500003 8.70898 0.00500003H2.22997C2.22997 0.00500003 1.31139 0 1.08035 0C0.849307 0 0.660271 0.225 0.660271 0.5V0.505L0.660156 5.15115L0.660271 11.5C0.660271 11.775 0.849307 12 1.08035 12C1.31139 12 1.50043 11.775 1.50043 11.5V7.4H8.70898C8.86021 7.4 8.99883 7.305 9.07445 7.145C9.15006 6.99 9.14586 6.795 9.07025 6.64L7.59157 3.685ZM1.50043 6.4V1.01H7.96544L6.73881 3.43C6.659 3.59 6.659 3.785 6.73881 3.945L7.96964 6.405H1.50043V6.4Z" fill="#1F1F3D"/>
</svg>
