<svg width="18" height="18" viewBox="0 0 18 18" fill="none" xmlns="http://www.w3.org/2000/svg">
<g clip-path="url(#clip0)">
<path d="M3.6974 5.30193C3.67466 5.30193 3.65192 5.30193 3.62918 5.29435L1.47651 4.89256C1.27185 4.85465 1.13542 4.65755 1.17331 4.45286C1.21121 4.24818 1.41587 4.11172 1.61295 4.14963L3.76562 4.55142C3.97027 4.58932 4.10671 4.78643 4.06881 4.99111C4.03849 5.18063 3.87932 5.30193 3.6974 5.30193Z" fill="#1F1A36"/>
<path d="M1.17319 7.03039C0.96853 7.03039 0.801774 6.87119 0.794194 6.65892C0.786614 6.44666 0.953374 6.2723 1.16561 6.2723L3.35618 6.21165H3.36376C3.56841 6.21165 3.73517 6.37085 3.74275 6.58311C3.75033 6.79538 3.58357 6.96974 3.37134 6.96974L1.18077 7.03039H1.17319Z" fill="#1F1A36"/>
<path d="M4.99295 2.07245C4.91715 2.07245 4.83378 2.04971 4.76556 1.99664L2.97672 0.685143C2.80996 0.563848 2.77206 0.321258 2.89334 0.154477C3.0222 -0.0123036 3.25717 -0.0502088 3.42393 0.0710862L5.21277 1.38259C5.37952 1.50388 5.41742 1.74647 5.29615 1.91325C5.22793 2.01939 5.10665 2.07245 4.99295 2.07245Z" fill="#1F1A36"/>
<path d="M4.2501 3.49009C4.20462 3.49009 4.15156 3.48251 4.10608 3.45977L2.02163 2.60312C1.83213 2.51973 1.73359 2.29988 1.81697 2.11036C1.90035 1.92084 2.12017 1.82229 2.30966 1.90568L4.39412 2.76232C4.58361 2.84571 4.68215 3.06556 4.59877 3.25508C4.53814 3.39912 4.4017 3.49009 4.2501 3.49009Z" fill="#1F1A36"/>
<path d="M16.7651 6.59828C16.3558 6.31778 15.6357 6.17374 14.8323 6.62102C14.3775 6.87119 14.0136 7.21233 13.718 7.57622C13.6725 7.2275 13.6271 6.71199 13.6271 6.04487C13.6271 4.63482 13.9303 3.53558 14.0743 3.22476C14.1501 3.06556 14.3699 2.51973 14.1273 2.04213C14.0288 1.83745 13.8014 1.57212 13.3011 1.46598C13.2481 1.4584 13.195 1.45082 13.1268 1.45082C13.142 1.35985 13.142 1.26888 13.1268 1.17791C13.0813 0.889831 12.9221 0.63208 12.6796 0.4653C12.3688 0.245452 12.005 0.199967 11.6336 0.328843C11.3304 0.434976 11.0423 0.654824 10.7619 0.9429C10.6785 0.7837 10.5572 0.632079 10.3602 0.55627C10.2995 0.533527 9.7765 0.344003 9.13222 0.662403C8.77597 0.836764 8.45761 1.14 8.19232 1.54179C8.02556 1.4205 7.80575 1.35227 7.54045 1.40533C6.45654 1.64034 5.63034 3.76301 5.08459 7.72026C4.15985 14.4597 6.22156 16.4232 8.1241 17.386C8.9882 17.8181 9.65523 18 10.2313 18C11.0878 18 11.7548 17.6134 12.581 17.0751C12.6493 17.0221 14.2562 15.6651 14.5973 13.8911C15.4235 9.5321 16.2724 8.68303 16.7348 8.22818C16.9394 8.02349 17.1365 7.82639 17.1972 7.45492C17.2502 7.13653 17.0835 6.81813 16.7651 6.59828ZM16.2042 7.68993C15.6888 8.20544 14.7337 9.16063 13.862 13.7471C13.574 15.2405 12.1414 16.4611 12.1414 16.4611C10.9665 17.2192 10.3147 17.6361 8.47278 16.7037C7.30548 16.1124 4.87236 14.8842 5.84257 7.81881C6.51718 2.88362 7.47982 2.23166 7.66173 2.15585C7.68447 2.14827 7.69205 2.14069 7.71479 2.14069C7.85123 2.17101 7.76027 2.33021 7.69205 2.51973C7.60109 2.74716 7.52529 2.98975 7.44949 3.25508C6.66119 6.12826 6.74457 8.2206 6.75215 8.31157L7.51013 8.28125C7.51013 8.2585 7.42676 6.21165 8.18474 3.45977C8.56373 2.06488 9.08674 1.54179 9.45815 1.35227C9.80682 1.17033 10.0342 1.20823 10.0797 1.2613C10.1631 1.32194 10.1858 1.51147 10.1707 1.70099C9.64765 2.46667 9.22318 3.39154 9.00336 4.11173C8.43488 5.96148 8.47278 8.21302 8.47278 8.30399L9.23076 8.28883C9.23076 8.26608 9.20044 6.06003 9.73103 4.33158C10.1403 2.98975 11.1333 1.30678 11.8989 1.04903C12.0429 1.00355 12.149 1.01113 12.2627 1.08694C12.3309 1.14 12.384 1.21581 12.3915 1.29162C12.4067 1.36743 12.3764 1.45082 12.3157 1.52663C11.914 2.03455 11.6108 2.65619 11.3834 3.31573C11.1788 3.82365 11.0196 4.38464 10.9438 4.9608C10.9286 5.05935 10.9211 5.14274 10.9059 5.23371C10.7619 6.10552 10.7088 6.93184 10.6937 7.56106C10.6633 8.36464 10.7012 8.75126 10.7088 8.77401L11.0954 8.72852L11.4668 8.70578C11.4668 8.69062 11.4365 8.11447 11.4668 7.28814C11.4971 6.80296 11.5502 6.17374 11.6487 5.41565C11.7397 4.81676 11.8837 4.19512 12.0808 3.61139C12.3385 2.97459 12.6568 2.48941 12.9297 2.29989C12.9828 2.26198 13.0813 2.20134 13.1495 2.2165C13.3087 2.24682 13.4072 2.30747 13.4527 2.39086C13.5209 2.5349 13.4527 2.78507 13.3921 2.91394C13.1798 3.36122 12.8691 4.56659 12.8691 6.06003C12.8691 6.947 12.9979 7.93252 13.0965 8.56932C12.9525 8.8574 12.8463 9.12273 12.7781 9.31225C12.2248 9.26677 11.0878 9.23644 10.254 9.72162C9.17012 10.3584 8.38181 11.7306 8.34391 11.7836L9.00336 12.1627C9.01094 12.1475 9.73103 10.9118 10.6406 10.3736C11.5199 9.85808 12.9752 10.0931 12.9828 10.0931L13.3239 10.1462L13.4072 9.80501C13.4148 9.78985 13.8696 8.01591 15.1885 7.28056C15.5675 7.06829 15.9616 7.03039 16.2497 7.16685C16.3937 7.24266 16.4392 7.32605 16.4392 7.33363C16.4316 7.45493 16.3937 7.50799 16.2042 7.68993Z" fill="#1F1F3D" stroke="#1F1F3D" stroke-width="0.2"/>
</g>
<defs>
<clipPath id="clip0">
<rect width="18" height="18" fill="white"/>
</clipPath>
</defs>
</svg>
