<svg width="13" height="19" viewBox="0 0 13 19" fill="none" xmlns="http://www.w3.org/2000/svg">
<path d="M12.5649 0.951039C12.2916 0.970659 12.0258 0.988349 11.768 1.00386C10.6117 1.07401 9.77563 1.10927 9.26014 1.10927C8.9945 1.10927 8.70923 1.10135 8.40468 1.08583L4.69002 0.921692L4.46731 2.12874C4.54538 2.14426 4.69388 2.16002 4.91265 2.17566C5.71722 2.22237 6.27978 2.33188 6.60009 2.50373V2.94907L6.50635 3.53486L6.24858 5.1169L6.06101 5.85522L5.72116 7.69502C5.72116 7.70294 5.70745 7.74789 5.68011 7.82994C5.65277 7.9119 5.61756 8.03102 5.57471 8.18723C5.53165 8.34357 5.48293 8.52524 5.42814 8.73223C5.37334 8.93918 5.31091 9.201 5.24056 9.51742C5.17025 9.83375 5.1038 10.1639 5.04137 10.5076L4.90067 11.2576L4.24452 14.3983L3.92806 16.0268C3.83427 16.5271 3.67424 16.9217 3.44767 17.2105C3.13515 17.3669 2.68202 17.5191 2.08826 17.6677C1.51798 17.816 1.21724 17.8942 1.18601 17.902L0.986816 18.8983C1.17419 18.8827 1.55697 18.8476 2.13517 18.7927C3.17423 18.699 3.85389 18.656 4.17413 18.6638L6.49449 18.6872C7.4787 18.7889 8.04504 18.8552 8.19338 18.8866C8.34184 18.9099 8.45127 18.9217 8.52149 18.9217C8.66224 18.9217 8.82617 18.9139 9.01367 18.8983C9.0527 18.8905 9.14263 18.8866 9.28321 18.8866C9.29881 18.8085 9.3339 18.6482 9.38865 18.4059C9.43532 18.1794 9.4627 17.9528 9.4707 17.7261C9.23613 17.6872 8.97853 17.648 8.697 17.6092C8.26763 17.5623 7.80255 17.4802 7.3025 17.3631C7.27935 17.207 7.27537 17.1015 7.29096 17.0467L7.43175 16.5194L7.9357 13.7656L8.381 11.914L9.09592 8.26953C9.26761 7.43356 9.5255 6.23846 9.8695 4.68359C9.90081 4.38675 9.95138 4.0664 10.0219 3.7226C10.1156 3.27735 10.2095 2.93368 10.3031 2.69135C10.5922 2.57425 10.9869 2.4532 11.4867 2.32818C11.9089 2.23456 12.3345 2.11343 12.764 1.96501C12.8111 1.79312 12.8621 1.59393 12.9166 1.36736C12.948 1.21882 12.9714 1.07048 12.9868 0.922102C12.979 0.921815 12.8383 0.931543 12.5649 0.951039Z" fill="#1F1F3D"/>
</svg>
