<svg width="18" height="19" viewBox="0 0 18 19" fill="none" xmlns="http://www.w3.org/2000/svg">
<g clipPath="url(#clip0)">
<path d="M17.2276 6.82617L13.2301 11.3112C12.9601 11.6187 12.4876 11.6412 12.1876 11.3712C11.8801 11.1012 11.8576 10.6287 12.1276 10.3287L16.1251 5.84367C16.7026 5.19867 16.6426 4.20867 15.9976 3.63117L14.9626 2.70117C14.3176 2.13117 13.3276 2.18367 12.7501 2.82867L8.34005 7.77117C7.76255 8.41617 7.82255 9.40617 8.46755 9.98367C8.77505 10.2537 8.79755 10.7262 8.52755 11.0262C8.25755 11.3337 7.78505 11.3562 7.48505 11.0862C6.22505 9.97617 6.12005 8.04117 7.23755 6.78867L11.6476 1.84617C12.7651 0.59367 14.7001 0.48117 15.9526 1.59867L16.9876 2.52117C18.2401 3.63867 18.3451 5.56617 17.2276 6.82617Z" fill="#9695B7"/>
<path d="M0.772478 12.8037L4.76998 8.32617C5.03998 8.01867 5.51248 7.99617 5.81248 8.26617C6.11998 8.53617 6.14248 9.00867 5.87248 9.30867L1.87498 13.7937C1.29748 14.4387 1.35748 15.4287 2.00248 16.0062L3.03748 16.9287C3.68248 17.5062 4.67248 17.4462 5.24998 16.8012L9.65998 11.8587C10.2375 11.2137 10.1775 10.2237 9.53248 9.64617C9.22498 9.37617 9.20248 8.90367 9.47248 8.60367C9.74248 8.29617 10.215 8.27367 10.515 8.54367C11.7675 9.66117 11.88 11.5962 10.7625 12.8487L6.35248 17.7912C5.23498 19.0437 3.29998 19.1562 2.04748 18.0387L1.01248 17.1162C-0.240022 15.9912 -0.345022 14.0637 0.772478 12.8037Z" fill="#9695B7"/>
</g>
<defs>
<clipPath id="clip0">
<rect width="18" height="17.9775" fill="white" transform="translate(0 0.826172)"/>
</clipPath>
</defs>
</svg>
