<svg width="19" height="19" viewBox="0 0 19 19" fill="none" xmlns="http://www.w3.org/2000/svg">
<g clip-path="url(#clip0)">
<path d="M17.8208 6.93292L13.8233 11.4179C13.5533 11.7254 13.0808 11.7479 12.7808 11.4779C12.4733 11.2079 12.4508 10.7354 12.7208 10.4354L16.7183 5.95043C17.2958 5.30542 17.2358 4.31542 16.5908 3.73792L15.5558 2.80792C14.9108 2.23792 13.9208 2.29042 13.3433 2.93542L8.93331 7.87793C8.35581 8.52293 8.41581 9.51293 9.06081 10.0904C9.36831 10.3604 9.39081 10.8329 9.12081 11.1329C8.85081 11.4404 8.37831 11.4629 8.07831 11.1929C6.81831 10.0829 6.71331 8.14792 7.83081 6.89542L12.2408 1.95292C13.3583 0.700424 15.2933 0.587924 16.5458 1.70542L17.5808 2.62792C18.8333 3.74542 18.9383 5.67292 17.8208 6.93292Z" fill="#1F1F3D"/>
<path d="M1.36574 12.9104L5.36324 8.43291C5.63324 8.12541 6.10574 8.10291 6.40574 8.37291C6.71324 8.64291 6.73574 9.11541 6.46574 9.41541L2.46824 13.9004C1.89074 14.5454 1.95074 15.5354 2.59574 16.1129L3.63074 17.0354C4.27574 17.6129 5.26574 17.5529 5.84324 16.9079L10.2532 11.9654C10.8307 11.3204 10.7707 10.3304 10.1257 9.75291C9.81824 9.48291 9.79574 9.01041 10.0657 8.71041C10.3357 8.40291 10.8082 8.38041 11.1082 8.65041C12.3607 9.76791 12.4732 11.7029 11.3557 12.9554L6.94574 17.8979C5.82824 19.1504 3.89324 19.2629 2.64074 18.1454L1.60574 17.2229C0.35324 16.0979 0.24824 14.1704 1.36574 12.9104Z" fill="#1F1F3D"/>
</g>
<defs>
<clipPath id="clip0">
<rect width="18" height="17.9775" fill="white" transform="translate(0.593262 0.932922)"/>
</clipPath>
</defs>
</svg>
