<svg width="16" height="16" viewBox="0 0 16 16" fill="none" xmlns="http://www.w3.org/2000/svg">
<path d="M7.98996 16C7.7706 16 7.56454 15.8936 7.43824 15.7075C7.27206 15.4682 3.39669 9.75821 2.6389 7.8172C2.39296 7.15247 2.26001 6.45451 2.26001 5.74325C2.26001 2.5725 4.83251 0 8.00326 0C11.174 0 13.7465 2.5725 13.7465 5.74325C13.7465 6.46115 13.6136 7.15912 13.361 7.82385C12.6032 9.76485 8.71452 15.4749 8.54834 15.7208C8.41539 15.8936 8.21597 16 7.98996 16ZM8.00326 1.32946C5.57035 1.32946 3.58947 3.31034 3.58947 5.74325C3.58947 6.29497 3.68917 6.8334 3.88859 7.3386C4.42702 8.72788 6.88652 12.4836 7.99661 14.1454C9.11335 12.4769 11.5728 8.72788 12.1179 7.3386C12.3173 6.8334 12.4171 6.29497 12.4171 5.74325C12.4104 3.31034 10.4295 1.32946 8.00326 1.32946Z" fill="#6670F0"/>
<path d="M7.98973 8.68137C6.3678 8.68137 5.05164 7.36521 5.05164 5.74327C5.05164 4.12134 6.3678 2.80518 7.98973 2.80518C9.61167 2.80518 10.9278 4.12134 10.9278 5.74327C10.9278 7.36521 9.61167 8.68137 7.98973 8.68137ZM7.98973 4.13463C7.10564 4.13463 6.38109 4.85919 6.38109 5.74327C6.38109 6.62736 7.10564 7.35192 7.98973 7.35192C8.87382 7.35192 9.59837 6.62736 9.59837 5.74327C9.59837 4.85919 8.88047 4.13463 7.98973 4.13463Z" fill="#6670F0"/>
</svg>
