<svg width="12" height="12" viewBox="0 0 12 12" fill="none" xmlns="http://www.w3.org/2000/svg">
<path d="M10.56 4.49939H9.75V3.74939C9.75 1.67939 8.07 -0.000610352 6 -0.000610352C3.93 -0.000610352 2.25 1.67939 2.25 3.74939V4.49939H1.44C0.645 4.49939 0 5.07939 0 5.79439V10.6994C0 11.4194 0.645 11.9994 1.44 11.9994H10.56C11.355 11.9994 12 11.4194 12 10.7044V5.79939C12 5.07939 11.355 4.49939 10.56 4.49939ZM3.25 3.74939C3.25 2.23439 4.485 0.99939 6 0.99939C7.515 0.99939 8.75 2.23439 8.75 3.74939V4.49939H3.25V3.74939ZM11 10.5794C11 10.8644 10.74 11.0994 10.425 11.0994H1.575C1.26 11.0994 1 10.8644 1 10.5794V5.91939C1 5.63439 1.26 5.39939 1.575 5.39939H2.25H3.25H8.75H9.75H10.425C10.745 5.39939 11 5.63439 11 5.91939V10.5794Z" fill="#9695B7"/>
</svg>
