<svg width="48" height="26" viewBox="0 0 48 26" fill="none" xmlns="http://www.w3.org/2000/svg">
<path d="M47.8163 13.0001C47.8163 9.52163 45.2021 6.33103 40.8833 3.9993C36.5719 1.67155 30.603 0.22617 24 0.22617C17.397 0.22617 11.4281 1.67155 7.11669 3.9993C2.79786 6.33103 0.183655 9.52163 0.183654 13.0001C0.183654 16.4785 2.79786 19.6691 7.11669 22.0009C11.4281 24.3286 17.397 25.774 24 25.774C30.603 25.774 36.5719 24.3286 40.8833 22.0009C45.2021 19.6691 47.8163 16.4785 47.8163 13.0001Z" stroke="url(#paint0_linear)" stroke-width="0.367305"/>
<path d="M23.0086 10.3714L23.0136 10.3633L23.0182 10.3549C23.9558 8.67017 25.4999 7.25482 27.2753 6.23399C29.0498 5.21369 31.0235 4.60603 32.7877 4.50845L32.8068 4.5074L32.8257 4.50471C33.1481 4.45899 33.3518 4.46127 33.5016 4.48853C33.6408 4.51386 33.7569 4.56489 33.9005 4.65982C33.8544 4.76961 33.6973 4.97747 33.3259 5.23249L33.3171 5.23856L33.3085 5.24505C32.8401 5.60009 32.3497 5.95191 31.8278 6.32631C31.3504 6.66877 30.8467 7.03011 30.3095 7.43007L29.6898 7.8914L30.3668 8.30494C31.5892 9.05174 32.438 10.2218 32.7557 11.5254C33.0709 12.8186 32.8728 14.2803 31.9401 15.6464C30.1137 18.0644 26.8056 18.6755 24.5239 17.1622L24.5164 17.1573L24.5088 17.1526C22.0392 15.6395 21.6249 12.6476 23.0086 10.3714ZM33.9319 4.68449C33.9319 4.6845 33.9316 4.68419 33.9311 4.68355L33.9319 4.68449Z" stroke="#E3BBEA"/>
<path d="M26.5368 15.7116L26.5317 15.7197L26.5269 15.728C25.5655 17.3961 24.0014 18.7846 22.2116 19.7748C20.4228 20.7645 18.4405 21.3382 16.6751 21.4055L16.656 21.4062L16.6371 21.4086C16.3141 21.4488 16.1103 21.443 15.9607 21.4132C15.8215 21.3854 15.7058 21.3321 15.5632 21.2344C15.6109 21.1258 15.7707 20.921 16.1452 20.6727L16.1542 20.6668L16.1629 20.6604C16.6363 20.3134 17.1317 19.9701 17.6589 19.6047C18.1411 19.2705 18.65 18.9179 19.1929 18.5271L19.8202 18.0757L19.1496 17.6508C17.9376 16.8828 17.1056 15.6979 16.8067 14.389C16.5101 13.0905 16.7293 11.6329 17.6812 10.2835C19.5415 7.89811 22.8579 7.34288 25.1186 8.8958L25.126 8.90087L25.1335 8.90567C27.5824 10.4618 27.9522 13.4608 26.5368 15.7116ZM15.5323 21.2092C15.5324 21.2092 15.5327 21.2095 15.5331 21.2102L15.5323 21.2092Z" stroke="#6670F0"/>
<defs>
<linearGradient id="paint0_linear" x1="24" y1="25.9576" x2="24" y2="0.0425167" gradientUnits="userSpaceOnUse">
<stop stop-color="#435BF3"/>
<stop offset="1" stop-color="#F79AF3"/>
</linearGradient>
</defs>
</svg>
