<svg width="19" height="19" viewBox="0 0 19 19" fill="none" xmlns="http://www.w3.org/2000/svg">
<g clip-path="url(#clip0)">
<path d="M14.9872 18.041H3.124C1.88283 18.041 0.874023 17.0323 0.874023 15.7911V3.9278C0.874023 2.68679 1.88283 1.67798 3.124 1.67798H10.8964C11.2351 1.67798 11.51 1.95288 11.51 2.29159C11.51 2.63031 11.2351 2.90521 10.8964 2.90521H3.124C2.56027 2.90521 2.10125 3.36422 2.10125 3.9278V15.7911C2.10125 16.3549 2.56027 16.8137 3.124 16.8137H14.9872C15.5509 16.8137 16.0099 16.3549 16.0099 15.7911V8.01862C16.0099 7.6799 16.2848 7.40501 16.6235 7.40501C16.9623 7.40501 17.2372 7.6799 17.2372 8.01862V15.7911C17.2372 17.0323 16.2283 18.041 14.9872 18.041Z" fill="#1F1F3D"/>
<path d="M18.2596 6.58691C17.9209 6.58691 17.646 6.31201 17.646 5.97329V1.26886H12.9417C12.603 1.26886 12.3281 0.993958 12.3281 0.655241C12.3281 0.316525 12.603 0.041626 12.9417 0.041626H18.2596C18.5984 0.041626 18.8733 0.316525 18.8733 0.655241V5.97329C18.8733 6.31201 18.5984 6.58691 18.2596 6.58691Z" fill="#1F1F3D"/>
<path d="M8.85126 10.6776C8.69411 10.6776 8.53711 10.6179 8.41756 10.4976C8.17787 10.258 8.17787 9.86935 8.41756 9.62951L17.8264 0.220786C18.0661 -0.0189078 18.4547 -0.0189078 18.6944 0.220786C18.9341 0.460479 18.9341 0.849082 18.6944 1.08893L9.2857 10.4976C9.16541 10.6179 9.00841 10.6776 8.85126 10.6776Z" fill="#1F1F3D"/>
</g>
<defs>
<clipPath id="clip0">
<rect width="18" height="18" fill="white" transform="translate(0.874023 0.0410156)"/>
</clipPath>
</defs>
</svg>
