<svg width="45" height="45" viewBox="0 0 45 45" fill="none" xmlns="http://www.w3.org/2000/svg">
<g clip-path="url(#clip0)">
<g filter="url(#filter0_d)">
<path d="M11.8285 1.50114C10.4049 1.50114 9.24023 2.66585 9.24023 4.08938V40.3247C9.24023 41.7482 10.4049 42.9129 11.8285 42.9129H37.7108C39.1343 42.9129 40.2991 41.7482 40.2991 40.3247V11.8541L29.9461 1.50114H11.8285Z" fill="#F6F8FF"/>
<path d="M9.49023 4.08938C9.49023 2.80392 10.543 1.75114 11.8285 1.75114H29.8426L40.0491 11.9576V40.3247C40.0491 41.6101 38.9963 42.6629 37.7108 42.6629H11.8285C10.543 42.6629 9.49023 41.6101 9.49023 40.3247V4.08938Z" stroke="#BDBFDF" stroke-width="0.5"/>
</g>
<path d="M32.5345 12.2585H40.2992V11.8541L29.9463 9.67026C29.9463 11.0938 31.111 12.2585 32.5345 12.2585Z" fill="#BDBFDF"/>
<path d="M32.5345 11.8541H40.2992L29.9463 1.50114V9.26585C29.9463 10.6894 31.111 11.8541 32.5345 11.8541Z" fill="white"/>
<path d="M35.1233 35.1482C35.1233 35.86 34.5409 36.4423 33.8292 36.4423H5.35857C4.64681 36.4423 4.06445 35.86 4.06445 35.1482V22.207C4.06445 21.4953 4.64681 20.9129 5.35857 20.9129H33.8292C34.5409 20.9129 35.1233 21.4953 35.1233 22.207V35.1482Z" fill="#6670F0"/>
<path d="M9.70508 26.0206C9.70508 25.6793 9.97442 25.3065 10.4079 25.3065H12.798C14.1439 25.3065 15.3555 26.2075 15.3555 27.9335C15.3555 29.5689 14.1439 30.4805 12.798 30.4805H11.0704V31.8474C11.0704 32.3028 10.7808 32.5608 10.4079 32.5608C10.0666 32.5608 9.70508 32.3036 9.70508 31.8474V26.0206ZM11.0704 26.6095V29.1872H12.798C13.492 29.1872 14.0404 28.5749 14.0404 27.9335C14.0404 27.2104 13.492 26.6095 12.798 26.6095H11.0704Z" fill="white"/>
<path d="M17.3822 32.56C17.0408 32.56 16.668 32.3739 16.668 31.9194V26.0417C16.668 25.6704 17.0408 25.3995 17.3822 25.3995H19.752C24.4804 25.3995 24.3769 32.56 19.845 32.56H17.3822ZM18.0341 26.6628V31.2982H19.7512C22.5449 31.2982 22.6694 26.6628 19.7512 26.6628H18.0341Z" fill="white"/>
<path d="M26.0534 26.7453V28.3905H28.6917C29.0646 28.3905 29.4375 28.7634 29.4375 29.1241C29.4375 29.4654 29.0646 29.7453 28.6917 29.7453H26.0534V31.9178C26.0534 32.2801 25.7961 32.5584 25.4338 32.5584C24.9784 32.5584 24.7002 32.2801 24.7002 31.9178V26.04C24.7002 25.6688 24.98 25.3978 25.4338 25.3978H29.0662C29.5216 25.3978 29.7909 25.668 29.7909 26.04C29.7909 26.3717 29.5216 26.7437 29.0662 26.7437H26.0534V26.7453Z" fill="white"/>
<path d="M33.8285 36.4423H9.24023V37.7364H33.8285C34.5402 37.7364 35.1226 37.1541 35.1226 36.4423V35.1482C35.1226 35.86 34.5402 36.4423 33.8285 36.4423Z" fill="#BDBFDF"/>
</g>
<defs>
<filter id="filter0_d" x="3.24023" y="-4.49886" width="43.0588" height="53.4118" filterUnits="userSpaceOnUse" color-interpolation-filters="sRGB">
<feFlood flood-opacity="0" result="BackgroundImageFix"/>
<feColorMatrix in="SourceAlpha" type="matrix" values="0 0 0 0 0 0 0 0 0 0 0 0 0 0 0 0 0 0 127 0"/>
<feOffset/>
<feGaussianBlur stdDeviation="3"/>
<feColorMatrix type="matrix" values="0 0 0 0 0.470588 0 0 0 0 0.490196 0 0 0 0 0.933333 0 0 0 0.1 0"/>
<feBlend mode="normal" in2="BackgroundImageFix" result="effect1_dropShadow"/>
<feBlend mode="normal" in="SourceGraphic" in2="effect1_dropShadow" result="shape"/>
</filter>
<clipPath id="clip0">
<rect width="44" height="44" fill="white" transform="translate(0.181641 0.207031)"/>
</clipPath>
</defs>
</svg>
