<svg width="19" height="19" viewBox="0 0 19 19" fill="none" xmlns="http://www.w3.org/2000/svg">
<g clip-path="url(#clip0)">
<path d="M18.305 4.93L13.7228 0.168372C13.6555 0.101096 13.5658 0.0637207 13.4687 0.0637207H6.64391C5.87398 0.0637207 5.25355 0.684153 5.25355 1.44661V6.29046H2.48777C1.91219 6.29046 1.44873 6.75392 1.44873 7.3295V12.5247C1.44873 13.0928 1.91219 13.5637 2.48777 13.5637H5.25355V16.6808C5.25355 17.4433 5.87398 18.0637 6.63644 18.0637H17.0119C17.7743 18.0637 18.3947 17.4433 18.3947 16.6808V5.1692C18.4022 5.0795 18.3648 4.99728 18.305 4.93ZM13.7004 1.36439L16.9745 4.76555H13.7004V1.36439ZM2.82415 12.6518C2.64474 12.6518 2.50272 12.5097 2.50272 12.3303V7.51638C2.50272 7.33698 2.64474 7.19495 2.82415 7.19495H11.4952C11.6746 7.19495 11.8167 7.33698 11.8167 7.51638V12.3378C11.8167 12.5172 11.6746 12.6592 11.4952 12.6592H2.82415V12.6518ZM17.4604 16.3519C17.4604 16.7182 17.1614 17.0097 16.7951 17.0097H6.86069C6.49441 17.0097 6.19541 16.7107 6.19541 16.3445V13.6385H11.8316C12.3773 13.6385 12.8258 13.19 12.8258 12.6443V7.36688C12.8258 6.8212 12.3773 6.37269 11.8316 6.37269H6.19541V1.76804C6.19541 1.40176 6.49441 1.10276 6.86069 1.10276H12.8258V5.4084C12.8258 5.58781 12.9753 5.73731 13.1547 5.73731H17.4604V16.3519Z" fill="#1F1F3D"/>
<path d="M5.58243 8.84694C5.47031 8.69744 5.32828 8.60026 5.15635 8.55541C5.04423 8.52551 4.80502 8.51056 4.44622 8.51056H3.48193V11.4856H4.07994V10.3644H4.46864C4.73775 10.3644 4.94705 10.3494 5.08908 10.3195C5.19373 10.2971 5.29838 10.2523 5.40303 10.1775C5.50768 10.1028 5.58991 10.0056 5.65718 9.88597C5.72446 9.7589 5.75436 9.6094 5.75436 9.42252C5.75436 9.18332 5.70203 8.99644 5.58243 8.84694ZM5.07413 9.66172C5.02928 9.729 4.96948 9.77385 4.88725 9.81122C4.80502 9.84112 4.64805 9.85607 4.41632 9.85607H4.07994V9.01139H4.37147C4.58825 9.01139 4.73027 9.01886 4.80502 9.03381C4.9022 9.04876 4.98443 9.09362 5.04423 9.16837C5.10403 9.23564 5.1414 9.32534 5.1414 9.43747C5.1414 9.5197 5.11898 9.59445 5.07413 9.66172Z" fill="#1F1F3D"/>
<path d="M8.63959 9.3179C8.57231 9.13102 8.48261 8.96657 8.35553 8.83949C8.22846 8.70494 8.07895 8.61524 7.90703 8.56291C7.77995 8.52554 7.5856 8.50311 7.33892 8.50311H6.24756V11.4782H7.3763C7.60055 11.4782 7.77248 11.4558 7.90703 11.4184C8.08643 11.3586 8.22846 11.2838 8.32563 11.1792C8.46018 11.0446 8.57231 10.8727 8.64706 10.6559C8.70686 10.4765 8.73676 10.2672 8.73676 10.0206C8.73676 9.74398 8.70686 9.51225 8.63959 9.3179ZM8.05653 10.5438C8.01915 10.6784 7.96683 10.7755 7.89955 10.8279C7.83228 10.8877 7.75753 10.925 7.66035 10.9549C7.5856 10.9774 7.466 10.9848 7.29407 10.9848H6.84557V9.01889H7.11467C7.36135 9.01889 7.5258 9.02637 7.60802 9.04879C7.72015 9.07122 7.80985 9.11607 7.8846 9.19082C7.95935 9.2581 8.01168 9.35527 8.05653 9.48235C8.0939 9.60195 8.11633 9.78135 8.11633 10.0131C8.11633 10.2299 8.10138 10.4093 8.05653 10.5438Z" fill="#1F1F3D"/>
<path d="M11.2858 9.01139V8.51056H9.24512V11.4856H9.84312V10.2224H11.084V9.72152H9.84312V9.01886H11.2858V9.01139Z" fill="#1F1F3D"/>
</g>
<defs>
<clipPath id="clip0">
<rect width="18" height="18" fill="white" transform="translate(0.922363 0.0637207)"/>
</clipPath>
</defs>
</svg>
