<svg width="13" height="12" viewBox="0 0 13 12" fill="none" xmlns="http://www.w3.org/2000/svg">
<path d="M11.2828 0.842564C10.1615 -0.278698 8.33762 -0.278698 7.21636 0.842564L0.125 7.93393V12.0004H4.19145V11.9954L11.2828 4.90403C11.826 4.36084 12.125 3.63825 12.125 2.8708C12.125 2.10336 11.826 1.38575 11.2828 0.842564ZM3.77782 11.0037H1.12168V8.34755L6.37915 3.09007L9.0353 5.74622L3.77782 11.0037ZM10.5801 4.20137L9.74294 5.03858L7.08679 2.38243L7.924 1.54522C8.65656 0.812664 9.84759 0.812664 10.5801 1.54522C10.934 1.89904 11.1283 2.37246 11.1283 2.8708C11.1283 3.36914 10.934 3.84755 10.5801 4.20137Z" fill="#1F1F3D"/>
</svg>
