<svg width="19" height="19" viewBox="0 0 19 19" fill="none" xmlns="http://www.w3.org/2000/svg">
<g clip-path="url(#clip0)">
<path d="M0.950684 16.1662C0.950684 17.2162 1.80568 18.0637 2.84818 18.0637H17.0532C18.1032 18.0637 18.9507 17.2087 18.9507 16.1662V1.96122C18.9507 0.911221 18.0957 0.0637207 17.0532 0.0637207H2.84818C1.79818 0.0637207 0.950684 0.918721 0.950684 1.96122V16.1662ZM16.6107 16.7437H3.29068C2.78068 16.7437 2.35318 16.3387 2.35318 15.8362V14.2987L5.55568 11.2012L8.28568 13.8487C8.45068 14.0062 8.71318 14.0062 8.88568 13.8487L13.8282 9.06372L17.5407 12.6637V15.8362C17.5407 16.3387 17.1207 16.7437 16.6107 16.7437ZM3.23068 1.44372H16.6632C17.1807 1.44372 17.6082 1.85622 17.6082 2.35872V10.3837L14.1582 7.03872C13.9932 6.87372 13.7232 6.87372 13.5582 7.03872L8.57818 11.8687L5.81818 9.19122C5.65318 9.02622 5.38318 9.02622 5.21818 9.19122L2.29318 12.0262V2.35872C2.29318 1.85622 2.71318 1.44372 3.23068 1.44372Z" fill="#1F1F3D"/>
<path d="M6.5307 7.27873C7.7982 7.27873 8.82571 6.25123 8.82571 4.99123C8.82571 3.73123 7.7982 2.69623 6.5307 2.69623C5.2707 2.69623 4.2432 3.72373 4.2432 4.99123C4.2357 6.24373 5.2632 7.27873 6.5307 7.27873ZM6.5307 3.88123C7.13821 3.88123 7.6332 4.37623 7.6332 4.98373C7.6332 5.59123 7.13821 6.08623 6.5307 6.08623C5.92321 6.08623 5.4282 5.59123 5.4282 4.98373C5.4282 4.37623 5.92321 3.88123 6.5307 3.88123Z" fill="#1F1F3D"/>
</g>
<defs>
<clipPath id="clip0">
<rect width="18" height="18" fill="white" transform="translate(0.950684 0.0637207)"/>
</clipPath>
</defs>
</svg>
