<svg width="61" height="25" viewBox="0 0 61 25" fill="none" xmlns="http://www.w3.org/2000/svg">
<path d="M18.4389 18.6153C18.5883 18.6153 18.9513 18.6153 18.9513 18.6153V15.3656C19.1861 15.2321 19.4103 15.0507 19.6452 14.8158C20.6486 13.8017 20.8194 12.9423 20.8568 12.2271C20.8941 11.4425 20.8247 9.18474 20.8194 9.04596V8.50688C20.8194 7.82901 20.2696 7.27925 19.5918 7.27925H19.2128C18.9193 7.27925 18.647 7.386 18.4389 7.5568C18.2574 7.15649 17.8624 6.87894 17.3981 6.87894H17.0031C16.6775 6.87894 16.3893 7.01771 16.1865 7.23655C15.9623 6.98569 15.6367 6.82556 15.2737 6.82556H14.7613C14.2169 6.82556 13.7526 7.18318 13.5924 7.67956C13.3469 7.41803 13.0053 7.25256 12.6157 7.25256H12.2794C11.5428 7.25256 10.945 7.85036 10.945 8.58694V10.359C10.502 10.6365 10.2405 11.0795 10.1978 11.6453C10.1017 12.969 10.6995 14.2393 11.799 15.056C12.1833 15.3389 12.637 15.515 13.08 15.6271V18.6153C13.08 18.7648 13.2811 18.6153 13.2811 18.6153" fill="#1F1F3D"/>
<path d="M29.2114 15.8114H31.0594V9.94936C31.0594 9.77336 31.0654 9.59536 31.0774 9.41536L29.5414 10.7294C29.5014 10.7614 29.4614 10.7854 29.4214 10.8014C29.3814 10.8134 29.3434 10.8194 29.3074 10.8194C29.2474 10.8194 29.1934 10.8074 29.1454 10.7834C29.0974 10.7554 29.0614 10.7234 29.0374 10.6874L28.7014 10.2254L31.2574 8.01136H32.1274V15.8114H33.8194V16.6274H29.2114V15.8114ZM38.1703 7.93336C38.5343 7.93336 38.8703 7.98536 39.1783 8.08936C39.4863 8.19336 39.7503 8.34136 39.9703 8.53336C40.1943 8.72536 40.3683 8.95736 40.4923 9.22936C40.6163 9.50136 40.6783 9.80336 40.6783 10.1354C40.6783 10.4074 40.6423 10.6514 40.5703 10.8674C40.5023 11.0794 40.4023 11.2674 40.2703 11.4314C40.1423 11.5914 39.9863 11.7274 39.8023 11.8394C39.6183 11.9514 39.4123 12.0414 39.1843 12.1094C39.7443 12.2574 40.1643 12.5054 40.4443 12.8534C40.7283 13.2014 40.8703 13.6374 40.8703 14.1614C40.8703 14.5574 40.7943 14.9134 40.6423 15.2294C40.4943 15.5454 40.2903 15.8154 40.0303 16.0394C39.7703 16.2594 39.4663 16.4294 39.1183 16.5494C38.7743 16.6654 38.4043 16.7234 38.0083 16.7234C37.5523 16.7234 37.1623 16.6674 36.8383 16.5554C36.5143 16.4394 36.2403 16.2814 36.0163 16.0814C35.7923 15.8814 35.6083 15.6454 35.4643 15.3734C35.3203 15.0974 35.1983 14.7994 35.0983 14.4794L35.5543 14.2874C35.6383 14.2514 35.7223 14.2334 35.8063 14.2334C35.8863 14.2334 35.9563 14.2514 36.0163 14.2874C36.0803 14.3194 36.1283 14.3714 36.1603 14.4434C36.1683 14.4594 36.1763 14.4774 36.1843 14.4974C36.1923 14.5134 36.2003 14.5314 36.2083 14.5514C36.2643 14.6674 36.3323 14.7994 36.4123 14.9474C36.4923 15.0914 36.6003 15.2274 36.7363 15.3554C36.8723 15.4834 37.0403 15.5914 37.2403 15.6794C37.4443 15.7674 37.6963 15.8114 37.9963 15.8114C38.2963 15.8114 38.5583 15.7634 38.7823 15.6674C39.0103 15.5674 39.1983 15.4394 39.3463 15.2834C39.4983 15.1274 39.6123 14.9534 39.6883 14.7614C39.7643 14.5694 39.8023 14.3794 39.8023 14.1914C39.8023 13.9594 39.7703 13.7474 39.7063 13.5554C39.6463 13.3634 39.5343 13.1974 39.3703 13.0574C39.2103 12.9174 38.9863 12.8074 38.6983 12.7274C38.4143 12.6474 38.0483 12.6074 37.6003 12.6074V11.8334C37.9643 11.8294 38.2743 11.7894 38.5303 11.7134C38.7903 11.6374 39.0023 11.5334 39.1663 11.4014C39.3303 11.2694 39.4483 11.1114 39.5203 10.9274C39.5963 10.7434 39.6343 10.5394 39.6343 10.3154C39.6343 10.0674 39.5943 9.85136 39.5143 9.66736C39.4383 9.48336 39.3323 9.33136 39.1963 9.21136C39.0603 9.09136 38.8983 9.00136 38.7103 8.94136C38.5263 8.88136 38.3263 8.85136 38.1103 8.85136C37.8943 8.85136 37.6943 8.88336 37.5103 8.94736C37.3263 9.01136 37.1623 9.10136 37.0183 9.21736C36.8783 9.32936 36.7603 9.46536 36.6643 9.62536C36.5683 9.78136 36.4963 9.95136 36.4483 10.1354C36.4163 10.2514 36.3683 10.3354 36.3043 10.3874C36.2403 10.4394 36.1583 10.4654 36.0583 10.4654C36.0383 10.4654 36.0163 10.4654 35.9923 10.4654C35.9723 10.4614 35.9483 10.4574 35.9203 10.4534L35.3623 10.3574C35.4183 9.96536 35.5263 9.61936 35.6863 9.31936C35.8463 9.01536 36.0483 8.76136 36.2923 8.55736C36.5403 8.35336 36.8223 8.19936 37.1383 8.09536C37.4583 7.98736 37.8023 7.93336 38.1703 7.93336ZM45.1313 7.93336C45.4953 7.93336 45.8313 7.98536 46.1393 8.08936C46.4473 8.19336 46.7113 8.34136 46.9313 8.53336C47.1553 8.72536 47.3293 8.95736 47.4533 9.22936C47.5773 9.50136 47.6393 9.80336 47.6393 10.1354C47.6393 10.4074 47.6033 10.6514 47.5313 10.8674C47.4633 11.0794 47.3633 11.2674 47.2313 11.4314C47.1033 11.5914 46.9473 11.7274 46.7633 11.8394C46.5793 11.9514 46.3733 12.0414 46.1453 12.1094C46.7053 12.2574 47.1253 12.5054 47.4053 12.8534C47.6893 13.2014 47.8313 13.6374 47.8313 14.1614C47.8313 14.5574 47.7553 14.9134 47.6033 15.2294C47.4553 15.5454 47.2513 15.8154 46.9913 16.0394C46.7313 16.2594 46.4273 16.4294 46.0793 16.5494C45.7353 16.6654 45.3653 16.7234 44.9693 16.7234C44.5133 16.7234 44.1233 16.6674 43.7993 16.5554C43.4753 16.4394 43.2013 16.2814 42.9773 16.0814C42.7533 15.8814 42.5693 15.6454 42.4253 15.3734C42.2813 15.0974 42.1593 14.7994 42.0593 14.4794L42.5153 14.2874C42.5993 14.2514 42.6833 14.2334 42.7673 14.2334C42.8473 14.2334 42.9173 14.2514 42.9773 14.2874C43.0413 14.3194 43.0893 14.3714 43.1213 14.4434C43.1293 14.4594 43.1373 14.4774 43.1453 14.4974C43.1533 14.5134 43.1613 14.5314 43.1693 14.5514C43.2253 14.6674 43.2933 14.7994 43.3733 14.9474C43.4533 15.0914 43.5613 15.2274 43.6973 15.3554C43.8333 15.4834 44.0013 15.5914 44.2013 15.6794C44.4053 15.7674 44.6573 15.8114 44.9573 15.8114C45.2573 15.8114 45.5193 15.7634 45.7433 15.6674C45.9713 15.5674 46.1593 15.4394 46.3073 15.2834C46.4593 15.1274 46.5733 14.9534 46.6493 14.7614C46.7253 14.5694 46.7633 14.3794 46.7633 14.1914C46.7633 13.9594 46.7313 13.7474 46.6673 13.5554C46.6073 13.3634 46.4953 13.1974 46.3313 13.0574C46.1713 12.9174 45.9473 12.8074 45.6593 12.7274C45.3753 12.6474 45.0093 12.6074 44.5613 12.6074V11.8334C44.9253 11.8294 45.2353 11.7894 45.4913 11.7134C45.7513 11.6374 45.9633 11.5334 46.1273 11.4014C46.2913 11.2694 46.4093 11.1114 46.4813 10.9274C46.5573 10.7434 46.5953 10.5394 46.5953 10.3154C46.5953 10.0674 46.5553 9.85136 46.4753 9.66736C46.3993 9.48336 46.2933 9.33136 46.1573 9.21136C46.0213 9.09136 45.8593 9.00136 45.6713 8.94136C45.4873 8.88136 45.2873 8.85136 45.0713 8.85136C44.8553 8.85136 44.6553 8.88336 44.4713 8.94736C44.2873 9.01136 44.1233 9.10136 43.9793 9.21736C43.8393 9.32936 43.7213 9.46536 43.6253 9.62536C43.5293 9.78136 43.4573 9.95136 43.4093 10.1354C43.3773 10.2514 43.3293 10.3354 43.2653 10.3874C43.2013 10.4394 43.1193 10.4654 43.0193 10.4654C42.9993 10.4654 42.9773 10.4654 42.9533 10.4654C42.9333 10.4614 42.9093 10.4574 42.8813 10.4534L42.3233 10.3574C42.3793 9.96536 42.4873 9.61936 42.6473 9.31936C42.8073 9.01536 43.0093 8.76136 43.2533 8.55736C43.5013 8.35336 43.7833 8.19936 44.0993 8.09536C44.4193 7.98736 44.7633 7.93336 45.1313 7.93336Z" fill="#151531"/>
<g clip-path="url(#clip0)">
<path d="M20.7979 9.04079V8.50705C20.7979 7.8292 20.2482 7.27945 19.5703 7.27945H19.1914C18.8978 7.27945 18.6256 7.3862 18.4175 7.55699C18.2467 7.15669 17.8464 6.87914 17.3873 6.87914H16.9924C16.6668 6.87914 16.3786 7.01791 16.1757 7.23675C15.9462 6.98589 15.626 6.82577 15.263 6.82577H14.7507C14.2062 6.82577 13.7419 7.18337 13.5818 7.67975C13.3362 7.41822 12.9946 7.25276 12.605 7.25276H12.2688C11.5322 7.25276 10.9344 7.85055 10.9344 8.58711V10.3591C10.4914 10.6367 10.2299 11.0797 10.1872 11.6455C10.0911 12.9691 10.6889 14.2394 11.7884 15.0561C12.1727 15.3389 12.6264 15.5151 13.0694 15.6272V19.3634C13.0694 19.5128 13.1921 19.6356 13.3416 19.6356C13.491 19.6356 13.6138 19.5128 13.6138 19.3634V15.7286C13.9287 15.7713 14.2169 15.7819 14.4571 15.7819C14.8254 15.7819 15.0762 15.7499 15.1029 15.7499C15.2524 15.7286 15.3591 15.5951 15.3378 15.4457C15.3218 15.2962 15.183 15.1895 15.0335 15.2108C15.0175 15.2108 13.1975 15.4297 12.1086 14.6237C11.7564 14.3622 10.6088 13.3748 10.7262 11.6935C10.7956 10.7488 11.6816 10.5886 12.2047 10.578C12.7972 10.5673 13.9767 10.562 14.6332 10.5993C14.804 10.61 14.9215 10.6954 15.0069 10.8822C15.1083 11.0957 15.183 11.4586 14.9321 11.9443C14.5158 12.7556 13.3789 12.6435 13.3683 12.6382C13.2188 12.6222 13.0854 12.7289 13.0694 12.8784C13.0534 13.0278 13.1601 13.1613 13.3096 13.1826C13.3736 13.188 14.8254 13.3428 15.4178 12.1952C15.578 11.8856 15.642 11.6028 15.6473 11.3572C15.8288 11.2985 15.9889 11.1971 16.117 11.0637C16.3252 11.3145 16.6348 11.4747 16.9817 11.4747H17.3767C17.6595 11.4747 17.9157 11.3679 18.1132 11.1971C18.3214 11.5707 18.7217 11.8269 19.186 11.8269H19.565C19.8372 11.8269 20.0934 11.7362 20.2962 11.5814C20.2962 11.8323 20.2909 12.0511 20.2856 12.2059C20.2535 12.8464 20.1041 13.5562 19.2341 14.4369C18.5509 15.1254 18.0278 15.2269 16.6935 15.2002C16.5387 15.2002 16.4213 15.3176 16.4159 15.467C16.4106 15.6165 16.5334 15.7392 16.6828 15.7446C16.7949 15.7446 16.8963 15.7499 16.9977 15.7499C17.5635 15.7499 18.0011 15.7126 18.3801 15.6058V19.1499C18.3801 19.2993 18.5029 19.4221 18.6523 19.4221C18.8018 19.4221 18.9245 19.2993 18.9245 19.1499V15.3656C19.1594 15.2322 19.3835 15.0507 19.6184 14.8159C20.6218 13.8018 20.7926 12.9424 20.83 12.2272C20.8727 11.4426 20.8033 9.17957 20.7979 9.04079ZM12.1994 10.0229C11.9378 10.0282 11.6977 10.0656 11.4788 10.1243V8.58711C11.4788 8.15478 11.8311 7.79718 12.2688 7.79718H12.605C13.0373 7.79718 13.395 8.14945 13.395 8.58711V10.0175C12.9413 10.0175 12.4983 10.0175 12.1994 10.0229ZM15.8769 10.4766C15.8128 10.6153 15.7007 10.7274 15.5673 10.7968C15.5459 10.7381 15.5246 10.6901 15.5032 10.642C15.2844 10.183 14.9268 10.0656 14.6706 10.0496C14.4998 10.0389 14.2916 10.0282 14.0675 10.0282V8.05337C14.0675 7.67975 14.3717 7.37018 14.7507 7.37018H15.263C15.5459 7.37018 15.7915 7.54632 15.8929 7.79184C15.8822 7.85589 15.8715 7.92527 15.8715 7.99466V10.3431C15.8715 10.3912 15.8769 10.4339 15.8769 10.4766ZM17.9638 10.3431C17.9638 10.658 17.7076 10.9196 17.3873 10.9196H16.9924C16.7362 10.9196 16.5173 10.7488 16.4426 10.5139C16.4693 10.4072 16.4907 10.3004 16.4907 10.1883V8.05337C16.4907 7.96264 16.48 7.8719 16.4586 7.7865C16.544 7.573 16.7522 7.42356 16.9924 7.42356H17.3873C17.7022 7.42356 17.9638 7.67975 17.9638 8V10.3431ZM20.2535 10.594C20.2535 10.9676 19.9493 11.2772 19.5703 11.2772H19.1914C18.8178 11.2772 18.5082 10.9729 18.5082 10.594V8.50705C18.5082 8.13343 18.8124 7.82386 19.1914 7.82386H19.5703C19.944 7.82386 20.2535 8.1281 20.2535 8.50705V10.594Z" fill="white" stroke="#1F1F3D" stroke-width="0.2"/>
</g>
<defs>
<clipPath id="clip0">
<rect width="12" height="12" fill="white" transform="translate(9.5105 6.62576)"/>
</clipPath>
</defs>
</svg>
