<svg width="12" height="12" viewBox="0 0 12 12" fill="none" xmlns="http://www.w3.org/2000/svg">
<path d="M11.2986 2.41498V1.88124C11.2986 1.20339 10.7488 0.653631 10.071 0.653631H9.69199C9.39844 0.653631 9.12623 0.76038 8.91807 0.931177C8.74727 0.530871 8.34697 0.253325 7.88795 0.253325H7.49298C7.1674 0.253325 6.87918 0.392098 6.67635 0.610932C6.44685 0.360074 6.1266 0.199951 5.76366 0.199951H5.25127C4.70685 0.199951 4.24249 0.557558 4.08237 1.05394C3.83685 0.792404 3.49526 0.626944 3.10563 0.626944H2.76937C2.0328 0.626944 1.43501 1.22473 1.43501 1.9613V3.73332C0.992009 4.01087 0.730475 4.45387 0.687776 5.01964C0.591702 6.34332 1.18949 7.61362 2.289 8.43024C2.67329 8.71313 3.12697 8.88926 3.56998 9.00135V12.7375C3.56998 12.887 3.69274 13.0097 3.84219 13.0097C3.99164 13.0097 4.1144 12.887 4.1144 12.7375V9.10276C4.42931 9.14546 4.71752 9.15613 4.95771 9.15613C5.32599 9.15613 5.57685 9.12411 5.60354 9.12411C5.75299 9.10276 5.85973 8.96932 5.83838 8.81988C5.82237 8.67043 5.6836 8.56368 5.53415 8.58503C5.51814 8.58503 3.69808 8.80386 2.60925 7.99791C2.25698 7.73638 1.10943 6.74896 1.22686 5.06767C1.29624 4.12295 2.18226 3.96283 2.70532 3.95215C3.29777 3.94148 4.47734 3.93614 5.13384 3.9735C5.30464 3.98418 5.42206 4.06958 5.50746 4.25639C5.60887 4.46988 5.6836 4.83283 5.43274 5.31853C5.01642 6.12982 3.87955 6.01773 3.86888 6.0124C3.71943 5.99638 3.58599 6.10313 3.56998 6.25258C3.55397 6.40203 3.66072 6.53546 3.81017 6.55681C3.87422 6.56215 5.32599 6.71693 5.91844 5.56939C6.07857 5.25982 6.14261 4.97694 6.14795 4.73142C6.32942 4.6727 6.48954 4.57129 6.61764 4.43786C6.8258 4.68872 7.13537 4.84884 7.48231 4.84884H7.87727C8.16016 4.84884 8.41635 4.74209 8.61384 4.57129C8.822 4.94491 9.2223 5.20111 9.68666 5.20111H10.0656C10.3378 5.20111 10.594 5.11037 10.7968 4.95559C10.7968 5.20645 10.7915 5.42528 10.7862 5.58007C10.7541 6.22055 10.6047 6.93043 9.73469 7.8111C9.05151 8.49963 8.52844 8.60104 7.19408 8.57436C7.0393 8.57436 6.92188 8.69178 6.91654 8.84123C6.9112 8.99067 7.03396 9.11343 7.18341 9.11877C7.2955 9.11877 7.39691 9.12411 7.49832 9.12411C8.06408 9.12411 8.50175 9.08675 8.88071 8.98V12.524C8.88071 12.6735 9.00347 12.7963 9.15291 12.7963C9.30236 12.7963 9.42512 12.6735 9.42512 12.524V8.73981C9.65997 8.60638 9.88414 8.42491 10.119 8.19006C11.1224 7.17595 11.2932 6.31663 11.3306 5.60141C11.3733 4.81681 11.3039 2.55375 11.2986 2.41498ZM2.69998 3.39706C2.43845 3.4024 2.19827 3.43976 1.97943 3.49847V1.9613C1.97943 1.52897 2.3317 1.17136 2.76937 1.17136H3.10563C3.53796 1.17136 3.89556 1.52363 3.89556 1.9613V3.39173C3.44188 3.39173 2.99888 3.39173 2.69998 3.39706ZM6.37746 3.85074C6.31341 3.98952 6.20132 4.1016 6.06789 4.17099C6.04654 4.11228 6.02519 4.06424 6.00384 4.0162C5.78501 3.55719 5.4274 3.43976 5.1712 3.42375C5.00041 3.41307 4.79225 3.4024 4.56808 3.4024V1.42756C4.56808 1.05394 4.87231 0.744367 5.25127 0.744367H5.76366C6.04654 0.744367 6.29206 0.920502 6.39347 1.16602C6.3828 1.23007 6.37212 1.29946 6.37212 1.36884V3.71731C6.37212 3.76534 6.37746 3.80804 6.37746 3.85074ZM8.46439 3.71731C8.46439 4.03222 8.20819 4.29375 7.88795 4.29375H7.49298C7.23678 4.29375 7.01795 4.12295 6.94322 3.8881C6.96991 3.78136 6.99126 3.67461 6.99126 3.56252V1.42756C6.99126 1.33682 6.98059 1.24608 6.95924 1.16069C7.04464 0.947189 7.25279 0.797742 7.49298 0.797742H7.88795C8.20286 0.797742 8.46439 1.05394 8.46439 1.37418V3.71731ZM10.7541 3.96817C10.7541 4.34178 10.4499 4.65136 10.071 4.65136H9.69199C9.31838 4.65136 9.00881 4.34712 9.00881 3.96817V1.88124C9.00881 1.50762 9.31304 1.19805 9.69199 1.19805H10.071C10.4446 1.19805 10.7541 1.50228 10.7541 1.88124V3.96817Z" fill="#1F1F3D" stroke="#1F1F3D" stroke-width="0.2"/>
</svg>
