<svg width="25" height="25" viewBox="0 0 25 25" fill="none" xmlns="http://www.w3.org/2000/svg">
<rect x="0.812744" y="0.240234" width="24" height="24" rx="12" fill="#BDBFDF"/>
<g clip-path="url(#clip0)">
<path d="M7.78814 13.7425C7.7702 13.5866 7.81205 13.4183 7.91369 13.2873C8.11696 13.0192 8.49361 12.9756 8.75667 13.1876L11.4829 15.7627L16.774 7.4451C16.9772 7.17699 17.3539 7.13335 17.6169 7.34534C17.874 7.56357 17.9159 7.95014 17.7126 8.22448L12.0449 17.0346C11.9433 17.1656 11.7998 17.2466 11.6443 17.2653C11.4889 17.284 11.3275 17.2341 11.2019 17.1344L8.00935 14.1665C7.87782 14.0605 7.8001 13.9046 7.78814 13.7425Z" fill="#F6F8FF"/>
</g>
<defs>
<clipPath id="clip0">
<rect width="10.6667" height="10.6667" fill="white" transform="translate(7.47942 6.90698)"/>
</clipPath>
</defs>
</svg>
