<svg width="19" height="19" viewBox="0 0 19 19" fill="none" xmlns="http://www.w3.org/2000/svg">
<path d="M18.7684 16.7864L15.5736 13.598C16.766 12.165 17.4859 10.3269 17.4859 8.3163C17.4859 3.75487 13.7961 0.0637207 9.23638 0.0637207C4.67662 0.0637207 0.986816 3.75487 0.986816 8.3163C0.986816 12.8777 4.67662 16.5689 9.23638 16.5689C11.2463 16.5689 13.0837 15.8487 14.5086 14.6558L17.7034 17.8443C17.9959 18.1369 18.4684 18.1369 18.7609 17.8443C19.0609 17.5592 19.0609 17.079 18.7684 16.7864ZM9.23638 15.0684C5.51658 15.0684 2.48674 12.0375 2.48674 8.3163C2.48674 4.59514 5.51658 1.56419 9.23638 1.56419C12.9562 1.56419 15.986 4.59514 15.986 8.3163C15.986 12.0375 12.9562 15.0684 9.23638 15.0684Z" fill="#9695B7"/>
</svg>
