<svg width="11" height="12" viewBox="0 0 11 12" fill="none" xmlns="http://www.w3.org/2000/svg">
<path d="M8.67321 7.30891C7.99994 7.30891 7.40614 7.64363 7.00405 8.1532L4.6242 6.60949C4.67563 6.41465 4.71303 6.20983 4.71303 5.995C4.71303 5.80017 4.68498 5.61532 4.6429 5.43047L7.04613 3.88676C7.44822 4.37136 8.02799 4.6811 8.67789 4.6811C9.88418 4.6811 10.8707 3.63197 10.8707 2.33805C10.8707 1.04413 9.8795 0 8.67321 0C7.46693 0 6.48039 1.04913 6.48039 2.34305C6.48039 2.60283 6.52714 2.84263 6.60195 3.07744L4.25016 4.59117C3.85273 4.04163 3.23556 3.67694 2.53423 3.67694C1.33729 3.67694 0.360107 4.72107 0.360107 6C0.360107 7.27893 1.33729 8.32306 2.53423 8.32306C3.21686 8.32306 3.82001 7.97835 4.21743 7.44879L6.58325 8.98251C6.52247 9.19734 6.48039 9.41715 6.48039 9.65695C6.48039 10.9459 7.46225 12 8.67321 12C9.88418 12 10.866 10.9509 10.866 9.65695C10.866 8.36303 9.8795 7.30891 8.67321 7.30891ZM8.67321 0.939217C9.39792 0.939217 9.98704 1.56869 9.98704 2.34305C9.98704 3.1174 9.39792 3.74688 8.67321 3.74688C7.94851 3.74688 7.35939 3.1174 7.35939 2.34305C7.35939 1.56869 7.94851 0.939217 8.67321 0.939217ZM2.53423 7.37885C1.81887 7.37885 1.23911 6.75937 1.23911 5.995C1.23911 5.23064 1.81887 4.61116 2.53423 4.61116C3.24959 4.61116 3.82936 5.23064 3.82936 5.995C3.82936 6.75937 3.24959 7.37885 2.53423 7.37885ZM8.67321 11.0508C7.94851 11.0508 7.35939 10.4213 7.35939 9.64696C7.35939 8.87261 7.94851 8.24313 8.67321 8.24313C9.39792 8.24313 9.98704 8.87261 9.98704 9.64696C9.98704 10.4213 9.39792 11.0508 8.67321 11.0508Z" fill="#1F1F3D"/>
</svg>
