<svg width="19" height="19" viewBox="0 0 19 19" fill="none" xmlns="http://www.w3.org/2000/svg">
<g clip-path="url(#clip0)">
<path d="M9.98512 13.9462C9.71512 13.6762 9.28012 13.6762 9.01012 13.9462L6.26512 16.6912V1.57869C6.26512 1.20369 5.95762 0.903687 5.57512 0.903687C5.19262 0.903687 4.88512 1.20369 4.88512 1.57869V16.7212L2.11012 13.9462C1.84012 13.6762 1.40512 13.6762 1.13512 13.9462C0.865117 14.2162 0.865117 14.6512 1.13512 14.9212L4.81012 18.5962C5.00512 18.7912 5.27512 18.9037 5.56012 18.9037C5.84512 18.9037 6.11512 18.7912 6.31762 18.5887L9.98512 14.9212C10.2551 14.6587 10.2551 14.2162 9.98512 13.9462Z" fill="#1F1F3D"/>
<path d="M17.8828 4.89369L14.2078 1.21869C13.7878 0.798687 13.1053 0.798687 12.6853 1.21869L9.02525 4.87869C8.75525 5.14869 8.75525 5.58369 9.02525 5.85369C9.29525 6.12369 9.73025 6.12369 10.0003 5.85369L12.7453 3.10869V7.26369C12.7453 7.64619 13.0528 7.95369 13.4353 7.95369C13.8178 7.95369 14.1328 7.65369 14.1328 7.27119V3.09369L16.9078 5.86869C17.0428 6.00369 17.2228 6.07119 17.3953 6.07119C17.5753 6.07119 17.7478 6.00369 17.8828 5.86869C18.1528 5.59869 18.1528 5.16369 17.8828 4.89369Z" fill="#1F1F3D"/>
<path d="M13.4351 16.3687C13.0526 16.3687 12.7451 16.6762 12.7451 17.0587V18.2137C12.7451 18.5962 13.0526 18.9037 13.4351 18.9037C13.8176 18.9037 14.1251 18.5962 14.1251 18.2137V17.0587C14.1326 16.6762 13.8176 16.3687 13.4351 16.3687Z" fill="#1F1F3D"/>
<path d="M13.4351 12.4537C13.0526 12.4537 12.7451 12.7612 12.7451 13.1437V15.1012C12.7451 15.4837 13.0526 15.7912 13.4351 15.7912C13.8176 15.7912 14.1251 15.4837 14.1251 15.1012V13.1437C14.1326 12.7612 13.8176 12.4537 13.4351 12.4537Z" fill="#1F1F3D"/>
<path d="M13.4351 8.5387C13.0526 8.5387 12.7451 8.8462 12.7451 9.2287V11.1862C12.7451 11.5687 13.0526 11.8762 13.4351 11.8762C13.8176 11.8762 14.1251 11.5687 14.1251 11.1862V9.2287C14.1326 8.8462 13.8176 8.5387 13.4351 8.5387Z" fill="#1F1F3D"/>
</g>
<defs>
<clipPath id="clip0">
<rect width="18" height="18" fill="white" transform="translate(0.508789 0.903687)"/>
</clipPath>
</defs>
</svg>
