<svg width="19" height="19" viewBox="0 0 19 19" fill="none" xmlns="http://www.w3.org/2000/svg">
<path d="M1.15623 2.03528C2.10942 2.05876 2.6836 2.2112 2.87877 2.49179C3.01151 2.68732 3.078 3.51918 3.078 4.98786V8.89025C3.078 10.1169 3.14039 11.0426 3.26537 11.6676C3.43743 12.5972 3.7616 13.3591 4.23814 13.9527C4.70671 14.5387 5.40607 15.0154 6.33566 15.3824C7.24973 15.7417 8.3591 15.9214 9.66367 15.9214C10.8042 15.9214 11.8004 15.7927 12.6522 15.5349C13.4879 15.2848 14.1989 14.937 14.7847 14.4918C15.3631 14.0388 15.8005 13.5583 16.0971 13.0504C16.3002 12.6911 16.4606 12.2143 16.5778 11.621C16.7419 10.7695 16.8006 9.58161 16.7537 8.05831C16.6444 5.11288 16.5584 3.5661 16.4958 3.41764C16.4958 3.33181 16.4899 3.21069 16.4784 3.05447C16.4666 2.89813 16.4606 2.79285 16.4606 2.7381C16.4606 2.53497 16.5194 2.37469 16.6365 2.25762C16.6837 2.21079 16.992 2.14426 17.5623 2.05831C17.8671 2.05051 18.1954 1.99957 18.5468 1.90599C18.5783 1.71854 18.5936 1.59746 18.5936 1.54266C18.5936 1.44112 18.5704 1.24184 18.5235 0.945129L18.3125 0.921692C17.3749 1.02328 16.6094 1.06223 16.0155 1.03883L13.6133 0.921692H12.629L12.6054 1.92959L12.7696 1.96465L13.9415 1.94125C14.2772 1.93345 14.5781 2.06631 14.8437 2.3398C14.992 2.50385 15.086 2.84748 15.1249 3.37093L15.1715 4.0625C15.2187 4.73432 15.2713 5.35726 15.33 5.9314C15.3887 6.50562 15.4317 6.98416 15.4589 7.36687C15.4862 7.74977 15.4999 8.24974 15.4999 8.86694C15.4999 10.0857 15.4179 10.9799 15.2538 11.5502C15.1213 12.0034 14.9139 12.4489 14.633 12.8863C14.4998 13.1051 14.246 13.355 13.8709 13.6365C13.5352 13.8941 13.1486 14.0933 12.7109 14.2339C12.0311 14.4528 11.2851 14.562 10.4728 14.562C9.77724 14.562 9.08617 14.3785 8.39858 14.0111C7.92205 13.7535 7.5471 13.3942 7.27366 12.9332C6.92219 12.324 6.72292 11.5346 6.676 10.5658L6.51195 7.28478L6.5 4.6015C6.5 4.55479 6.49799 4.45513 6.49409 4.30282C6.49015 4.1505 6.48818 4.02379 6.48818 3.92208C6.48818 3.00025 6.53896 2.48473 6.64046 2.3753C6.78908 2.17993 7.09758 2.08228 7.56631 2.08228C8.06645 2.08228 8.55074 2.04719 9.01947 1.97688V1.87139L8.99607 1.12146L9.00769 0.957319C8.77341 0.972916 8.43753 0.980797 7.99999 0.980797C7.76571 0.988595 7.19531 1.00813 6.28907 1.03937C5.64828 1.06285 4.99209 1.07442 4.32027 1.07442C4.05458 1.07442 3.4062 1.04725 2.37494 0.992453C1.96872 0.961259 1.53118 0.945703 1.06244 0.945703C0.851472 0.945703 0.695213 0.949479 0.59375 0.95736L0.628926 1.98866C0.691355 2.00409 0.867151 2.01977 1.15623 2.03528Z" fill="#1F1F3D"/>
<path d="M18.2183 17.4218H0.968696C0.859352 17.4218 0.769464 17.4569 0.699154 17.5273C0.628761 17.5977 0.59375 17.6874 0.59375 17.7968V18.5468C0.59375 18.6562 0.628926 18.7461 0.699154 18.8163C0.769464 18.8867 0.859188 18.9216 0.968696 18.9216H18.2183C18.3278 18.9216 18.4177 18.8867 18.4879 18.8163C18.5582 18.7461 18.5931 18.6562 18.5931 18.5468V17.7968C18.5931 17.6874 18.5581 17.5977 18.4879 17.5273C18.4177 17.4569 18.3278 17.4218 18.2183 17.4218Z" fill="#1F1F3D"/>
</svg>
