<svg width="19" height="19" viewBox="0 0 19 19" fill="none" xmlns="http://www.w3.org/2000/svg">
<path d="M11.0411 9.06372L18.2951 1.80971C18.6927 1.41213 18.6927 0.759491 18.2951 0.361908C17.8975 -0.035675 17.2449 -0.035675 16.8473 0.361908L9.59326 7.61592L2.33925 0.361908C1.94167 -0.035675 1.28903 -0.035675 0.891449 0.361908C0.493866 0.759491 0.493866 1.41213 0.891449 1.80971L8.14546 9.06372L0.891449 16.3177C0.493866 16.7153 0.493866 17.368 0.891449 17.7655C1.28903 18.1631 1.94167 18.1631 2.33925 17.7655L9.59326 10.5115L16.8473 17.7655C17.2449 18.1631 17.8975 18.1631 18.2951 17.7655C18.6927 17.368 18.6927 16.7153 18.2951 16.3177L11.0411 9.06372Z" fill="#9695B7"/>
</svg>
