<svg width="18" height="14" viewBox="0 0 18 14" fill="none" xmlns="http://www.w3.org/2000/svg">
<path d="M9.42637 13.1275C7.37887 13.1275 5.15137 13.06 2.80387 12.94C1.41637 12.865 0.343867 11.7925 0.186367 10.3375C-0.0686328 7.9075 -0.0686328 5.455 0.186367 3.04C0.336367 1.6 1.41637 0.527496 2.79637 0.437496C6.84637 0.182496 11.0089 0.182496 15.1864 0.437496C16.5889 0.519996 17.6389 1.57 17.8039 3.0325C18.0589 5.3575 18.0589 7.81 17.8039 10.33C17.6539 11.785 16.6039 12.8275 15.1939 12.9325C13.4164 13.06 11.4739 13.1275 9.42637 13.1275ZM8.95387 1.66C7.07887 1.66 5.18887 1.7125 3.33637 1.825C2.36137 1.885 1.63387 2.5825 1.52137 3.5575C1.28887 5.62 1.28887 7.7275 1.52137 9.8125C1.63387 10.8025 2.35387 11.5 3.32887 11.545C5.48137 11.6575 7.51387 11.71 9.38887 11.71C11.2564 11.71 13.0264 11.6575 14.6539 11.545C15.6364 11.4775 16.3639 10.78 16.4689 9.8125C16.7014 7.6525 16.7014 5.5525 16.4689 3.5575C16.3564 2.575 15.6289 1.8775 14.6539 1.825C12.7489 1.7125 10.8289 1.66 8.95387 1.66ZM7.23637 4.99V8.2375C7.23637 8.575 7.59637 8.8 7.89637 8.6425L11.0164 7.03C11.3389 6.865 11.3464 6.3925 11.0164 6.2275L7.89637 4.5925C7.59637 4.4275 7.23637 4.645 7.23637 4.99Z" fill="#1F1F3D"/>
</svg>
