<svg width="19" height="19" viewBox="0 0 19 19" fill="none" xmlns="http://www.w3.org/2000/svg">
<g clip-path="url(#clip0)">
<path d="M16.9958 16.9655H2.90557C1.83038 16.9655 0.950684 16.0858 0.950684 15.0106V5.58953C0.950684 4.51434 1.83038 3.63464 2.90557 3.63464H16.9958C18.071 3.63464 18.9507 4.51434 18.9507 5.58953V15.0106C18.9507 16.0858 18.071 16.9655 16.9958 16.9655ZM2.90557 5.1384C2.65745 5.1384 2.45444 5.34141 2.45444 5.58953V15.0106C2.45444 15.2587 2.65745 15.4617 2.90557 15.4617H16.9958C17.2439 15.4617 17.4469 15.2587 17.4469 15.0106V5.58953C17.4469 5.34141 17.2439 5.1384 16.9958 5.1384H2.90557Z" fill="#1F1F3D"/>
<path d="M9.95059 14.2812C7.7551 14.2812 5.97314 12.4993 5.97314 10.3038C5.97314 8.10831 7.7551 6.32635 9.95059 6.32635C12.1461 6.32635 13.928 8.10831 13.928 10.3038C13.928 12.4993 12.1461 14.2812 9.95059 14.2812ZM9.95059 7.83011C8.58969 7.83011 7.4769 8.9429 7.4769 10.3038C7.4769 11.6647 8.58969 12.7775 9.95059 12.7775C11.3115 12.7775 12.4243 11.6647 12.4243 10.3038C12.4243 8.9429 11.319 7.83011 9.95059 7.83011Z" fill="#1F1F3D"/>
<path d="M13.1875 2.43912H6.71379C6.30026 2.43912 5.96191 2.10078 5.96191 1.68724C5.96191 1.27371 6.30026 0.935364 6.71379 0.935364H13.1875C13.601 0.935364 13.9394 1.27371 13.9394 1.68724C13.9394 2.10078 13.601 2.43912 13.1875 2.43912Z" fill="#1F1F3D"/>
</g>
<defs>
<clipPath id="clip0">
<rect width="18" height="18" fill="white" transform="translate(0.950684 0.0410156)"/>
</clipPath>
</defs>
</svg>
